<svg width="16" height="19" viewBox="0 0 16 19" fill="none" xmlns="http://www.w3.org/2000/svg">
<path d="M1.24581 10.6775L0.452958 9.89707C0.117243 9.5666 0.117243 9.03223 0.452958 8.70527L7.39224 1.8709C7.72796 1.54043 8.27081 1.54043 8.60296 1.8709L15.5422 8.70176C15.878 9.03223 15.878 9.5666 15.5422 9.89356L14.7494 10.674C14.4101 11.008 13.8565 11.001 13.5244 10.66L9.42796 6.42715V16.5311C9.42796 16.9986 9.04582 17.3748 8.57082 17.3748H7.42796C6.95296 17.3748 6.57082 16.9986 6.57082 16.5311V6.42715L2.47081 10.6635C2.13867 11.008 1.5851 11.015 1.24581 10.6775Z" fill="#0660E8"/>
</svg>
