<svg width="211" height="190" viewBox="0 0 211 190" fill="none" xmlns="http://www.w3.org/2000/svg">
<path d="M124.973 52.522C96.3721 64.3756 75.1637 27.6659 51.4728 21.731C22.4867 14.4682 -1.04696 40.9612 7.61962 68.7224C15.0559 92.5271 37.5272 91.9797 55.0555 103.952C78.9902 120.326 89.0768 145.356 119.949 152.9C179.569 167.475 197.265 81.7033 182.924 36.739C177.976 21.227 172.951 8.3599 153.846 14.0292C136.518 19.1945 136.757 47.6386 124.973 52.522Z" fill="#0660E8"/>
<path opacity="0.9" d="M124.973 52.522C96.3721 64.3756 75.1637 27.6659 51.4728 21.731C22.4867 14.4682 -1.04696 40.9612 7.61962 68.7224C15.0559 92.5271 37.5272 91.9797 55.0555 103.952C78.9902 120.326 89.0768 145.356 119.949 152.9C179.569 167.475 197.265 81.7033 182.924 36.739C177.976 21.227 172.951 8.3599 153.846 14.0292C136.518 19.1945 136.757 47.6386 124.973 52.522Z" fill="white"/>
<path d="M105.501 186.738C163.539 186.738 210.589 183.991 210.589 180.602C210.589 177.214 163.539 174.467 105.501 174.467C47.4618 174.467 0.412109 177.214 0.412109 180.602C0.412109 183.991 47.4618 186.738 105.501 186.738Z" fill="#F5F5F5"/>
<path d="M208.155 0.0456543H105.793V101.898H208.155V0.0456543Z" fill="#0660E8"/>
<path opacity="0.1" d="M139.207 5.11334H105.793V24.2839H139.207V5.11334Z" fill="black"/>
<path opacity="0.2" d="M139.207 43.4545H105.793V62.625H139.207V43.4545Z" fill="black"/>
<path opacity="0.1" d="M139.207 62.625H105.793V81.7955H139.207V62.625Z" fill="black"/>
<path d="M139.209 5.11334H206.46V98.088C206.46 98.7464 206.199 99.3778 205.733 99.8433C205.268 100.309 204.636 100.57 203.978 100.57H141.691C141.033 100.57 140.402 100.309 139.936 99.8433C139.471 99.3778 139.209 98.7464 139.209 98.088V5.11334Z" fill="white"/>
<path opacity="0.3" d="M208.155 0.0456543H105.793V5.11335H208.155V0.0456543Z" fill="black"/>
<path opacity="0.8" d="M109.784 3.61203C110.352 3.61203 110.813 3.15097 110.813 2.58223C110.813 2.01349 110.352 1.55243 109.784 1.55243C109.215 1.55243 108.754 2.01349 108.754 2.58223C108.754 3.15097 109.215 3.61203 109.784 3.61203Z" fill="#0660E8"/>
<path opacity="0.8" d="M114.481 3.61203C115.05 3.61203 115.511 3.15097 115.511 2.58223C115.511 2.01349 115.05 1.55243 114.481 1.55243C113.912 1.55243 113.451 2.01349 113.451 2.58223C113.451 3.15097 113.912 3.61203 114.481 3.61203Z" fill="#0660E8"/>
<path opacity="0.8" d="M119.174 3.61203C119.743 3.61203 120.204 3.15097 120.204 2.58223C120.204 2.01349 119.743 1.55243 119.174 1.55243C118.606 1.55243 118.145 2.01349 118.145 2.58223C118.145 3.15097 118.606 3.61203 119.174 3.61203Z" fill="#0660E8"/>
<path opacity="0.2" d="M185.137 14.6688H145.945C145.092 14.6688 144.4 15.3604 144.4 16.2135V47.0208C144.4 47.8739 145.092 48.5655 145.945 48.5655H185.137C185.99 48.5655 186.682 47.8739 186.682 47.0208V16.2135C186.682 15.3604 185.99 14.6688 185.137 14.6688Z" fill="#0660E8"/>
<path opacity="0.2" d="M201.233 11.9751H171.13C170.475 11.9751 169.943 12.5065 169.943 13.1621V36.8258C169.943 37.4813 170.475 38.0128 171.13 38.0128H201.233C201.889 38.0128 202.42 37.4813 202.42 36.8258V13.1621C202.42 12.5065 201.889 11.9751 201.233 11.9751Z" fill="#0660E8"/>
<path opacity="0.2" d="M184.393 59.5031H154.29C153.635 59.5031 153.104 60.0345 153.104 60.69V84.3538C153.104 85.0093 153.635 85.5407 154.29 85.5407H184.393C185.049 85.5407 185.58 85.0093 185.58 84.3538V60.69C185.58 60.0345 185.049 59.5031 184.393 59.5031Z" fill="#0660E8"/>
<path opacity="0.7" d="M208.155 0.0456543H105.793V101.898H208.155V0.0456543Z" fill="white"/>
<path d="M198.759 9.44391H96.3965V111.297H198.759V9.44391Z" fill="#0660E8"/>
<path opacity="0.1" d="M129.811 14.5117H96.3965V33.6822H129.811V14.5117Z" fill="black"/>
<path opacity="0.2" d="M129.811 52.8473H96.3965V72.0178H129.811V52.8473Z" fill="black"/>
<path opacity="0.1" d="M129.811 72.0178H96.3965V91.1884H129.811V72.0178Z" fill="black"/>
<path d="M129.809 14.5117H197.06V107.481C197.06 108.139 196.798 108.771 196.333 109.236C195.867 109.702 195.236 109.963 194.578 109.963H132.296C131.638 109.963 131.007 109.702 130.541 109.236C130.076 108.771 129.814 108.139 129.814 107.481V14.5117H129.809Z" fill="white"/>
<path opacity="0.3" d="M198.759 9.44391H96.3965V14.5116H198.759V9.44391Z" fill="black"/>
<path opacity="0.8" d="M100.383 13.0048C100.952 13.0048 101.413 12.5438 101.413 11.9751C101.413 11.4063 100.952 10.9453 100.383 10.9453C99.8146 10.9453 99.3535 11.4063 99.3535 11.9751C99.3535 12.5438 99.8146 13.0048 100.383 13.0048Z" fill="#0660E8"/>
<path opacity="0.8" d="M105.081 13.0048C105.649 13.0048 106.11 12.5438 106.11 11.9751C106.11 11.4063 105.649 10.9453 105.081 10.9453C104.512 10.9453 104.051 11.4063 104.051 11.9751C104.051 12.5438 104.512 13.0048 105.081 13.0048Z" fill="#0660E8"/>
<path opacity="0.8" d="M109.784 13.0048C110.352 13.0048 110.813 12.5438 110.813 11.9751C110.813 11.4063 110.352 10.9453 109.784 10.9453C109.215 10.9453 108.754 11.4063 108.754 11.9751C108.754 12.5438 109.215 13.0048 109.784 13.0048Z" fill="#0660E8"/>
<path opacity="0.2" d="M175.746 24.0671H136.554C135.701 24.0671 135.01 24.7587 135.01 25.6118V56.4191C135.01 57.2722 135.701 57.9638 136.554 57.9638H175.746C176.6 57.9638 177.291 57.2722 177.291 56.4191V25.6118C177.291 24.7587 176.6 24.0671 175.746 24.0671Z" fill="#0660E8"/>
<path opacity="0.2" d="M192.335 50.8473H162.232C161.576 50.8473 161.045 51.3787 161.045 52.0343V75.698C161.045 76.3535 161.576 76.885 162.232 76.885H192.335C192.99 76.885 193.522 76.3535 193.522 75.698V52.0343C193.522 51.3787 192.99 50.8473 192.335 50.8473Z" fill="#0660E8"/>
<path opacity="0.2" d="M175.001 68.9014H144.898C144.242 68.9014 143.711 69.4328 143.711 70.0883V93.7521C143.711 94.4076 144.242 94.9391 144.898 94.9391H175.001C175.656 94.9391 176.188 94.4076 176.188 93.7521V70.0883C176.188 69.4328 175.656 68.9014 175.001 68.9014Z" fill="#0660E8"/>
<path opacity="0.5" d="M198.759 9.44391H96.3965V111.297H198.759V9.44391Z" fill="white"/>
<path d="M189.366 18.8368H87.0039V120.689H189.366V18.8368Z" fill="#0660E8"/>
<path opacity="0.1" d="M120.418 23.9045H87.0039V43.075H120.418V23.9045Z" fill="black"/>
<path opacity="0.2" d="M120.418 62.2456H87.0039V81.4162H120.418V62.2456Z" fill="black"/>
<path opacity="0.1" d="M120.418 81.4161H87.0039V100.587H120.418V81.4161Z" fill="black"/>
<path d="M120.416 23.9045H187.667V116.879C187.667 117.538 187.406 118.169 186.94 118.634C186.475 119.1 185.843 119.362 185.185 119.362H122.898C122.24 119.362 121.609 119.1 121.143 118.634C120.678 118.169 120.416 117.538 120.416 116.879V23.9045Z" fill="white"/>
<path opacity="0.3" d="M189.366 18.8368H87.0039V23.9045H189.366V18.8368Z" fill="black"/>
<path opacity="0.8" d="M90.9907 22.4032C91.5595 22.4032 92.0205 21.9421 92.0205 21.3734C92.0205 20.8046 91.5595 20.3436 90.9907 20.3436C90.422 20.3436 89.9609 20.8046 89.9609 21.3734C89.9609 21.9421 90.422 22.4032 90.9907 22.4032Z" fill="#0660E8"/>
<path opacity="0.8" d="M96.7208 21.3734C96.7219 21.5784 96.6621 21.779 96.549 21.95C96.4359 22.1209 96.2746 22.2545 96.0855 22.3337C95.8965 22.4128 95.6881 22.4341 95.487 22.3948C95.2858 22.3555 95.1008 22.2573 94.9555 22.1127C94.8102 21.9682 94.7111 21.7837 94.6707 21.5828C94.6303 21.3818 94.6505 21.1734 94.7287 20.9839C94.8069 20.7944 94.9395 20.6324 95.1099 20.5184C95.2803 20.4044 95.4806 20.3436 95.6856 20.3436C95.8213 20.3429 95.9558 20.369 96.0813 20.4204C96.2069 20.4718 96.3211 20.5476 96.4173 20.6433C96.5135 20.739 96.5898 20.8527 96.6419 20.978C96.694 21.1033 96.7208 21.2377 96.7208 21.3734Z" fill="#0660E8"/>
<path opacity="0.8" d="M100.383 22.4032C100.952 22.4032 101.413 21.9421 101.413 21.3734C101.413 20.8046 100.952 20.3436 100.383 20.3436C99.8146 20.3436 99.3535 20.8046 99.3535 21.3734C99.3535 21.9421 99.8146 22.4032 100.383 22.4032Z" fill="#0660E8"/>
<path opacity="0.2" d="M142.546 16.3382H83.6576C82.3765 16.3382 81.3379 17.3768 81.3379 18.658V64.9502C81.3379 66.2313 82.3765 67.2699 83.6576 67.2699H142.546C143.827 67.2699 144.866 66.2313 144.866 64.9502V18.658C144.866 17.3768 143.827 16.3382 142.546 16.3382Z" fill="#0660E8"/>
<path opacity="0.2" d="M174.4 41.2214H129.17C128.185 41.2214 127.387 42.0198 127.387 43.0046V78.5598C127.387 79.5447 128.185 80.343 129.17 80.343H174.4C175.385 80.343 176.183 79.5447 176.183 78.5598V43.0046C176.183 42.0198 175.385 41.2214 174.4 41.2214Z" fill="#0660E8"/>
<path opacity="0.2" d="M190.724 89.5406H145.494C144.509 89.5406 143.711 90.339 143.711 91.3238V126.879C143.711 127.864 144.509 128.662 145.494 128.662H190.724C191.709 128.662 192.507 127.864 192.507 126.879V91.3238C192.507 90.339 191.709 89.5406 190.724 89.5406Z" fill="#0660E8"/>
<path d="M56.9111 46.1427L52.9762 54.3974C51.6754 57.1507 50.4017 59.9203 49.2689 62.6629L48.8624 63.6872C48.8028 63.8444 48.7866 63.8769 48.7432 64.0124C48.6998 64.1479 48.6673 64.2563 48.6348 64.4081C48.4919 65.0557 48.3852 65.7107 48.315 66.3701C48.1633 67.7848 48.0765 69.2807 48.0223 70.782C47.9139 73.7901 47.8868 76.8741 47.8489 79.9256L44.8787 80.2562C44.1995 77.1759 43.7072 74.0573 43.4045 70.9175C43.2417 69.2967 43.1657 67.6684 43.1768 66.0395C43.1799 65.1584 43.2415 64.2784 43.3611 63.4054C43.3882 63.1778 43.4424 62.9176 43.4966 62.6683C43.5508 62.419 43.643 62.0883 43.7026 61.8824L44.0766 60.7279C45.0901 57.6765 46.2717 54.7659 47.5128 51.8987C48.754 49.0316 50.0819 46.2186 51.5128 43.4164L56.9111 46.1427Z" fill="#FFC3BD"/>
<path d="M47.8055 78.9933L49.193 81.5895L44.7649 82.8252C44.7649 82.8252 43.9193 80.7385 44.922 79.0963L47.8055 78.9933Z" fill="#FFC3BD"/>
<path d="M50.8956 85.3347L46.8198 85.6545L44.7656 82.8252L49.1938 81.5895L50.8956 85.3347Z" fill="#FFC3BD"/>
<path d="M70.176 24.713C70.2412 25.0278 70.4583 25.2557 70.6645 25.2069C70.8708 25.158 70.9847 24.8758 70.925 24.561C70.8653 24.2462 70.6428 24.0182 70.4365 24.0671C70.2303 24.1159 70.1109 24.3765 70.176 24.713Z" fill="#263238"/>
<path d="M70.4277 25.254C70.9982 26.139 71.6876 26.9415 72.4765 27.6388C72.2939 27.8366 72.0702 27.992 71.8211 28.0941C71.5721 28.1962 71.3037 28.2424 71.0348 28.2296L70.4277 25.254Z" fill="#ED847E"/>
<path d="M68.6444 23.1999C68.6973 23.1988 68.7477 23.1775 68.7853 23.1403C68.9402 22.9611 69.1355 22.8215 69.3551 22.7329C69.5747 22.6443 69.8123 22.6093 70.0481 22.6308C70.0977 22.6394 70.1487 22.628 70.1899 22.599C70.2311 22.57 70.259 22.5259 70.2677 22.4763C70.2763 22.4267 70.2648 22.3757 70.2359 22.3346C70.2069 22.2934 70.1628 22.2654 70.1132 22.2568C69.812 22.2215 69.5066 22.2597 69.2234 22.3683C68.9402 22.4768 68.6876 22.6525 68.4872 22.8801C68.4619 22.9069 68.445 22.9405 68.4385 22.9767C68.432 23.0129 68.4362 23.0503 68.4506 23.0842C68.4649 23.1181 68.4889 23.1471 68.5194 23.1676C68.55 23.1882 68.5859 23.1994 68.6227 23.1999H68.6444Z" fill="#263238"/>
<path d="M61.2087 29.1401C61.7778 32.0507 62.3524 37.3894 60.3145 39.3297C60.3145 39.3297 61.1112 42.2891 66.5204 42.2891C72.4824 42.2891 69.3659 39.3352 69.3659 39.3352C66.1139 38.5547 66.2006 36.1482 66.7642 33.8826L61.2087 29.1401Z" fill="#FFC3BD"/>
<path d="M58.9612 40.365C58.4897 39.5195 57.9639 38.5547 59.0479 38.2566C60.2349 37.9206 66.7552 37.5845 69.0045 38.2078C71.2538 38.8311 70.6305 40.5384 70.6305 40.5384L58.9612 40.365Z" fill="#263238"/>
<path d="M42.1486 172.548C42.4836 172.627 42.8361 172.57 43.1296 172.391C43.1819 172.329 43.2141 172.253 43.2219 172.173C43.2296 172.092 43.2126 172.011 43.173 171.941C43.1483 171.882 43.1113 171.83 43.0645 171.787C43.0178 171.744 42.9624 171.711 42.902 171.692C42.36 171.491 41.1676 172.125 41.1134 172.152C41.0978 172.161 41.0849 172.173 41.0763 172.189C41.0676 172.204 41.0636 172.221 41.0646 172.239C41.066 172.258 41.0729 172.275 41.0845 172.29C41.0962 172.304 41.1119 172.315 41.1296 172.32C41.461 172.43 41.8023 172.506 42.1486 172.548ZM42.7285 171.843L42.8424 171.87C42.8778 171.882 42.9103 171.901 42.9375 171.926C42.9647 171.951 42.9859 171.982 42.9995 172.017C43.07 172.179 42.9995 172.239 42.9995 172.261C42.8044 172.461 41.9968 172.38 41.4169 172.212C41.8214 171.993 42.2694 171.867 42.7285 171.843Z" fill="#0660E8"/>
<path d="M41.151 172.342C41.1649 172.347 41.1804 172.347 41.1943 172.342C41.6279 172.163 42.5168 171.383 42.4789 170.933C42.4729 170.862 42.4426 170.796 42.3931 170.746C42.3437 170.695 42.2781 170.664 42.2079 170.656C42.1378 170.638 42.0646 170.635 41.9934 170.648C41.9223 170.662 41.8548 170.69 41.7959 170.732C41.2973 171.057 41.0751 172.19 41.0697 172.239C41.0669 172.255 41.0685 172.272 41.0742 172.287C41.0799 172.302 41.0896 172.315 41.1022 172.326C41.1086 172.332 41.1163 172.337 41.1247 172.339C41.1332 172.342 41.1421 172.343 41.151 172.342ZM42.0561 170.949H42.094C42.2133 170.987 42.2133 171.041 42.2133 171.068C42.2133 171.334 41.5954 171.892 41.1293 172.12C41.2381 171.679 41.4781 171.282 41.8176 170.982C41.8521 170.958 41.891 170.942 41.9319 170.933C41.9729 170.925 42.0151 170.925 42.0561 170.933V170.949Z" fill="#0660E8"/>
<path d="M70.9072 176.342C71.4167 176.342 71.9099 176.272 72.0725 176.038C72.1165 175.979 72.1403 175.907 72.1403 175.832C72.1403 175.758 72.1165 175.686 72.0725 175.627C72.0064 175.516 71.8992 175.436 71.7744 175.404C71.1132 175.225 69.7202 176.022 69.6606 176.055C69.6427 176.061 69.6273 176.073 69.6164 176.088C69.6055 176.104 69.5996 176.122 69.5996 176.141C69.5996 176.16 69.6055 176.179 69.6164 176.194C69.6273 176.21 69.6427 176.222 69.6606 176.228C70.072 176.302 70.4892 176.34 70.9072 176.342ZM71.5359 175.567C71.5971 175.558 71.6591 175.558 71.7202 175.567C71.7583 175.574 71.7945 175.59 71.8262 175.612C71.858 175.635 71.8846 175.664 71.9045 175.697C71.9695 175.816 71.9479 175.876 71.9045 175.908C71.7202 176.163 70.7121 176.169 69.975 176.066C70.4599 175.809 70.99 175.649 71.5359 175.594V175.567Z" fill="#0660E8"/>
<path d="M69.7319 176.228C70.2089 176.011 71.1628 175.144 71.0923 174.7C71.0923 174.597 71.0002 174.461 70.74 174.434C70.6434 174.423 70.5456 174.432 70.4524 174.46C70.3593 174.488 70.2727 174.534 70.198 174.597C69.694 175.014 69.5856 176.087 69.5802 176.131C69.5795 176.147 69.5826 176.163 69.5892 176.178C69.5957 176.193 69.6056 176.207 69.6181 176.217C69.6348 176.228 69.6539 176.235 69.6737 176.236C69.6935 176.238 69.7135 176.236 69.7319 176.228ZM70.7021 174.602H70.7563C70.9297 174.602 70.9406 174.689 70.9406 174.71C70.9839 174.976 70.339 175.654 69.8566 175.952C69.9076 175.496 70.0967 175.067 70.3986 174.721C70.4788 174.66 70.5746 174.623 70.675 174.613L70.7021 174.602Z" fill="#0660E8"/>
<path d="M65.3242 176.136H69.3079L69.7036 166.917H65.7199L65.3242 176.136Z" fill="#FFC3BD"/>
<path d="M36.625 171.74L40.5816 172.169L43.568 163.22L39.6114 162.792L36.625 171.74Z" fill="#FFC3BD"/>
<path d="M40.9118 171.74L36.4674 171.258C36.3888 171.25 36.3096 171.268 36.2428 171.311C36.1759 171.353 36.1252 171.416 36.0989 171.491L34.939 174.927C34.9107 175.011 34.9018 175.099 34.9128 175.186C34.9237 175.274 34.9544 175.357 35.0024 175.431C35.0505 175.504 35.1146 175.566 35.19 175.611C35.2654 175.656 35.3501 175.684 35.4376 175.692C36.9932 175.838 37.7574 175.827 39.714 176.038C40.9173 176.169 43.3834 176.58 45.0473 176.743C46.7112 176.906 47.1015 175.307 46.4402 175.085C43.4592 174.087 42.4132 173.041 41.5297 172.055C41.3686 171.879 41.1491 171.767 40.9118 171.74Z" fill="#263238"/>
<path d="M69.2794 175.675H64.9434C64.8647 175.675 64.7883 175.702 64.7271 175.751C64.6659 175.8 64.6235 175.869 64.6073 175.946L63.8214 179.486C63.8018 179.571 63.8017 179.66 63.8212 179.745C63.8407 179.83 63.8793 179.91 63.9341 179.978C63.9888 180.047 64.0583 180.102 64.1374 180.139C64.2164 180.177 64.303 180.196 64.3905 180.196C65.9623 180.168 68.2279 180.076 70.2008 180.076C72.5043 180.076 74.4934 180.201 77.198 180.201C78.824 180.201 79.2847 178.548 78.6018 178.396C75.4853 177.719 72.9433 177.643 70.255 175.984C69.9649 175.792 69.627 175.685 69.2794 175.675Z" fill="#263238"/>
<path d="M75.2135 41.3677C76.3409 41.72 77.6038 42.1048 78.8124 42.4517C80.0211 42.7986 81.2623 43.0967 82.4926 43.3622C84.8875 43.9262 87.3265 44.2835 89.7825 44.43C90.3679 44.43 90.9478 44.4679 91.5061 44.43H91.8475C91.918 44.43 92.0372 44.43 92.1348 44.4029C92.3516 44.3704 92.6009 44.3162 92.8611 44.2511C94.0148 43.9339 95.1464 43.541 96.2486 43.075C98.5792 42.1211 100.969 41.0045 103.333 39.926L104.986 42.4137C102.931 44.2289 100.722 45.8611 98.384 47.2917C97.1491 48.0621 95.8487 48.7223 94.4979 49.2646C94.1122 49.4181 93.7176 49.5485 93.3164 49.6549C93.0887 49.7091 92.8828 49.7633 92.628 49.8066L92.2649 49.8662L91.983 49.8988C91.2242 49.9963 90.4817 50.0343 89.7446 50.0559C86.9037 50.0802 84.0682 49.8077 81.284 49.2429C79.9235 48.9719 78.5739 48.7009 77.246 48.3107C75.9181 47.9205 74.6282 47.579 73.2461 47.0804L75.2135 41.3677Z" fill="#FFC3BD"/>
<path d="M53.181 40.2349C49.452 41.0858 45.6797 52.0017 45.6797 52.0017L53.3598 57.5084C53.3598 57.5084 55.5278 52.4299 57.6145 47.9855C59.8259 43.346 56.9966 39.3568 53.181 40.2349Z" fill="#0660E8"/>
<path opacity="0.3" d="M53.181 40.2349C49.452 41.0858 45.6797 52.0017 45.6797 52.0017L53.3598 57.5084C53.3598 57.5084 55.5278 52.4299 57.6145 47.9855C59.8259 43.346 56.9966 39.3568 53.181 40.2349Z" fill="black"/>
<path d="M75.4904 40.4354C75.4904 40.4354 79.7288 45.2267 75.7234 74.8524H54.4282C54.2819 71.6004 56.3361 55.6385 53.1816 40.2349C55.537 39.7786 57.9197 39.4762 60.3144 39.3298C63.3289 39.1534 66.3512 39.1534 69.3658 39.3298C71.4328 39.5395 73.4805 39.9092 75.4904 40.4354Z" fill="#0660E8"/>
<path opacity="0.3" d="M75.4904 40.4354C75.4904 40.4354 79.7288 45.2267 75.7234 74.8524H54.4282C54.2819 71.6004 56.3361 55.6385 53.1816 40.2349C55.537 39.7786 57.9197 39.4762 60.3144 39.3298C63.3289 39.1534 66.3512 39.1534 69.3658 39.3298C71.4328 39.5395 73.4805 39.9092 75.4904 40.4354Z" fill="black"/>
<path opacity="0.3" d="M75.4908 40.4355C75.4908 40.4355 75.0139 40.3054 74.2388 40.1265C71.8974 40.3704 70.7592 43.0642 71.3879 45.8609C71.854 47.9422 74.8784 50.7877 77.4475 52.9069C77.3878 42.5818 75.4908 40.4355 75.4908 40.4355Z" fill="black"/>
<path d="M70.2724 46.5492C72.1748 49.8446 82.5758 53.0532 82.5758 53.0532L86.0662 43.6983C86.0662 43.6983 80.1043 42.0723 75.481 40.4463C69.7629 38.3921 68.1965 42.9286 70.2724 46.5492Z" fill="#0660E8"/>
<path opacity="0.3" d="M70.2724 46.5492C72.1748 49.8446 82.5758 53.0532 82.5758 53.0532L86.0662 43.6983C86.0662 43.6983 80.1043 42.0723 75.481 40.4463C69.7629 38.3921 68.1965 42.9286 70.2724 46.5492Z" fill="black"/>
<path d="M102.658 40.8311L103.319 36.6848L106.994 37.7363C106.994 37.7363 107.536 41.4273 104.859 42.5167L102.658 40.8311Z" fill="#FFC3BD"/>
<path d="M104.901 33.0263L108.001 35.6333L106.993 37.7363L103.318 36.6848L104.901 33.0263Z" fill="#FFC3BD"/>
<path opacity="0.2" d="M69.696 166.917L69.4954 171.67H65.5117L65.7123 166.917H69.696Z" fill="black"/>
<path opacity="0.2" d="M39.6131 162.792L43.5697 163.226L42.0304 167.838L38.0684 167.404L39.6131 162.792Z" fill="black"/>
<path d="M59.5407 26.1754C60.5651 29.9965 60.9716 32.2838 63.3347 33.8664C66.8794 36.2566 71.2913 33.5141 71.4268 29.4708C71.5514 25.8286 69.8604 20.1972 65.7629 19.4275C64.8612 19.2598 63.9318 19.3236 63.0615 19.613C62.1913 19.9023 61.4087 20.4077 60.787 21.082C60.1653 21.7562 59.7248 22.5771 59.5069 23.468C59.2889 24.3588 59.3005 25.2903 59.5407 26.1754Z" fill="#FFC3BD"/>
<path d="M68.5232 14.6959C68.4986 14.953 68.4167 15.2014 68.2835 15.4228C68.1503 15.6441 67.9692 15.8328 67.7535 15.975C67.5747 13.9696 66.7779 12.0401 64.9947 11.097C65.2874 11.9479 64.4527 13.2975 63.2278 14.6742C63.0916 14.1701 62.8529 13.6996 62.5264 13.292C62.2 12.8844 61.793 12.5487 61.3308 12.3056C60.5178 15.4547 57.9162 15.975 55.8512 17.9153C55.4042 18.3548 55.0996 18.9184 54.9769 19.533C54.8541 20.1477 54.9189 20.7851 55.1629 21.3625C54.6209 21.1186 53.9759 21.1782 53.5098 22.3923C53.957 22.1093 54.4714 21.9504 55.0003 21.9316C54.6317 22.2784 54.3444 22.8801 54.5558 24.2351C54.9244 26.5277 59.6344 33.3407 62.6099 32.9992C65.8619 32.6252 66.4581 28.8583 66.534 25.46L66.6587 25.3949C68.9134 24.1971 71.6993 17.7907 68.5232 14.6959Z" fill="#263238"/>
<path d="M64.99 26.2405C65.3972 27.1339 66.0866 27.8689 66.9521 28.3326C68.1011 28.9288 68.7407 28.0562 68.4859 26.9125C68.2529 25.8773 67.4019 24.3272 66.1933 24.2025C64.9846 24.0779 64.5131 25.1565 64.99 26.2405Z" fill="#FFC3BD"/>
<path d="M68.1719 74.8524C68.1719 74.8524 63.6517 105.28 61.1693 116.684C58.4593 129.15 44.1668 167.388 44.1668 167.388L36.9961 166.071C36.9961 166.071 47.6735 130.174 49.2236 117.833C50.9092 104.419 54.4268 74.8741 54.4268 74.8741L68.1719 74.8524Z" fill="#0660E8"/>
<path opacity="0.2" d="M65.3176 85.6925C60.0927 86.7169 60.6456 106.202 61.2743 116.223C62.781 109.139 64.987 95.5081 66.4938 85.8334C66.1292 85.6538 65.7143 85.6041 65.3176 85.6925Z" fill="black"/>
<path d="M75.723 74.8524C75.723 74.8524 76.265 104.624 75.8422 116.765C75.3923 129.394 70.9642 170.748 70.9642 170.748H64.2326C64.2326 170.748 63.9832 130.131 63.6906 117.73C63.3654 104.207 61.7285 74.8524 61.7285 74.8524H75.723Z" fill="#0660E8"/>
<path opacity="0.2" d="M69.8454 165.865L69.5527 165.833C70.7397 154.391 73.5473 126.706 73.8887 116.782C74.2519 106.614 73.9213 83.893 73.8129 77.1722L74.1055 77.1396C74.2139 83.8604 74.5446 106.592 74.1814 116.776C73.84 126.716 71.0324 154.418 69.8454 165.865Z" fill="black"/>
<path d="M45.7994 164.96C45.8319 164.96 44.5528 167.578 44.5528 167.578L36.4824 166.093L37.084 163.659L45.7994 164.96Z" fill="#0660E8"/>
<path opacity="0.5" d="M45.7994 164.96C45.8319 164.96 44.5528 167.578 44.5528 167.578L36.4824 166.093L37.084 163.659L45.7994 164.96Z" fill="black"/>
<path d="M72.2782 168.06C72.3107 168.06 71.8988 170.862 71.8988 170.862H63.6929L63.4707 168.364L72.2782 168.06Z" fill="#0660E8"/>
<path opacity="0.5" d="M72.2782 168.06C72.3107 168.06 71.8988 170.862 71.8988 170.862H63.6929L63.4707 168.364L72.2782 168.06Z" fill="black"/>
</svg>
