<svg width="229" height="192" viewBox="0 0 229 192" fill="none" xmlns="http://www.w3.org/2000/svg">
<g clip-path="url(#clip0_27_31280)">
<path d="M211.849 107.702C209.412 97.8073 197.406 84.0013 187.01 80.2312C173.735 75.4168 167.251 83.252 155.622 81.9127C124.222 78.2901 111.626 53.3449 95.4422 30.7715C59.6292 -19.2546 -11.3006 2.80554 9.06621 68.3132C21.3028 107.684 68.0662 167.18 115.372 127.567C135.81 110.457 126.954 100.687 154.478 115.696C165.34 121.62 222.882 152.518 211.849 107.702Z" fill="#0660E8"/>
<path opacity="0.9" d="M211.849 107.702C209.412 97.8073 197.406 84.0013 187.01 80.2312C173.735 75.4168 167.251 83.252 155.622 81.9127C124.222 78.2901 111.626 53.3449 95.4422 30.7715C59.6292 -19.2546 -11.3006 2.80554 9.06621 68.3132C21.3028 107.684 68.0662 167.18 115.372 127.567C135.81 110.457 126.954 100.687 154.478 115.696C165.34 121.62 222.882 152.518 211.849 107.702Z" fill="white"/>
<path d="M114.501 192.26C177.679 192.26 228.896 189.27 228.896 185.582C228.896 181.893 177.679 178.903 114.501 178.903C51.3219 178.903 0.105469 181.893 0.105469 185.582C0.105469 189.27 51.3219 192.26 114.501 192.26Z" fill="#F5F5F5"/>
<path d="M185.23 182.213H184.599C184.467 182.203 184.343 182.145 184.251 182.051C184.159 181.956 184.104 181.831 184.097 181.699L180.215 154.666H183.165L185.737 181.522C185.751 181.601 185.75 181.682 185.731 181.76C185.713 181.838 185.68 181.912 185.632 181.977C185.585 182.041 185.524 182.095 185.455 182.136C185.386 182.177 185.309 182.203 185.23 182.213Z" fill="#0660E8"/>
<path opacity="0.3" d="M185.23 182.213H184.599C184.467 182.203 184.343 182.145 184.251 182.051C184.159 181.956 184.104 181.831 184.097 181.699L180.215 154.666H183.165L185.737 181.522C185.751 181.601 185.75 181.682 185.731 181.76C185.713 181.838 185.68 181.912 185.632 181.977C185.585 182.041 185.524 182.095 185.455 182.136C185.386 182.177 185.309 182.203 185.23 182.213Z" fill="black"/>
<path d="M193.324 182.213H192.692C192.561 182.203 192.437 182.145 192.345 182.051C192.252 181.956 192.198 181.831 192.191 181.699L188.309 154.666H191.259L193.837 181.522C193.851 181.602 193.849 181.683 193.83 181.762C193.812 181.84 193.778 181.914 193.73 181.979C193.682 182.043 193.621 182.097 193.551 182.138C193.481 182.178 193.404 182.203 193.324 182.213Z" fill="#0660E8"/>
<path opacity="0.3" d="M193.324 182.213H192.692C192.561 182.203 192.437 182.145 192.345 182.051C192.252 181.956 192.198 181.831 192.191 181.699L188.309 154.666H191.259L193.837 181.522C193.851 181.602 193.849 181.683 193.83 181.762C193.812 181.84 193.778 181.914 193.73 181.979C193.682 182.043 193.621 182.097 193.551 182.138C193.481 182.178 193.404 182.203 193.324 182.213Z" fill="black"/>
<path d="M148.224 182.213H148.855C148.987 182.203 149.11 182.145 149.203 182.051C149.295 181.956 149.35 181.831 149.357 181.699L153.239 154.666H150.289L147.716 181.522C147.702 181.601 147.704 181.682 147.722 181.76C147.74 181.838 147.774 181.912 147.822 181.977C147.869 182.041 147.929 182.095 147.998 182.136C148.068 182.177 148.144 182.203 148.224 182.213Z" fill="#0660E8"/>
<path opacity="0.3" d="M148.224 182.213H148.855C148.987 182.203 149.11 182.145 149.203 182.051C149.295 181.956 149.35 181.831 149.357 181.699L153.239 154.666H150.289L147.716 181.522C147.702 181.601 147.704 181.682 147.722 181.76C147.74 181.838 147.774 181.912 147.822 181.977C147.869 182.041 147.929 182.095 147.998 182.136C148.068 182.177 148.144 182.203 148.224 182.213Z" fill="black"/>
<path d="M140.13 182.213H140.761C140.893 182.203 141.017 182.145 141.109 182.051C141.201 181.956 141.256 181.831 141.263 181.699L145.145 154.666H142.195L139.623 181.522C139.608 181.601 139.61 181.682 139.629 181.76C139.647 181.838 139.68 181.912 139.728 181.977C139.775 182.041 139.836 182.095 139.905 182.136C139.974 182.177 140.051 182.203 140.13 182.213Z" fill="#0660E8"/>
<path opacity="0.3" d="M140.13 182.213H140.761C140.893 182.203 141.017 182.145 141.109 182.051C141.201 181.956 141.256 181.831 141.263 181.699L145.145 154.666H142.195L139.623 181.522C139.608 181.601 139.61 181.682 139.629 181.76C139.647 181.838 139.68 181.912 139.728 181.977C139.775 182.041 139.836 182.095 139.905 182.136C139.974 182.177 140.051 182.203 140.13 182.213Z" fill="black"/>
<path d="M129.639 122.611H149.511C153.051 110.368 165.724 100.71 178.716 100.71H185.17C198.74 100.71 207.543 111.289 204.77 124.345C204.252 126.747 203.4 129.065 202.239 131.231L199.106 150.223C198.705 152.677 196.746 154.665 194.74 154.665H134.926C132.92 154.665 130.961 152.677 130.56 150.223L126.737 127.03C126.329 124.599 127.633 122.611 129.639 122.611Z" fill="#0660E8"/>
<path opacity="0.5" d="M129.639 122.611H149.511C153.051 110.368 165.724 100.71 178.716 100.71H185.17C198.74 100.71 207.543 111.289 204.77 124.345C204.252 126.747 203.4 129.065 202.239 131.231L199.106 150.223C198.705 152.677 196.746 154.665 194.74 154.665H134.926C132.92 154.665 130.961 152.677 130.56 150.223L126.737 127.03C126.329 124.599 127.633 122.611 129.639 122.611Z" fill="white"/>
<path d="M124.666 175.221L129.586 177.475C129.67 177.51 129.737 177.577 129.772 177.661C129.807 177.744 129.808 177.839 129.775 177.923L128.223 181.929C128.131 182.134 127.961 182.294 127.751 182.373C127.541 182.453 127.307 182.446 127.102 182.354C125.403 181.54 124.63 181.062 122.465 180.071C120.176 178.94 117.965 177.659 115.845 176.236C114.24 175.056 115.42 173.463 116.217 173.817C119.816 175.404 122.117 175.546 123.787 175.144C124.08 175.068 124.39 175.095 124.666 175.221Z" fill="#263238"/>
<path d="M159.563 114.894C159.563 114.894 128.099 115.283 127.609 127.685C126.913 145.515 124.281 175.115 124.281 175.115L129.591 177.475C129.591 177.475 138.89 147.774 139.22 133.85C148.07 131.655 170.826 133.85 173.499 126.617C174.809 122.855 175.156 118.824 174.508 114.894H159.563Z" fill="#0660E8"/>
<path opacity="0.2" d="M159.563 114.894C159.563 114.894 128.099 115.283 127.609 127.685C126.913 145.515 124.281 175.115 124.281 175.115L129.591 177.475C129.591 177.475 138.89 147.774 139.22 133.85C148.07 131.655 170.826 133.85 173.499 126.617C174.809 122.855 175.156 118.824 174.508 114.894H159.563Z" fill="black"/>
<path d="M166.261 82.2607C165.984 83.4053 165.706 84.4378 165.394 85.5116C165.081 86.5854 164.756 87.6297 164.414 88.6799C163.724 90.7803 162.963 92.8689 162.09 94.9339C161.215 97.0449 160.2 99.0948 159.051 101.07C158.448 102.114 157.782 103.121 157.057 104.085C156.258 105.152 155.337 106.122 154.313 106.976L154.225 107.053L154.036 107.194C153.44 107.583 152.761 107.826 152.054 107.902C151.609 107.956 151.159 107.956 150.714 107.902C150.096 107.826 149.488 107.68 148.903 107.466C147.996 107.138 147.114 106.744 146.266 106.286C144.752 105.443 143.288 104.514 141.882 103.501C140.513 102.515 139.192 101.495 137.905 100.433C136.619 99.3707 135.386 98.2851 134.165 97.1169C133.852 96.8127 133.659 96.4052 133.623 95.97C133.587 95.5348 133.71 95.1014 133.97 94.75C134.229 94.3985 134.607 94.153 135.033 94.0588C135.46 93.9646 135.906 94.0282 136.289 94.2377H136.318C137.711 95.0106 139.115 95.8307 140.525 96.5977C141.935 97.3647 143.328 98.1376 144.726 98.8574C146.124 99.5772 147.528 100.262 148.856 100.816C149.465 101.076 150.094 101.285 150.738 101.442C150.929 101.499 151.128 101.525 151.328 101.518C151.369 101.518 151.328 101.518 151.204 101.518C150.903 101.553 150.616 101.66 150.366 101.831L150.083 102.043C150.664 101.478 151.177 100.846 151.611 100.161C152.129 99.3836 152.604 98.578 153.033 97.7482C153.938 95.9673 154.747 94.1397 155.458 92.273C156.184 90.3732 156.862 88.4262 157.493 86.4556C158.125 84.485 158.715 82.4613 159.263 80.5556V80.4848C159.514 79.5699 160.114 78.7903 160.935 78.3145C161.756 77.8387 162.73 77.7049 163.649 77.9421C164.567 78.1793 165.356 78.7683 165.843 79.5819C166.331 80.3956 166.479 81.3684 166.255 82.2902L166.261 82.2607Z" fill="#263238"/>
<path d="M153.505 177.77H159.405C159.454 177.768 159.504 177.775 159.55 177.792C159.596 177.809 159.639 177.835 159.675 177.868C159.711 177.902 159.741 177.942 159.761 177.987C159.782 178.032 159.793 178.081 159.794 178.13L160.084 182.797C160.084 183.043 159.987 183.278 159.815 183.454C159.643 183.629 159.409 183.73 159.163 183.735C157.11 183.699 156.125 183.576 153.529 183.576C151.936 183.576 148.714 183.741 146.508 183.741C144.301 183.741 144.366 181.564 145.298 181.381C149.493 180.496 151.116 179.274 152.596 178.106C152.855 177.898 153.174 177.78 153.505 177.77Z" fill="#263238"/>
<path d="M168.042 114.894C168.042 114.894 139.504 117.301 140.206 129.697C140.973 143.267 153.505 177.782 153.505 177.782H159.275C159.275 177.782 154.337 146.175 152.596 132.352C160.644 132.352 179.299 133.862 181.978 126.611C183.288 122.849 183.633 118.818 182.981 114.888L168.042 114.894Z" fill="#0660E8"/>
<path d="M136.731 94.8158C136.285 94.0907 135.746 93.4281 135.126 92.8452C133.946 93.9426 133.303 97.1345 133.303 97.1345L134.913 97.2761C134.913 97.2761 136.766 96.6743 136.731 94.8158Z" fill="#0660E8"/>
<path d="M130.809 91.9486L128.974 91.1521C128.735 91.049 128.468 91.0359 128.22 91.1151C127.973 91.1943 127.763 91.3604 127.628 91.5828L126.755 93.0224C126.635 93.2251 126.584 93.4618 126.61 93.6962C126.637 93.9306 126.74 94.1498 126.903 94.3204L129.422 96.9459L133.623 96.7748C133.86 96.7667 134.091 96.6951 134.291 96.5675C134.492 96.4399 134.654 96.2608 134.762 96.0491L135.245 95.0992C135.398 94.8132 135.439 94.4812 135.362 94.1665C135.285 93.8519 135.094 93.5768 134.826 93.3941C133.464 92.4973 130.809 91.9486 130.809 91.9486Z" fill="#FFC3BD"/>
<path d="M159.293 81.0512C158.455 86.3612 157.363 97.8249 159.588 115.112L182.981 114.894C182.84 102.911 184.716 91.6653 186.551 80.6736C186.624 80.242 186.609 79.8002 186.508 79.3743C186.407 78.9485 186.221 78.5473 185.962 78.1946C185.702 77.8419 185.375 77.5448 184.999 77.321C184.623 77.0972 184.206 76.9512 183.772 76.8917C177.063 76.1071 170.285 76.1071 163.576 76.8917C162.512 77.0371 161.522 77.5192 160.751 78.2677C159.98 79.0161 159.469 79.9915 159.293 81.0512Z" fill="#263238"/>
<path d="M186.763 79.181C187.453 80.8861 188.002 82.5204 188.568 84.2078C189.135 85.8952 189.619 87.5885 190.085 89.3054C190.551 91.0223 190.958 92.7746 191.265 94.5623C191.622 96.3877 191.86 98.2343 191.979 100.091C192.014 100.568 192.02 101.064 192.026 101.56V102.315C192.017 103.09 191.814 103.851 191.436 104.527C191.184 104.967 190.851 105.355 190.456 105.672C190.272 105.82 190.075 105.95 189.866 106.061C189.678 106.165 189.48 106.252 189.276 106.321C188.721 106.527 188.134 106.631 187.542 106.628C186.842 106.612 186.148 106.503 185.477 106.303C184.495 106.008 183.54 105.631 182.621 105.176C181.766 104.752 180.963 104.309 180.179 103.849C177.128 102.027 174.233 99.9573 171.523 97.6598C171.182 97.3801 170.956 96.9851 170.887 96.5496C170.818 96.1141 170.912 95.6685 171.15 95.2974C171.388 94.9262 171.754 94.6554 172.178 94.5362C172.603 94.417 173.056 94.4578 173.453 94.6508H173.494C176.544 96.1022 179.648 97.6008 182.668 98.8457C183.424 99.1525 184.173 99.4357 184.91 99.6894C185.564 99.9296 186.237 100.113 186.922 100.238C187.194 100.285 187.436 100.279 187.406 100.238C187.246 100.223 187.085 100.252 186.94 100.321C186.847 100.356 186.756 100.398 186.669 100.445C186.556 100.505 186.449 100.576 186.35 100.657C186.116 100.839 185.917 101.061 185.76 101.312C185.583 101.606 185.478 101.937 185.453 102.279L185.424 101.743C185.388 101.377 185.359 101.017 185.306 100.639C184.814 97.4405 184.076 94.2845 183.099 91.1993C182.155 88.031 181.069 84.7978 179.966 81.7239V81.6944C179.661 80.8084 179.713 79.8385 180.11 78.9897C180.507 78.141 181.218 77.4798 182.094 77.1458C182.969 76.8119 183.94 76.8313 184.801 77.2001C185.663 77.5688 186.347 78.258 186.71 79.122L186.763 79.181Z" fill="#263238"/>
<path d="M177.411 65.0269L174.585 67.3869L170.726 70.5906C170.845 71.1013 170.928 71.6198 170.974 72.1423C171.157 74.0067 170.75 75.7177 168.49 76.585C168.061 76.7256 167.669 76.9632 167.346 77.2793C167.022 77.5954 166.776 77.9816 166.626 78.4081C166.319 79.3934 166.679 80.4967 169.782 80.4967C174.343 80.4967 176.721 78.4671 177.618 77.47C177.738 77.3315 177.808 77.1561 177.815 76.9727C177.823 76.7894 177.768 76.6089 177.659 76.4611C175.859 73.8886 176.674 68.2247 177.411 65.0269Z" fill="#FFC3BD"/>
<path d="M169.67 79.4819C169.869 79.7111 170.005 79.9874 170.066 80.2843C170.3 79.967 170.59 79.6951 170.921 79.4819C171.314 79.6664 171.662 79.9322 171.944 80.2618C172.226 80.5914 172.434 80.9772 172.556 81.3935C171.696 81.2174 170.868 80.911 170.101 80.4849C169.595 80.7653 169.037 80.9381 168.461 80.9923C168.496 79.9716 169.67 79.4819 169.67 79.4819Z" fill="#0660E8"/>
<path d="M170.922 79.4818C171.741 80.468 172.281 81.6558 172.485 82.9215C172.485 82.9215 180.037 81.0335 179.683 76.107C179.02 75.7935 178.314 75.5769 177.589 75.4639C177.589 75.4639 175.966 78.4139 170.922 79.4818Z" fill="#0660E8"/>
<path d="M169.67 79.4819C168.844 80.476 168.273 81.6567 168.006 82.9216C168.006 82.9216 164.136 79.3816 167.906 76.1484C168.557 75.9414 169.227 75.8011 169.906 75.7295C169.906 75.7295 167.398 77.765 169.67 79.4819Z" fill="#0660E8"/>
<path opacity="0.2" d="M170.727 70.5728C170.845 71.0856 170.928 71.6061 170.974 72.1304C172.414 71.8413 174.331 70.3132 174.514 68.8441C174.585 68.3578 174.603 67.8652 174.567 67.375L170.727 70.5728Z" fill="black"/>
<path d="M166.598 54.8669C163.058 57.3862 165.028 63.2921 168.061 61.0324C171.093 58.7727 169.489 52.8137 166.598 54.8669Z" fill="#263238"/>
<path d="M178.58 60.1298C177.594 64.6492 177.252 67.3396 174.58 69.4046C173.719 70.0845 172.688 70.5161 171.6 70.6528C170.511 70.7896 169.406 70.6261 168.404 70.1803C167.401 69.7344 166.54 69.023 165.913 68.123C165.285 67.223 164.916 66.1687 164.845 65.074C164.491 60.8614 166.16 54.1708 170.916 52.8905C171.939 52.5853 173.025 52.5548 174.065 52.8021C175.104 53.0494 176.06 53.5657 176.836 54.2992C177.613 55.0327 178.183 55.9576 178.489 56.981C178.795 58.0044 178.826 59.0904 178.58 60.1298Z" fill="#FFC3BD"/>
<path d="M176.486 56.7727C173.978 56.0824 167.512 57.7285 165.217 55.28C162.756 52.6545 166.343 51.3742 167.405 52.2887C166.066 50.7547 166.562 49.1145 168.462 49.262C169.848 49.3682 170.285 50.9022 170.285 50.9022C170.285 50.9022 170.055 48.2177 172.438 48.4065C174.598 48.5717 174.603 51.4863 174.603 51.4863C174.603 51.4863 179.76 50.029 181.483 54.9496C184.728 54.8788 184.657 61.711 178.126 64.1418C175.477 62.832 175.353 58.171 176.486 56.7727Z" fill="#263238"/>
<path d="M180.786 55.9349C180.616 55.9452 180.449 55.8889 180.32 55.7779C180.191 55.6669 180.11 55.5099 180.094 55.3402C180.079 55.1706 180.13 55.0016 180.238 54.8692C180.345 54.7368 180.499 54.6513 180.668 54.631C180.846 54.5188 180.981 54.3506 181.052 54.1531C181.147 53.9643 181.202 53.7579 181.215 53.5468C181.227 53.3357 181.195 53.1244 181.123 52.9259C181.073 52.847 181.041 52.7585 181.029 52.6662C181.016 52.5739 181.023 52.48 181.05 52.3907C181.076 52.3015 181.122 52.2189 181.183 52.1486C181.244 52.0782 181.319 52.0217 181.404 51.9828C181.488 51.9439 181.58 51.9234 181.673 51.9229C181.767 51.9223 181.859 51.9416 181.944 51.9795C182.029 52.0174 182.105 52.073 182.167 52.1426C182.229 52.2122 182.275 52.2942 182.303 52.3831C182.463 52.778 182.534 53.2037 182.509 53.6292C182.485 54.0547 182.366 54.4695 182.161 54.8434C182.046 55.1079 181.871 55.3426 181.652 55.5297C181.432 55.7168 181.172 55.8513 180.893 55.9231C180.858 55.932 180.822 55.9359 180.786 55.9349Z" fill="#263238"/>
<path d="M179.317 64.3247C178.704 65.1213 177.82 65.6668 176.833 65.8587C175.553 66.0888 175.164 64.9088 175.73 63.7701C176.237 62.7376 177.5 61.3806 178.68 61.6756C179.86 61.9706 180.072 63.3099 179.317 64.3247Z" fill="#FFC3BD"/>
<path d="M170.833 60.5428C170.774 60.9145 170.532 61.1918 170.29 61.1623C170.048 61.1328 169.895 60.8083 169.948 60.4366C170.001 60.0649 170.249 59.7876 170.497 59.8466C170.745 59.9056 170.886 60.1711 170.833 60.5428Z" fill="#263238"/>
<path d="M166.62 60.0413C166.561 60.413 166.319 60.6903 166.077 60.6313C165.835 60.5723 165.682 60.2773 165.735 59.9056C165.788 59.5339 166.036 59.2566 166.284 59.2861C166.532 59.3156 166.679 59.6696 166.62 60.0413Z" fill="#263238"/>
<path d="M167.907 60.1887C167.437 61.1466 166.842 62.0375 166.137 62.8378C166.346 63.0048 166.589 63.1236 166.849 63.1858C167.109 63.2481 167.379 63.2521 167.641 63.1977L167.907 60.1887Z" fill="#ED847E"/>
<path d="M169.369 65.1094C169.808 65.1152 170.243 65.0325 170.648 64.8663C171.054 64.7 171.421 64.4536 171.729 64.1418C171.744 64.1194 171.75 64.0925 171.746 64.066C171.743 64.0396 171.73 64.0153 171.71 63.9975C171.69 63.9797 171.664 63.9696 171.638 63.969C171.611 63.9684 171.585 63.9774 171.564 63.9943C171.228 64.3272 170.819 64.5785 170.37 64.7289C169.921 64.8792 169.443 64.9247 168.974 64.8616C168.946 64.8596 168.917 64.8681 168.894 64.8855C168.872 64.9028 168.856 64.9279 168.85 64.956C168.849 64.9708 168.85 64.9857 168.854 64.9999C168.858 65.0141 168.865 65.0274 168.875 65.0389C168.884 65.0504 168.895 65.06 168.908 65.067C168.922 65.0741 168.936 65.0785 168.951 65.0799C169.09 65.0977 169.229 65.1075 169.369 65.1094Z" fill="#263238"/>
<path d="M172.526 58.401C172.561 58.3937 172.594 58.3775 172.62 58.3538C172.641 58.3335 172.658 58.3092 172.669 58.2823C172.68 58.2555 172.686 58.2266 172.686 58.1975C172.686 58.1683 172.68 58.1395 172.669 58.1126C172.658 58.0858 172.641 58.0615 172.62 58.0411C172.396 57.7767 172.111 57.5716 171.789 57.444C171.467 57.3163 171.118 57.2702 170.774 57.3095C170.745 57.3142 170.718 57.3244 170.693 57.3397C170.668 57.355 170.647 57.3749 170.63 57.3985C170.613 57.4221 170.6 57.4487 170.594 57.477C170.587 57.5053 170.586 57.5346 170.591 57.5632C170.595 57.5919 170.606 57.6194 170.621 57.6441C170.636 57.6688 170.656 57.6902 170.68 57.7072C170.703 57.7242 170.73 57.7364 170.758 57.7431C170.786 57.7497 170.816 57.7508 170.844 57.7461C171.116 57.7198 171.39 57.7597 171.643 57.8625C171.896 57.9652 172.12 58.1278 172.296 58.3361C172.324 58.3682 172.36 58.3914 172.401 58.4029C172.442 58.4144 172.485 58.4138 172.526 58.401Z" fill="#263238"/>
<path d="M165.117 58.1591C165.151 58.1686 165.187 58.1698 165.222 58.1627C165.257 58.1555 165.29 58.1401 165.317 58.1178C165.529 57.9295 165.781 57.793 166.055 57.7193C166.328 57.6456 166.615 57.6365 166.893 57.693C166.949 57.7076 167.009 57.6998 167.059 57.6712C167.11 57.6425 167.148 57.5953 167.164 57.5396C167.172 57.5117 167.175 57.4825 167.171 57.4536C167.168 57.4248 167.159 57.3969 167.144 57.3716C167.13 57.3464 167.111 57.3242 167.088 57.3064C167.065 57.2887 167.039 57.2757 167.011 57.2682C166.665 57.1935 166.307 57.2011 165.964 57.2903C165.622 57.3794 165.305 57.5477 165.04 57.7815C164.996 57.8183 164.967 57.8713 164.962 57.9288C164.956 57.9863 164.974 58.0436 165.011 58.0883C165.038 58.1222 165.075 58.1469 165.117 58.1591Z" fill="#263238"/>
<path d="M172.798 91.5944L170.214 89.9896C170.03 89.8747 169.825 89.7976 169.611 89.7627C169.397 89.7279 169.178 89.7359 168.967 89.7864C168.756 89.837 168.558 89.9289 168.383 90.057C168.208 90.1851 168.06 90.3467 167.948 90.5324L167.647 91.0398C167.467 91.3355 167.386 91.6808 167.416 92.0256C167.446 92.3703 167.585 92.6967 167.812 92.9573L169.582 95.0046C169.582 95.0046 171.134 98.6213 172.934 97.6655L174.302 95.3055L172.798 91.5944Z" fill="#FFC3BD"/>
<path d="M175.459 96.2202C175.105 95.3637 174.646 94.555 174.09 93.813C172.792 94.9222 171.73 98.4622 171.73 98.4622L173.318 98.8044C173.895 98.6423 174.409 98.3082 174.792 97.8466C175.174 97.3849 175.407 96.8175 175.459 96.2202Z" fill="#0660E8"/>
<path d="M195.229 122.611H164.597C162.591 122.611 161.293 124.599 161.694 127.054L165.517 150.223C165.924 152.677 167.877 154.666 169.889 154.666H191.436L195.229 122.611Z" fill="#0660E8"/>
<path opacity="0.5" d="M195.229 122.611H164.597C162.591 122.611 161.293 124.599 161.694 127.054L165.517 150.223C165.924 152.677 167.877 154.666 169.889 154.666H191.436L195.229 122.611Z" fill="white"/>
<path d="M53.8945 184.201H54.7795C54.936 184.201 55.0861 184.139 55.1967 184.028C55.3074 183.918 55.3695 183.767 55.3695 183.611L60.2193 110.51H56.5672L53.3222 183.528C53.3105 183.611 53.3165 183.695 53.3397 183.775C53.363 183.856 53.403 183.93 53.4571 183.993C53.5111 184.057 53.5781 184.108 53.6535 184.144C53.7289 184.18 53.8111 184.199 53.8945 184.201Z" fill="#0660E8"/>
<path opacity="0.3" d="M53.8945 184.201H54.7795C54.936 184.201 55.0861 184.139 55.1967 184.028C55.3074 183.918 55.3695 183.767 55.3695 183.611L60.2193 110.51H56.5672L53.3222 183.528C53.3105 183.611 53.3165 183.695 53.3397 183.775C53.363 183.856 53.403 183.93 53.4571 183.993C53.5111 184.057 53.5781 184.108 53.6535 184.144C53.7289 184.18 53.8111 184.199 53.8945 184.201Z" fill="white"/>
<path d="M43.8652 184.201H44.7502C44.9067 184.201 45.0568 184.139 45.1674 184.028C45.2781 183.918 45.3402 183.767 45.3402 183.611L50.19 110.51H46.532L43.2929 183.528C43.2812 183.611 43.2872 183.695 43.3104 183.775C43.3337 183.856 43.3737 183.93 43.4278 183.993C43.4819 184.057 43.5488 184.108 43.6242 184.144C43.6996 184.18 43.7818 184.199 43.8652 184.201Z" fill="#0660E8"/>
<path opacity="0.3" d="M43.8652 184.201H44.7502C44.9067 184.201 45.0568 184.139 45.1674 184.028C45.2781 183.918 45.3402 183.767 45.3402 183.611L50.19 110.51H46.532L43.2929 183.528C43.2812 183.611 43.2872 183.695 43.3104 183.775C43.3337 183.856 43.3737 183.93 43.4278 183.993C43.4819 184.057 43.5488 184.108 43.6242 184.144C43.6996 184.18 43.7818 184.199 43.8652 184.201Z" fill="white"/>
<path d="M167.557 184.201H166.672C166.516 184.201 166.366 184.139 166.255 184.028C166.144 183.918 166.082 183.767 166.082 183.611L161.232 110.51H164.885L168.13 183.528C168.141 183.611 168.135 183.695 168.112 183.775C168.089 183.856 168.049 183.93 167.995 183.993C167.941 184.057 167.874 184.108 167.798 184.144C167.723 184.18 167.641 184.199 167.557 184.201Z" fill="#0660E8"/>
<path opacity="0.3" d="M167.557 184.201H166.672C166.516 184.201 166.366 184.139 166.255 184.028C166.144 183.918 166.082 183.767 166.082 183.611L161.232 110.51H164.885L168.13 183.528C168.141 183.611 168.135 183.695 168.112 183.775C168.089 183.856 168.049 183.93 167.995 183.993C167.941 184.057 167.874 184.108 167.798 184.144C167.723 184.18 167.641 184.199 167.557 184.201Z" fill="white"/>
<path d="M177.588 184.201H176.703C176.547 184.201 176.397 184.139 176.286 184.028C176.176 183.918 176.113 183.767 176.113 183.611L171.264 110.51H174.922L178.161 183.528C178.172 183.611 178.167 183.695 178.143 183.775C178.12 183.856 178.08 183.93 178.026 183.993C177.972 184.057 177.905 184.108 177.829 184.144C177.754 184.18 177.672 184.199 177.588 184.201Z" fill="#0660E8"/>
<path opacity="0.3" d="M177.588 184.201H176.703C176.547 184.201 176.397 184.139 176.286 184.028C176.176 183.918 176.113 183.767 176.113 183.611L171.264 110.51H174.922L178.161 183.528C178.172 183.611 178.167 183.695 178.143 183.775C178.12 183.856 178.08 183.93 178.026 183.993C177.972 184.057 177.905 184.108 177.829 184.144C177.754 184.18 177.672 184.199 177.588 184.201Z" fill="white"/>
<path d="M181.806 109.023H39.4395V110.528H181.806V109.023Z" fill="#0660E8"/>
<path d="M37.0696 85.7299L35.7244 95.6242C35.2996 98.9164 34.8571 102.22 34.5444 105.465C34.5031 105.872 34.4736 106.268 34.4382 106.645L34.391 107.235C34.4008 107.137 34.4008 107.038 34.391 106.94C34.3798 106.846 34.358 106.753 34.3261 106.663C34.302 106.592 34.2724 106.523 34.2376 106.457C34.2141 106.409 34.1864 106.364 34.155 106.321C34.0488 106.185 34.037 106.203 34.0665 106.232C34.1267 106.297 34.194 106.354 34.2671 106.403C34.5154 106.574 34.7756 106.725 35.0459 106.858C36.4501 107.5 37.8995 108.038 39.3824 108.468C42.474 109.407 45.7249 110.238 48.9345 111.011L48.5687 113.826C45.1374 113.723 41.7181 113.37 38.3381 112.77C36.5472 112.468 34.7876 112.004 33.0812 111.383C32.5798 111.19 32.0928 110.961 31.6239 110.699C31.3344 110.534 31.0582 110.346 30.7979 110.138C30.4369 109.852 30.1208 109.514 29.8598 109.135C29.6719 108.855 29.5212 108.552 29.4114 108.232C29.3511 108.039 29.3038 107.842 29.2698 107.642C29.2481 107.447 29.2363 107.25 29.2344 107.052V106.398C29.2344 105.961 29.2344 105.524 29.2698 105.094C29.4114 101.648 29.7241 98.2851 30.0899 94.9221C30.4557 91.5591 30.8805 88.2256 31.4056 84.8921L37.0696 85.7299Z" fill="#7F3E3B"/>
<path d="M56.3318 114.05L54.1665 116.027C53.9189 116.252 53.6098 116.398 53.2787 116.446C52.9476 116.494 52.6097 116.443 52.308 116.298L49.9185 115.147C49.9185 115.147 46.3785 115 45.8652 112.835L46.7856 111.153L52.2785 110.563C52.8423 110.503 53.4103 110.629 53.8951 110.923L56.1607 112.31C56.3032 112.4 56.4232 112.521 56.5116 112.665C56.6 112.808 56.6545 112.97 56.671 113.138C56.6875 113.306 56.6656 113.475 56.6068 113.633C56.548 113.791 56.454 113.934 56.3318 114.05Z" fill="#7F3E3B"/>
<path d="M43.3768 65.4102C43.9668 68.8086 44.4152 75.0095 41.9844 77.2102C41.9844 77.2102 47.8844 80.3136 51.7961 85.7298C55.9261 82.4376 52.4746 77.5229 52.4746 77.5229C48.734 76.514 48.9346 73.7233 49.6485 71.1214L43.3768 65.4102Z" fill="#7F3E3B"/>
<path d="M54.4615 79.588C54.4615 79.588 54.1488 76.7088 52.5794 75.2869C51.2637 74.1069 44.3194 74.7559 42.1541 74.9978C41.953 75.0219 41.7612 75.0961 41.5963 75.2136C41.4314 75.3312 41.2986 75.4882 41.2101 75.6704L39.6289 78.9744L54.4615 79.588Z" fill="#0660E8"/>
<path opacity="0.8" d="M54.4615 79.588C54.4615 79.588 54.1488 76.7088 52.5794 75.2869C51.2637 74.1069 44.3194 74.7559 42.1541 74.9978C41.953 75.0219 41.7612 75.0961 41.5963 75.2136C41.4314 75.3312 41.2986 75.4882 41.2101 75.6704L39.6289 78.9744L54.4615 79.588Z" fill="white"/>
<path d="M35.2821 78.0598C31.0105 79.4522 30.0901 85.1811 30.4795 89.6356L39.0994 94.9456C39.0994 94.9456 41.1939 88.4556 41.1762 84.9628C41.1585 81.2694 38.1849 77.1276 35.2821 78.0598Z" fill="#0660E8"/>
<path d="M36.9513 93.6535C36.8427 93.6559 36.7346 93.6368 36.6334 93.5973C36.5321 93.5578 36.4397 93.4987 36.3613 93.4234C36.3262 93.3851 36.2946 93.3436 36.2669 93.2995C36.2345 93.2564 36.2086 93.2087 36.1902 93.1579C36.171 93.1099 36.1552 93.0607 36.143 93.0104C36.1372 92.9595 36.1372 92.908 36.143 92.857C36.1405 92.7478 36.16 92.6393 36.2006 92.5379C36.2412 92.4364 36.3019 92.3443 36.379 92.267C36.5323 92.1226 36.7349 92.0422 36.9454 92.0422C37.156 92.0422 37.3586 92.1226 37.5118 92.267C37.589 92.3443 37.6497 92.4364 37.6902 92.5379C37.7308 92.6393 37.7504 92.7478 37.7478 92.857C37.7536 92.908 37.7536 92.9595 37.7478 93.0104C37.7386 93.0614 37.7228 93.111 37.7006 93.1579C37.6842 93.2084 37.6604 93.2561 37.6298 93.2995L37.5295 93.4234C37.4533 93.4984 37.3629 93.5573 37.2636 93.5968C37.1643 93.6363 37.0582 93.6556 36.9513 93.6535Z" fill="white"/>
<path d="M35.2938 93.1108C35.1471 93.0543 35.0203 92.9559 34.929 92.828C34.8378 92.7 34.7861 92.5481 34.7805 92.391C34.6648 92.4958 34.5208 92.5641 34.3665 92.5872C34.2121 92.6103 34.0544 92.5872 33.9132 92.5208C33.7721 92.4549 33.6531 92.3497 33.5705 92.2178C33.4878 92.086 33.4449 91.933 33.4471 91.7774C33.3257 91.8756 33.1777 91.9354 33.0222 91.949C32.8666 91.9627 32.7105 91.9297 32.5739 91.8541C32.4369 91.781 32.3242 91.6694 32.2498 91.5332C32.1754 91.3969 32.1424 91.2419 32.155 91.0871C32.0272 91.1771 31.876 91.2278 31.7198 91.233C31.5636 91.2383 31.4093 91.1978 31.2759 91.1166C31.095 91.0065 30.9649 90.8294 30.9141 90.6238C30.8633 90.4182 30.8957 90.2009 31.0045 90.0192C31.1157 89.8379 31.2938 89.7077 31.5004 89.6569C31.7069 89.6061 31.9251 89.6388 32.1078 89.7478C32.233 89.8269 32.3346 89.9381 32.4021 90.0699C32.4696 90.2018 32.5004 90.3493 32.4913 90.4971C32.6118 90.4105 32.7544 90.3596 32.9025 90.3502C33.0507 90.3408 33.1985 90.3733 33.3291 90.444C33.4596 90.5144 33.5683 90.6193 33.6433 90.7473C33.7182 90.8753 33.7564 91.0214 33.7539 91.1697C33.8695 91.0773 34.0086 91.019 34.1556 91.0013C34.3025 90.9836 34.4515 91.0072 34.5858 91.0694C34.72 91.1312 34.8346 91.229 34.9169 91.3518C34.9991 91.4747 35.0458 91.6179 35.0519 91.7656C35.1632 91.6684 35.2989 91.6032 35.4444 91.5773C35.5899 91.5513 35.7398 91.5654 35.8779 91.6181C36.0746 91.6969 36.2321 91.8503 36.3161 92.0449C36.4001 92.2394 36.4038 92.4593 36.3263 92.6565C36.268 92.8062 36.1658 92.9347 36.0331 93.0253C35.9004 93.1158 35.7435 93.1642 35.5829 93.1639C35.4842 93.1628 35.3864 93.1448 35.2938 93.1108Z" fill="white"/>
<path d="M30.4785 90.4499C30.4256 90.4557 30.3722 90.4557 30.3192 90.4499C30.2682 90.4407 30.2186 90.4249 30.1717 90.4027C30.1212 90.3863 30.0735 90.3625 30.0301 90.3319L29.9121 90.2316C29.8739 90.1966 29.8402 90.157 29.8118 90.1136C29.8118 90.0664 29.7587 90.0192 29.7351 89.972C29.7167 89.9238 29.701 89.8745 29.6879 89.8245C29.685 89.7715 29.685 89.7183 29.6879 89.6652C29.6848 89.6141 29.6848 89.5629 29.6879 89.5118C29.7009 89.4599 29.7167 89.4087 29.7351 89.3584C29.7546 89.31 29.7804 89.2644 29.8118 89.2227C29.8416 89.1786 29.8752 89.1372 29.9121 89.0988L30.0301 88.9985C30.0748 88.9702 30.1223 88.9465 30.1717 88.9277L30.3192 88.8805C30.4479 88.8573 30.5803 88.865 30.7054 88.903C30.8305 88.9409 30.9449 89.0081 31.039 89.0988C31.0759 89.1372 31.1095 89.1786 31.1393 89.2227C31.1683 89.2659 31.194 89.3113 31.216 89.3584C31.2353 89.4079 31.2491 89.4594 31.2573 89.5118C31.2634 89.5628 31.2634 89.6143 31.2573 89.6652C31.2631 89.7182 31.2631 89.7716 31.2573 89.8245C31.2491 89.8751 31.2352 89.9245 31.216 89.972C31.216 90.0192 31.1688 90.0664 31.1393 90.1136C31.1109 90.157 31.0772 90.1966 31.039 90.2316C30.8872 90.3738 30.6865 90.452 30.4785 90.4499Z" fill="white"/>
<path d="M62.4447 86.3967C62.0848 91.3055 60.9933 99.5655 58.3147 113.478L35.2221 112.793C35.8121 104.268 34.9094 97.9135 32.8208 82.9924C32.7319 82.3468 32.7738 81.6899 32.9441 81.0609C33.1144 80.4318 33.4095 79.8435 33.812 79.3309C34.2144 78.8184 34.7159 78.3921 35.2866 78.0774C35.8573 77.7628 36.4855 77.5662 37.1337 77.4995C38.6146 77.3461 40.302 77.2222 41.9953 77.1868C45.4951 77.0418 49.0007 77.1462 52.4855 77.4995C53.6065 77.6352 54.7688 77.8181 55.878 78.0069C57.8202 78.3377 59.5693 79.3807 60.7836 80.9321C61.9979 82.4835 62.5901 84.4319 62.4447 86.3967Z" fill="#0660E8"/>
<path d="M55.323 59.18C55.3761 59.6343 55.6652 59.9765 55.9602 59.9352C56.2552 59.8939 56.4558 59.5045 56.4027 59.0502C56.3496 58.5959 56.0605 58.2537 55.7655 58.2891C55.4705 58.3245 55.2699 58.708 55.323 59.18Z" fill="#263238"/>
<path d="M55.6367 58.3185L56.6928 57.8701C56.6928 57.8701 56.2326 58.7905 55.6367 58.3185Z" fill="#263238"/>
<path d="M55.5 59.8701C56.0299 60.8605 56.6929 61.7737 57.4706 62.5841C57.2589 62.7788 57.007 62.9246 56.7328 63.0112C56.4585 63.0979 56.1686 63.1233 55.8835 63.0856L55.5 59.8701Z" fill="#630F0F"/>
<path d="M55.377 55.1738C55.4003 55.1323 55.4125 55.0856 55.4125 55.0381C55.4125 54.9905 55.4003 54.9438 55.377 54.9024C55.3453 54.8386 55.2898 54.7899 55.2224 54.7667C55.1551 54.7436 55.0814 54.7478 55.0171 54.7784C54.6258 54.9523 54.2821 55.2179 54.0151 55.5527C53.7481 55.8875 53.5656 56.2816 53.4831 56.7019C53.4782 56.7368 53.4802 56.7723 53.4891 56.8064C53.498 56.8405 53.5136 56.8726 53.5351 56.9006C53.5565 56.9286 53.5833 56.952 53.6139 56.9696C53.6444 56.9871 53.6782 56.9984 53.7132 57.0028C53.7481 57.0077 53.7837 57.0057 53.8178 56.9968C53.8519 56.9879 53.8839 56.9722 53.9119 56.9508C53.9399 56.9294 53.9634 56.9026 53.9809 56.872C53.9985 56.8414 54.0098 56.8076 54.0141 56.7727C54.0859 56.4415 54.2351 56.132 54.4494 55.8694C54.6637 55.6069 54.9371 55.3989 55.2472 55.2623C55.2997 55.2494 55.3458 55.2179 55.377 55.1738Z" fill="#263238"/>
<path d="M39.6059 59.0619C40.6207 64.6138 40.9334 66.9856 44.1017 69.5226C48.8689 73.334 55.471 70.8737 56.1377 65.1271C56.7277 59.9528 54.9577 51.74 49.2347 50.1706C47.9698 49.8189 46.6359 49.7961 45.3598 50.1046C44.0836 50.4131 42.9074 51.0426 41.9428 51.9333C40.9782 52.824 40.2572 53.9464 39.8482 55.194C39.4393 56.4416 39.3558 57.773 39.6059 59.0619Z" fill="#7F3E3B"/>
<path d="M51.8433 60.6195C52.7755 63.6698 55.0057 71.0448 50.0733 72.6909C46.2206 73.9771 34.1433 75.0037 32.7568 67.9296C31.3231 60.6195 37.8426 55.4098 37.8426 55.4098C37.8426 55.4098 32.6742 51.1736 35.9841 46.5598C40.2498 40.6126 50.4686 43.9756 53.4953 48.1764C56.4512 52.2651 51.8433 60.6195 51.8433 60.6195Z" fill="#263238"/>
<path d="M42.5198 73.7058C40.2945 73.7034 38.0907 73.2706 36.0298 72.4314C33.2922 71.2514 31.6933 69.4283 31.4042 67.1568C30.4366 59.4455 37.611 55.2093 37.6877 55.168L37.9709 55.6577C37.9001 55.699 31.0502 59.7523 31.9706 67.086C32.301 69.6879 34.484 71.1452 36.2599 71.9063C39.7645 73.4167 44.2898 73.4049 45.3872 72.6025L45.7235 73.0627C45.1689 73.4816 43.9653 73.7058 42.5198 73.7058Z" fill="#263238"/>
<path d="M35.6245 54.3065C35.5596 55.2918 34.7454 56.6665 38.1615 57.1562C41.5776 57.6459 46.333 57.6164 47.3124 56.7963C48.2918 55.9762 49.2476 54.0056 47.2062 54.1826C45.1648 54.3596 35.7366 52.6191 35.6245 54.3065Z" fill="#0660E8"/>
<path d="M49.9716 61.4868C50.5291 62.5175 51.4703 63.287 52.5912 63.6285C54.078 64.0651 54.845 62.7376 54.4497 61.3216C54.0898 60.0472 52.8803 58.2831 51.3817 58.466C49.8831 58.6489 49.3049 60.2183 49.9716 61.4868Z" fill="#7F3E3B"/>
<path d="M85.9675 178.1L91.4427 177.994L88.7936 164.33L83.3184 164.43L85.9675 178.1Z" fill="#7F3E3B"/>
<path d="M90.0754 172.147C91.5209 177.605 96.8486 183.357 96.8486 183.357L89.2494 181.422L85.9277 176.702L86.5177 175.451L90.0754 172.147Z" fill="#7F3E3B"/>
<path d="M84.6772 174.684C84.6618 175.324 84.6993 175.963 84.7893 176.596C85.1138 178.85 86.105 184.856 86.105 184.856H86.6242C86.3895 183.028 86.2496 181.188 86.2053 179.345C86.2761 177.864 87.2319 180.484 88.3883 181.971C89.5447 183.458 91.6274 184.809 94.9963 184.921C98.9375 185.045 100.513 184.88 99.2502 183.894C97.9876 182.909 95.2972 182.272 95.2972 182.272C93.1271 181.342 91.2798 179.793 89.9872 177.817C88.7121 176.042 87.0364 174.593 85.0961 173.587C84.7657 173.605 84.7008 174.23 84.6772 174.684Z" fill="#263238"/>
<path d="M105.361 159.533L112.347 159.751L104.529 148.128L99.6914 152.264L105.361 159.533Z" fill="#7F3E3B"/>
<path d="M107.02 154.601C112.099 156.961 120.23 156.5 120.23 156.5L113.622 161.81L107.952 161.386L107.362 160.129L107.02 154.601Z" fill="#7F3E3B"/>
<path d="M105.947 160.625C106.404 161.069 106.898 161.476 107.422 161.84C109.274 163.132 114.283 166.442 114.283 166.442L114.602 166.035C113.11 164.963 111.674 163.815 110.301 162.595C109.251 161.521 111.77 162.566 113.575 162.672C115.381 162.778 117.658 162.082 119.812 159.486C122.343 156.471 123.186 155.12 121.688 155.438C120.189 155.757 118.053 157.433 118.053 157.433C116.047 158.506 113.75 158.908 111.499 158.577C109.408 158.364 107.297 158.692 105.368 159.527C105.209 159.822 105.604 160.282 105.947 160.625Z" fill="#263238"/>
<path d="M50.2498 113.076C50.2498 113.076 87.6321 107.56 91.4907 117.13C98.2285 133.803 107.733 152.907 107.733 152.907L103.143 156.707C103.143 156.707 86.8415 141.615 81.0477 124.847C74.1211 127.089 52.0846 134.287 44.0134 134.287C35.3935 134.287 31.8713 126.941 34.9865 114.734C35.1229 114.211 35.4281 113.748 35.8549 113.416C36.2816 113.084 36.8059 112.903 37.3465 112.899C42.8158 112.952 50.2498 113.076 50.2498 113.076Z" fill="#263238"/>
<path d="M53.8304 117.944C53.8304 117.944 84.5104 117.024 84.7759 127.891C85.2007 145.869 90.2688 171.628 90.2688 171.628L84.6697 172.147C84.6697 172.147 75.5188 151.657 73.0998 134.11C62.173 134.818 52.0958 134.328 44.0246 134.328C34.9799 134.328 34.2306 124.399 43.0334 112.805C48.4201 112.793 53.8304 117.944 53.8304 117.944Z" fill="#263238"/>
<path d="M34.9039 111.424L34.2608 113.46C34.1723 113.619 34.3552 113.784 34.6266 113.796L58.3918 114.498C58.5983 114.498 58.7753 114.41 58.793 114.28L59.0644 112.221C59.0644 112.073 58.9051 111.949 58.675 111.944L35.2933 111.247C35.2185 111.239 35.1428 111.251 35.0743 111.282C35.0058 111.314 34.9469 111.363 34.9039 111.424Z" fill="white"/>
<path d="M37.9657 114.132H37.3403C37.2164 114.132 37.122 114.062 37.1338 113.985L37.5055 111.306C37.5055 111.23 37.6294 111.171 37.7533 111.171H38.3787C38.5026 111.171 38.597 111.241 38.5852 111.318L38.2135 113.991C38.2017 114.079 38.0896 114.138 37.9657 114.132Z" fill="#263238"/>
<path d="M56.6161 114.693H55.9907C55.8668 114.693 55.7724 114.622 55.7842 114.545L56.1618 111.867C56.1618 111.79 56.2798 111.731 56.4037 111.731H57.0291C57.1589 111.731 57.2474 111.802 57.2415 111.879L56.8639 114.557C56.8521 114.64 56.7459 114.693 56.6161 114.693Z" fill="#263238"/>
<path d="M47.2939 114.41H46.6685C46.5387 114.41 46.4502 114.339 46.462 114.262L46.8337 111.584C46.8337 111.507 46.9576 111.448 47.0815 111.448H47.7069C47.8308 111.448 47.9252 111.519 47.9134 111.595L47.5417 114.274C47.5299 114.357 47.4178 114.416 47.2939 114.41Z" fill="#263238"/>
<path d="M75.7556 88.4497H90.6767C90.7876 88.4501 90.8969 88.4762 90.9961 88.5258C91.0953 88.5754 91.1817 88.6473 91.2485 88.7359C91.3153 88.8244 91.3608 88.9272 91.3814 89.0362C91.4019 89.1452 91.397 89.2574 91.367 89.3642L85.7856 108.51C85.7431 108.658 85.6532 108.789 85.5297 108.881C85.4061 108.974 85.2556 109.024 85.1012 109.023H70.1742C70.0629 109.024 69.953 108.999 69.8532 108.95C69.7535 108.9 69.6668 108.828 69.6001 108.739C69.5335 108.65 69.4888 108.547 69.4696 108.437C69.4504 108.327 69.4573 108.215 69.4898 108.109L75.0653 88.963C75.1089 88.814 75.1999 88.6833 75.3244 88.5907C75.449 88.4981 75.6004 88.4486 75.7556 88.4497Z" fill="#0660E8"/>
<path d="M76.0277 89.1519L90.5358 89.4941L84.8069 107.554L70.2988 107.206L76.0277 89.1519Z" fill="#E0E0E0"/>
<path d="M75.5722 88.9749L90.0803 89.0339L84.7054 107.2L70.1973 107.141L75.5722 88.9749Z" fill="white"/>
<path d="M62.4866 89.3525C62.4866 89.9425 62.5751 90.6387 62.6223 91.2936C62.6695 91.9485 62.758 92.6329 62.8465 93.2996C63.0117 94.633 63.232 95.9468 63.5073 97.2408C63.772 98.5024 64.1229 99.7443 64.5575 100.958C64.7758 101.548 65.0177 102.138 65.2773 102.657C65.4071 102.928 65.5487 103.182 65.6903 103.442L65.9086 103.802C65.9086 103.802 65.8673 103.802 65.9086 103.802C66.1795 104.048 66.4991 104.235 66.8467 104.35C67.3991 104.565 67.9672 104.736 68.5459 104.864C69.8487 105.139 71.1667 105.336 72.493 105.454C75.2188 105.719 78.0685 105.849 80.8533 105.908L81.1365 108.734C78.2368 109.309 75.2944 109.643 72.3396 109.731C70.805 109.779 69.269 109.715 67.7435 109.542C66.9076 109.44 66.0811 109.272 65.2714 109.041C64.2362 108.767 63.2736 108.269 62.4512 107.584C62.1758 107.345 61.9266 107.078 61.7078 106.787L61.3302 106.256C61.0883 105.902 60.8523 105.548 60.6517 105.188C60.2312 104.486 59.8586 103.757 59.5366 103.005C58.9066 101.563 58.3975 100.071 58.0144 98.5447C57.6324 97.0609 57.3389 95.5557 57.1353 94.0371C57.035 93.2878 56.9583 92.5326 56.8934 91.7715C56.8285 91.0104 56.7872 90.2847 56.7754 89.4115L62.4866 89.3525Z" fill="#7F3E3B"/>
<path d="M60.5447 80.65C64.2617 84.1487 63.3649 93.2642 63.3649 93.2642L56.2495 94.5091C56.2495 94.5091 51.854 87.9719 53.3998 85.2343C55.0046 82.3787 58.5387 78.7561 60.5447 80.65Z" fill="#0660E8"/>
<path d="M63.3652 94.0665C63.2561 94.0684 63.1477 94.0485 63.0464 94.008C62.9451 93.9675 62.8529 93.9072 62.7752 93.8306C62.7372 93.7932 62.7036 93.7516 62.6749 93.7066C62.6478 93.6633 62.6241 93.618 62.6041 93.5709C62.5921 93.5146 62.5842 93.4574 62.5805 93.3998C62.5773 93.3488 62.5773 93.2975 62.5805 93.2464C62.5768 93.1376 62.5953 93.0292 62.6349 92.9278C62.6744 92.8263 62.7342 92.734 62.8106 92.6564C62.8492 92.6198 62.8906 92.5863 62.9345 92.5561C62.9765 92.5268 63.0221 92.503 63.0702 92.4854C63.1195 92.4643 63.1709 92.4484 63.2236 92.4381C63.3395 92.4156 63.4591 92.4189 63.5736 92.4478C63.6881 92.4767 63.7948 92.5306 63.8861 92.6056C63.9775 92.6805 64.0511 92.7747 64.1018 92.8814C64.1525 92.9881 64.179 93.1047 64.1794 93.2229C64.1855 93.2738 64.1855 93.3253 64.1794 93.3762C64.17 93.4291 64.1541 93.4806 64.1322 93.5296C64.1146 93.5778 64.0908 93.6234 64.0614 93.6654C64.0327 93.7103 63.9991 93.7519 63.9611 93.7892C63.8867 93.8746 63.7953 93.9434 63.6926 93.9912C63.5899 94.039 63.4784 94.0646 63.3652 94.0665Z" fill="white"/>
<path d="M56.8994 94.4915C56.8814 94.2795 56.9484 94.069 57.0856 93.9063C57.2228 93.7437 57.4189 93.6422 57.631 93.6242C57.7787 93.6105 57.9273 93.6386 58.0598 93.7054C58.1923 93.7721 58.3034 93.8749 58.3803 94.0018C58.4279 93.8613 58.5129 93.7365 58.6262 93.6408C58.7396 93.5452 58.8769 93.4823 59.0234 93.459C59.1706 93.4392 59.3205 93.46 59.4567 93.5193C59.593 93.5786 59.7104 93.674 59.7963 93.7953C59.8298 93.6517 59.9028 93.5204 60.0071 93.4161C60.1113 93.3118 60.2427 93.2388 60.3863 93.2053C60.5319 93.1748 60.6831 93.1857 60.8229 93.2368C60.9626 93.2879 61.0852 93.3772 61.1769 93.4944C61.2116 93.3514 61.2851 93.2207 61.3891 93.1167C61.4932 93.0126 61.6239 92.9392 61.7669 92.9044C61.8699 92.8771 61.9775 92.8709 62.083 92.8859C62.1886 92.901 62.29 92.9371 62.3814 92.9922C62.4727 93.0472 62.5521 93.12 62.6148 93.2063C62.6774 93.2925 62.7222 93.3905 62.7463 93.4944C62.7727 93.5974 62.7783 93.7047 62.7629 93.81C62.7474 93.9153 62.7112 94.0164 62.6563 94.1076C62.6014 94.1987 62.5289 94.278 62.4431 94.3409C62.3572 94.4038 62.2597 94.4489 62.1563 94.4738C62.0056 94.5125 61.847 94.5069 61.6994 94.4577C61.5519 94.4085 61.4216 94.3178 61.3244 94.1965C61.2911 94.3491 61.2144 94.4889 61.1034 94.5988C60.9924 94.7088 60.8519 94.7842 60.699 94.816C60.5459 94.8445 60.3878 94.8286 60.2435 94.77C60.0992 94.7115 59.9747 94.6127 59.8848 94.4856C59.8458 94.6375 59.7629 94.7745 59.6464 94.8794C59.5299 94.9844 59.385 95.0526 59.2299 95.0756C59.0753 95.0978 58.9177 95.0745 58.7762 95.0085C58.6347 94.9425 58.5156 94.8366 58.4334 94.7039C58.3828 94.8512 58.2908 94.9809 58.1683 95.0772C58.0459 95.1735 57.8982 95.2323 57.7431 95.2467H57.6782C57.4778 95.2398 57.2872 95.1587 57.1432 95.0191C56.9993 94.8796 56.9124 94.6915 56.8994 94.4915Z" fill="white"/>
<path d="M56.2502 95.3114C56.1973 95.3172 56.1439 95.3172 56.0909 95.3114L55.9434 95.2642C55.8945 95.2442 55.8472 95.2206 55.8018 95.1934L55.6838 95.0931C55.6441 95.0573 55.6103 95.0155 55.5835 94.9692C55.5545 94.9261 55.5289 94.8807 55.5068 94.8335C55.4876 94.784 55.4737 94.7326 55.4655 94.6801C55.4594 94.6292 55.4594 94.5777 55.4655 94.5267C55.4597 94.4738 55.4597 94.4204 55.4655 94.3674C55.4738 94.3169 55.4876 94.2674 55.5068 94.2199C55.5068 94.1727 55.554 94.1255 55.5835 94.0783C55.6119 94.035 55.6456 93.9954 55.6838 93.9603L55.8018 93.86C55.8459 93.8306 55.8935 93.8069 55.9434 93.7892C55.9903 93.7671 56.0399 93.7512 56.0909 93.742C56.2196 93.7158 56.3528 93.722 56.4784 93.7601C56.6041 93.7982 56.7183 93.867 56.8107 93.9603C56.8489 93.9954 56.8826 94.035 56.911 94.0783C56.9405 94.1255 56.9641 94.1727 56.9877 94.2199C57.0061 94.2682 57.0219 94.3175 57.0349 94.3674C57.0379 94.4205 57.0379 94.4737 57.0349 94.5267C57.0381 94.5778 57.0381 94.6291 57.0349 94.6801C57.0219 94.7321 57.0061 94.7833 56.9877 94.8335C56.9657 94.8807 56.9401 94.9261 56.911 94.9692C56.8827 95.0144 56.849 95.056 56.8107 95.0931C56.6589 95.2353 56.4582 95.3135 56.2502 95.3114Z" fill="white"/>
<path d="M87.4783 102.97L85.0121 102.805C84.398 102.761 83.7872 102.926 83.2775 103.271L78.7522 106.309L78.7168 108.227C80.1682 109.914 83.3778 108.404 83.3778 108.404L86.3573 108.303C86.5947 108.297 86.8248 108.22 87.0175 108.081C87.2101 107.942 87.3563 107.748 87.437 107.525L88.5167 104.575C88.5841 104.401 88.6093 104.213 88.5903 104.028C88.5712 103.842 88.5085 103.664 88.4071 103.507C88.3058 103.351 88.1688 103.22 88.0073 103.127C87.8459 103.033 87.6646 102.98 87.4783 102.97Z" fill="#7F3E3B"/>
<path d="M36.3784 186.862H37.0451C37.1834 186.848 37.3124 186.786 37.4095 186.687C37.5067 186.588 37.5657 186.457 37.5761 186.319L41.7061 157.739H38.585L35.8651 186.13C35.849 186.212 35.8497 186.296 35.867 186.378C35.8843 186.46 35.9179 186.537 35.9659 186.605C36.0138 186.674 36.0751 186.732 36.146 186.776C36.2169 186.82 36.2959 186.849 36.3784 186.862Z" fill="#0660E8"/>
<path opacity="0.3" d="M36.3784 186.862H37.0451C37.1834 186.848 37.3124 186.786 37.4095 186.687C37.5067 186.588 37.5657 186.457 37.5761 186.319L41.7061 157.739H38.585L35.8651 186.13C35.849 186.212 35.8497 186.296 35.867 186.378C35.8843 186.46 35.9179 186.537 35.9659 186.605C36.0138 186.674 36.0751 186.732 36.146 186.776C36.2169 186.82 36.2959 186.849 36.3784 186.862Z" fill="black"/>
<path d="M27.8237 186.862H28.4904C28.6287 186.848 28.7577 186.787 28.8549 186.687C28.952 186.588 29.011 186.458 29.0214 186.319L33.1514 157.74H30.0303L27.3104 186.13C27.2944 186.212 27.295 186.297 27.3123 186.378C27.3296 186.46 27.3633 186.537 27.4112 186.605C27.4591 186.674 27.5204 186.732 27.5913 186.776C27.6622 186.82 27.7412 186.849 27.8237 186.862Z" fill="#0660E8"/>
<path opacity="0.3" d="M27.8237 186.862H28.4904C28.6287 186.848 28.7577 186.787 28.8549 186.687C28.952 186.588 29.011 186.458 29.0214 186.319L33.1514 157.74H30.0303L27.3104 186.13C27.2944 186.212 27.295 186.297 27.3123 186.378C27.3296 186.46 27.3633 186.537 27.4112 186.605C27.4591 186.674 27.5204 186.732 27.5913 186.776C27.6622 186.82 27.7412 186.849 27.8237 186.862Z" fill="black"/>
<path d="M75.4957 186.862H74.8231C74.6859 186.847 74.5582 186.785 74.4623 186.686C74.3664 186.586 74.3082 186.457 74.298 186.319L70.168 157.74H73.2832L76.0031 186.13C76.0192 186.212 76.0188 186.296 76.0018 186.377C75.9849 186.458 75.9517 186.535 75.9044 186.604C75.8571 186.672 75.7965 186.73 75.7263 186.774C75.6561 186.819 75.5776 186.848 75.4957 186.862Z" fill="#0660E8"/>
<path opacity="0.3" d="M75.4957 186.862H74.8231C74.6859 186.847 74.5582 186.785 74.4623 186.686C74.3664 186.586 74.3082 186.457 74.298 186.319L70.168 157.74H73.2832L76.0031 186.13C76.0192 186.212 76.0188 186.296 76.0018 186.377C75.9849 186.458 75.9517 186.535 75.9044 186.604C75.8571 186.672 75.7965 186.73 75.7263 186.774C75.6561 186.819 75.5776 186.848 75.4957 186.862Z" fill="black"/>
<path d="M84.0504 186.862H83.3778C83.2406 186.847 83.1129 186.784 83.017 186.685C82.921 186.586 82.8629 186.456 82.8527 186.319L78.7227 157.739H81.8379L84.5578 186.13C84.5739 186.212 84.5735 186.295 84.5565 186.377C84.5396 186.458 84.5064 186.535 84.4591 186.603C84.4118 186.672 84.3512 186.73 84.281 186.774C84.2107 186.818 84.1323 186.848 84.0504 186.862Z" fill="#0660E8"/>
<path opacity="0.3" d="M84.0504 186.862H83.3778C83.2406 186.847 83.1129 186.784 83.017 186.685C82.921 186.586 82.8629 186.456 82.8527 186.319L78.7227 157.739H81.8379L84.5578 186.13C84.5739 186.212 84.5735 186.295 84.5565 186.377C84.5396 186.458 84.5064 186.535 84.4591 186.603C84.4118 186.672 84.3512 186.73 84.281 186.774C84.2107 186.818 84.1323 186.848 84.0504 186.862Z" fill="black"/>
<path d="M95.1369 123.862H74.133C70.4042 110.917 57.0229 100.71 43.2641 100.71H36.4437C22.0713 100.71 12.7965 111.92 15.7229 125.691C16.277 128.228 17.1763 130.678 18.3956 132.971L21.7114 153.031C22.1362 155.621 24.2071 157.722 26.3252 157.722H89.5497C91.6678 157.722 93.7386 155.621 94.1634 153.031L98.2049 128.534C98.6357 125.962 97.2609 123.862 95.1369 123.862Z" fill="#0660E8"/>
<path opacity="0.5" d="M95.1369 123.862H74.133C70.4042 110.917 57.0229 100.71 43.2641 100.71H36.4437C22.0713 100.71 12.7965 111.92 15.7229 125.691C16.277 128.228 17.1763 130.678 18.3956 132.971L21.7114 153.031C22.1362 155.621 24.2071 157.722 26.3252 157.722H89.5497C91.6678 157.722 93.7386 155.621 94.1634 153.031L98.2049 128.534C98.6357 125.962 97.2609 123.862 95.1369 123.862Z" fill="white"/>
<path d="M92.4004 29.7686H87.5801V30.3586H92.4004V29.7686Z" fill="#0660E8"/>
<path d="M69.8498 36.7188H69.2598V33.8101C69.2613 32.7361 69.6891 31.7067 70.449 30.9478C71.209 30.1889 72.2391 29.7627 73.3131 29.7627H84.0688V30.3527H73.3131C72.3956 30.3527 71.5155 30.7168 70.8662 31.365C70.2169 32.0132 69.8513 32.8926 69.8498 33.8101V36.7188Z" fill="#0660E8"/>
<path d="M73.3125 31.8335H127.103C127.629 31.8335 128.133 32.0424 128.505 32.4141C128.876 32.7859 129.085 33.2901 129.085 33.8159V54.9084C129.085 55.4357 128.876 55.9415 128.503 56.3143C128.13 56.6872 127.624 56.8967 127.097 56.8967H73.3125C72.7852 56.8967 72.2795 56.6872 71.9066 56.3143C71.5337 55.9415 71.3242 55.4357 71.3242 54.9084V33.81C71.325 33.5497 71.377 33.292 71.4774 33.0518C71.5777 32.8116 71.7244 32.5935 71.909 32.41C72.0936 32.2264 72.3126 32.0811 72.5534 31.9821C72.7942 31.8832 73.0522 31.8327 73.3125 31.8335Z" fill="#0660E8"/>
<path d="M124.561 45.6985H75.8568C75.5032 45.6985 75.164 45.5581 74.914 45.308C74.6639 45.0579 74.5234 44.7188 74.5234 44.3651C74.5234 44.0115 74.6639 43.6723 74.914 43.4223C75.164 43.1722 75.5032 43.0317 75.8568 43.0317H124.561C124.915 43.0317 125.254 43.1722 125.504 43.4223C125.754 43.6723 125.895 44.0115 125.895 44.3651C125.895 44.7188 125.754 45.0579 125.504 45.308C125.254 45.5581 124.915 45.6985 124.561 45.6985Z" fill="white"/>
<path d="M114.136 51.2387H75.8569C75.5032 51.2387 75.1641 51.0982 74.914 50.8481C74.664 50.5981 74.5235 50.2589 74.5235 49.9053C74.5219 49.7292 74.5553 49.5545 74.6216 49.3914C74.6879 49.2282 74.7859 49.0798 74.9098 48.9548C75.0338 48.8297 75.1813 48.7304 75.3439 48.6627C75.5064 48.5949 75.6808 48.5601 75.8569 48.5601H114.136C114.49 48.5601 114.829 48.7005 115.079 48.9506C115.329 49.2007 115.469 49.5398 115.469 49.8935C115.471 50.0696 115.438 50.2442 115.371 50.4074C115.305 50.5705 115.207 50.7189 115.083 50.8439C114.959 50.969 114.812 51.0683 114.649 51.136C114.487 51.2038 114.312 51.2387 114.136 51.2387Z" fill="white"/>
<path d="M92.2824 40.1585H75.8568C75.5032 40.1585 75.164 40.018 74.914 39.768C74.6639 39.5179 74.5234 39.1787 74.5234 38.8251C74.5234 38.4715 74.6639 38.1323 74.914 37.8822C75.164 37.6322 75.5032 37.4917 75.8568 37.4917H92.2824C92.6361 37.4917 92.9752 37.6322 93.2253 37.8822C93.4754 38.1323 93.6158 38.4715 93.6158 38.8251C93.6158 39.1787 93.4754 39.5179 93.2253 39.768C92.9752 40.018 92.6361 40.1585 92.2824 40.1585Z" fill="white"/>
<path d="M114.052 40.1585H97.6264C97.2727 40.1585 96.9336 40.018 96.6835 39.768C96.4335 39.5179 96.293 39.1787 96.293 38.8251C96.293 38.4715 96.4335 38.1323 96.6835 37.8822C96.9336 37.6322 97.2727 37.4917 97.6264 37.4917H114.052C114.406 37.4917 114.745 37.6322 114.995 37.8822C115.245 38.1323 115.385 38.4715 115.385 38.8251C115.385 39.1787 115.245 39.5179 114.995 39.768C114.745 40.018 114.406 40.1585 114.052 40.1585Z" fill="white"/>
<path d="M74.5234 55.2979V61.6876C74.5234 61.9615 74.5997 62.23 74.7437 62.463C74.8877 62.6961 75.0938 62.8844 75.3388 63.0069C75.5838 63.1294 75.8581 63.1812 76.1309 63.1566C76.4037 63.132 76.6643 63.0319 76.8834 62.8676L86.6774 55.292L74.5234 55.2979Z" fill="#0660E8"/>
<path d="M157.458 0.180176H103.668C103.407 0.180176 103.148 0.231603 102.907 0.331524C102.666 0.431446 102.447 0.577906 102.262 0.762537C102.077 0.947168 101.931 1.16636 101.831 1.40759C101.731 1.64882 101.68 1.90737 101.68 2.16848V23.261C101.68 23.7883 101.889 24.294 102.262 24.6669C102.635 25.0398 103.141 25.2493 103.668 25.2493H146.148L153.853 31.2083C154.073 31.3726 154.333 31.4727 154.606 31.4973C154.879 31.5219 155.153 31.4701 155.398 31.3476C155.643 31.225 155.849 31.0367 155.993 30.8037C156.137 30.5707 156.213 30.3022 156.213 30.0283V25.2375H157.423C157.95 25.2375 158.456 25.028 158.829 24.6551C159.202 24.2822 159.411 23.7765 159.411 23.2492V2.16848C159.411 1.64722 159.207 1.14678 158.841 0.774907C158.476 0.403029 157.979 0.189456 157.458 0.180176Z" fill="white"/>
<path d="M154.768 31.8158C154.375 31.8133 153.994 31.6828 153.682 31.4441L146.06 25.5441H103.668C103.063 25.5426 102.483 25.3015 102.055 24.8736C101.627 24.4458 101.386 23.8659 101.385 23.2608V2.16831C101.386 1.56322 101.627 0.983358 102.055 0.555494C102.483 0.127629 103.063 -0.113433 103.668 -0.11499H157.458C158.063 -0.113433 158.643 0.127629 159.071 0.555494C159.499 0.983358 159.74 1.56322 159.742 2.16831V23.2608C159.74 23.8659 159.499 24.4458 159.071 24.8736C158.643 25.3015 158.063 25.5426 157.458 25.5441H156.544V30.0399C156.544 30.5093 156.357 30.9595 156.025 31.2915C155.694 31.6234 155.243 31.8099 154.774 31.8099L154.768 31.8158ZM103.668 0.47501C103.219 0.476565 102.79 0.655464 102.472 0.972683C102.155 1.2899 101.976 1.7197 101.975 2.16831V23.2608C101.976 23.7094 102.155 24.1392 102.472 24.4564C102.79 24.7737 103.219 24.9526 103.668 24.9541H146.266L154.03 30.9721C154.205 31.1099 154.415 31.1956 154.635 31.2195C154.856 31.2433 155.08 31.2043 155.279 31.1069C155.479 31.0095 155.647 30.8577 155.764 30.6689C155.882 30.4802 155.943 30.2621 155.942 30.0399V24.96H157.447C157.895 24.9585 158.325 24.7796 158.642 24.4623C158.959 24.1451 159.138 23.7153 159.14 23.2667V2.16831C159.138 1.7197 158.959 1.2899 158.642 0.972683C158.325 0.655464 157.895 0.476565 157.447 0.47501H103.668Z" fill="#0660E8"/>
<path d="M129.415 14.051H154.915C155.09 14.051 155.264 14.0165 155.426 13.9495C155.587 13.8825 155.734 13.7843 155.858 13.6605C155.982 13.5367 156.08 13.3897 156.147 13.2279C156.214 13.0661 156.249 12.8927 156.249 12.7176C156.246 12.3655 156.104 12.0288 155.854 11.7803C155.605 11.5318 155.267 11.3917 154.915 11.3901H129.415C129.061 11.3917 128.722 11.5335 128.472 11.7845C128.222 12.0355 128.082 12.3753 128.082 12.7294C128.085 13.081 128.227 13.4172 128.477 13.6647C128.726 13.9122 129.064 14.0511 129.415 14.051Z" fill="#0660E8"/>
<path d="M111.611 14.051H124.237C124.412 14.051 124.585 14.0165 124.747 13.9495C124.909 13.8825 125.056 13.7843 125.18 13.6605C125.303 13.5367 125.402 13.3897 125.469 13.2279C125.536 13.0661 125.57 12.8927 125.57 12.7176C125.567 12.3655 125.425 12.0288 125.176 11.7803C124.926 11.5318 124.589 11.3917 124.237 11.3901H111.611C111.257 11.3917 110.917 11.5335 110.668 11.7845C110.418 12.0355 110.277 12.3753 110.277 12.7294C110.28 13.081 110.422 13.4172 110.672 13.6647C110.922 13.9122 111.259 14.0511 111.611 14.051Z" fill="#0660E8"/>
<path d="M116.631 19.5911L154.917 19.5911C155.653 19.5911 156.25 18.9941 156.25 18.2577C156.25 17.5212 155.653 16.9243 154.917 16.9243L116.631 16.9243C115.895 16.9243 115.298 17.5212 115.298 18.2577C115.298 18.9941 115.895 19.5911 116.631 19.5911Z" fill="#0660E8"/>
<path d="M106.242 8.51084H154.917C155.27 8.51084 155.609 8.37035 155.859 8.12029C156.11 7.87023 156.25 7.53108 156.25 7.17744C156.25 6.82325 156.11 6.48349 155.86 6.23249C155.61 5.98149 155.271 5.8397 154.917 5.83813H106.242C105.887 5.8397 105.548 5.98149 105.298 6.23249C105.048 6.48349 104.908 6.82325 104.908 7.17744C104.908 7.53108 105.049 7.87023 105.299 8.12029C105.549 8.37035 105.888 8.51084 106.242 8.51084Z" fill="#0660E8"/>
</g>
<defs>
<clipPath id="clip0_27_31280">
<rect width="229" height="192" fill="white"/>
</clipPath>
</defs>
</svg>
