<svg width="206" height="192" viewBox="0 0 206 192" fill="none" xmlns="http://www.w3.org/2000/svg">
<g clip-path="url(#clip0_27_31410)">
<path d="M102.999 192.462C159.967 192.462 206.149 189.766 206.149 186.44C206.149 183.114 159.967 180.417 102.999 180.417C46.0312 180.417 -0.150391 183.114 -0.150391 186.44C-0.150391 189.766 46.0312 192.462 102.999 192.462Z" fill="#F5F5F5"/>
<path d="M12.885 40.2832C6.57421 56.7652 5.57169 74.8072 10.0176 91.8869C14.4635 108.967 24.1355 124.23 37.6815 135.543C85.0295 175.177 190.307 181.577 198.388 101.091C198.952 95.5588 198.809 89.9776 197.962 84.4818C196.01 72.0276 189.61 62.9996 177.773 58.3393C160.286 51.4552 139.528 54.5461 123.302 45.0659C106.102 35.0217 98.5955 13.9439 81.2736 4.10188C65.6062 -4.79315 42.9696 3.00596 30.5261 14.0609C22.5833 21.1578 16.7367 30.3188 12.885 40.2832Z" fill="#407BFF"/>
<path opacity="0.9" d="M12.885 40.2832C6.57421 56.7652 5.57169 74.8072 10.0176 91.8869C14.4635 108.967 24.1355 124.23 37.6815 135.543C85.0295 175.177 190.307 181.577 198.388 101.091C198.952 95.5588 198.809 89.9776 197.962 84.4818C196.01 72.0276 189.61 62.9996 177.773 58.3393C160.286 51.4552 139.528 54.5461 123.302 45.0659C106.102 35.0217 98.5955 13.9439 81.2736 4.10188C65.6062 -4.79315 42.9696 3.00596 30.5261 14.0609C22.5833 21.1578 16.7367 30.3188 12.885 40.2832Z" fill="white"/>
<path d="M39.2972 27.6324C39.2972 27.6324 35.9136 26.8769 35.4348 22.5145C34.9933 18.466 36.7968 17.6627 36.7968 17.6627C36.7968 17.6627 34.4932 13.5237 38.3396 11.1457C42.1859 8.76764 48.0752 11.9384 50.3415 10.8637C52.6078 9.78908 55.1295 10.3902 54.4113 13.5822C53.6931 16.7742 50.3308 17.6042 50.3308 17.6042L42.569 16.2422C42.569 16.2422 45.9152 24.967 43.9309 26.6109C41.9465 28.2548 39.2972 27.6324 39.2972 27.6324Z" fill="#263238"/>
<path d="M52.8208 14.7739C52.8208 14.7739 54.4966 21.2856 52.8208 22.4081C51.145 23.5306 50.7832 15.7368 50.7832 15.7368L52.8208 14.7739Z" fill="#263238"/>
<path d="M40.4745 77.8424L38.8094 81.4068L35.8568 80.9812C33.0744 81.4281 31.9147 79.848 31.9147 79.848L30.1644 78.252C20.3809 69.091 18.7317 64.42 19.5723 60.7333C20.4607 56.839 26.3553 45.3851 28.1321 42.7198C29.909 40.0544 31.2497 39.3256 31.2497 39.3256C34.4736 37.9371 36.9155 38.9372 38.038 42.3846C38.9477 45.1723 36.8835 48.0823 35.2929 50.1837C33.3362 52.7562 31.528 55.4383 29.8771 58.2169C29.3451 59.132 28.8131 60.063 28.313 60.9993C28.0949 61.4036 26.8926 63.1592 27.0256 63.5156C27.8449 65.7979 31.9625 72.2777 33.4096 74.5227L33.9097 75.2994C39.2509 76.0655 40.4745 77.8424 40.4745 77.8424Z" fill="#263238"/>
<path d="M96.0457 40.1983L92.9442 41.9698C92.9442 41.9698 92.2738 43.2892 91.1673 45.1352C88.6509 49.3433 83.8895 56.3072 79.6814 56.7754C74.1539 57.2382 68.3445 54.6793 62.5084 50.7638C56.6724 46.8483 58.7312 37.8894 58.7312 37.8894C58.7312 37.8894 62.2158 38.8683 67.6103 42.8583C73.0048 46.8483 77.58 49.2848 78.91 49.8009C78.91 49.8009 83.4852 48.3272 88.4381 42.571L89.8426 38.0596L94.4976 36.4636L96.0457 40.1983Z" fill="#263238"/>
<path d="M31.0511 53.0247C31.2533 53.312 36.4988 79.0608 36.4988 79.0608H61.0027C61.0027 79.0608 61.2208 63.3189 61.6251 59.5843C62.0294 55.8496 64.5086 40.4323 58.731 37.8893C58.731 37.8893 52.8471 36.4901 48.506 36.4316C45.8925 36.3962 43.2819 36.619 40.7122 37.0966C40.7122 37.0966 33.1951 37.4956 31.2426 39.3151C29.2902 41.1345 31.0511 53.0247 31.0511 53.0247Z" fill="#263238"/>
<path d="M61.0038 78.7151C61.0038 78.7151 60.5889 115.854 59.477 124.738C58.3651 133.623 55.4817 172.017 55.4817 172.017L48.2039 170.267C48.2039 170.267 47.6719 142.321 46.9112 128.441C46.1504 114.561 46.3206 98.1171 46.3206 98.1171C46.3206 98.1171 41.0006 132.697 38.9524 136.027C36.9042 139.358 28.5731 158.606 23.1999 168.224L17.2734 163.042C17.2734 163.042 26.9239 132.325 28.5731 127.143C30.2223 121.961 31.6587 83.519 36.4999 79.0609L61.0038 78.7151Z" fill="#407BFF"/>
<path d="M22.301 167.096L20.8221 169.357L18.8271 172.411L14.752 170.293L16.4224 166.921L17.6673 164.42L22.301 167.096Z" fill="#CE7A63"/>
<path d="M96.047 40.1983L92.9455 41.9698C92.9455 41.9698 92.2752 43.2892 91.1686 45.1352L88.4395 42.571L89.8439 38.0596L94.4989 36.4636L96.047 40.1983Z" fill="#CE7A63"/>
<path opacity="0.3" d="M60.9985 78.7151C60.9985 78.7151 60.5889 115.854 59.477 124.733C58.3651 133.612 55.4817 172.017 55.4817 172.017L48.2944 170.81C48.2944 170.81 47.6294 142.321 46.8952 128.436C46.6877 124.478 46.3206 121.467 46.2408 119.152C46.161 116.838 46.177 112.768 46.2408 108.784C46.31 103.017 46.4377 97.4096 46.4377 97.4096L46.2781 98.431C46.2781 98.58 46.2302 98.7449 46.1983 98.9204L46.1664 99.1333C45.0332 106.294 40.7134 133.123 38.9578 136.006C36.8989 139.358 28.5731 158.606 23.1999 168.224L17.2734 163.042C17.2734 163.042 26.9026 132.319 28.5678 127.143C30.233 121.967 31.6534 83.519 36.4946 79.0556L60.9985 78.7151Z" fill="black"/>
<path opacity="0.2" d="M46.2575 98.4255C46.2575 98.5745 46.2097 98.7394 46.1777 98.915L46.2575 98.4255Z" fill="black"/>
<path opacity="0.2" d="M47.4211 90.9722C47.4211 90.9722 47.2828 101.612 46.2188 108.778C46.2879 103.011 46.4156 97.4041 46.4156 97.4041L47.4211 90.9722Z" fill="black"/>
<path d="M49.5227 35.4156C50.2362 35.9723 51.0485 36.3893 51.9167 36.6446C51.9167 36.6446 50.6772 38.1342 46.7031 37.8416C45.155 37.7245 43.1866 38.5704 40.7181 37.0968C40.7181 37.0968 41.7502 31.2022 41.298 27.7123C41.298 27.7123 37.2176 25.962 38.1911 23.3073C39.0743 20.892 41.8247 23.6638 42.3248 24.1904C41.8353 23.568 38.8987 19.6472 41.0373 16.4392C41.7221 15.415 42.6237 14.5539 43.6781 13.9168C44.7326 13.2797 45.9142 12.8822 47.1394 12.7524L50.5123 13.6568L51.8689 16.8488C51.8689 16.8488 53.683 19.3067 53.8107 24.2277C53.9383 29.1487 51.0921 30.8936 49.0227 31.4788C49.0227 31.4788 48.9641 32.0108 48.9641 32.729C48.9375 33.692 49.028 34.9634 49.5227 35.4156Z" fill="#CE7A63"/>
<path d="M50.5925 24.6159L50.0605 20.6418L52.3003 23.77C52.0883 24.0199 51.8274 24.2239 51.5338 24.3693C51.2401 24.5148 50.9198 24.5987 50.5925 24.6159Z" fill="#BA4D3C"/>
<path d="M46.7031 24.866C47.0139 25.269 47.4361 25.5721 47.9174 25.7376C48.3988 25.903 48.9181 25.9237 49.411 25.797" stroke="#263238" stroke-linecap="round" stroke-linejoin="round"/>
<path d="M45.6875 19.3704C45.6875 19.3704 46.3259 17.9765 47.6346 18.1893" stroke="#263238" stroke-linecap="round" stroke-linejoin="round"/>
<path d="M51.4375 17.6681C51.8271 17.6172 52.2232 17.6596 52.5932 17.7919C52.9632 17.9242 53.2965 18.1425 53.5655 18.4289" stroke="#263238" stroke-linecap="round" stroke-linejoin="round"/>
<path d="M48.0717 21.1791C48.0717 21.5675 47.8749 21.8813 47.6355 21.8813C47.3961 21.8813 47.1992 21.5675 47.1992 21.1791C47.1992 20.7907 47.3961 20.4822 47.6355 20.4822C47.8749 20.4822 48.0717 20.7961 48.0717 21.1791Z" fill="#263238"/>
<path d="M52.4975 20.8919C52.4975 21.275 52.3006 21.5889 52.0612 21.5889C51.8218 21.5889 51.625 21.275 51.625 20.8919C51.625 20.5089 51.8218 20.1897 52.0612 20.1897C52.3006 20.1897 52.4975 20.5036 52.4975 20.8919Z" fill="#263238"/>
<path d="M45.1289 39.6503L48.5443 39.1289L49.3796 42.4326L47.7889 45.3905H46.8739L45.1289 42.7359V39.6503Z" fill="#407BFF"/>
<path d="M46.8739 45.3906L45.1289 60.9995L48.3209 64.0745L50.6245 60.9303L47.7889 45.3906H46.8739Z" fill="#407BFF"/>
<path opacity="0.3" d="M45.1289 39.6503L48.5443 39.1289L49.3796 42.4326L47.7889 45.3905H46.8739L45.1289 42.7359V39.6503Z" fill="black"/>
<path opacity="0.3" d="M46.8739 45.3906L45.1289 60.9995L48.3209 64.0745L50.6245 60.9303L47.7889 45.3906H46.8739Z" fill="black"/>
<path d="M46.7031 37.8414L48.4321 42.3953C48.4321 42.3953 52.9009 40.1663 53.5553 36.4316L50.3633 35.3357C49.2527 36.3205 48.0231 37.1623 46.7031 37.8414Z" fill="white"/>
<path d="M41.0221 35.0378C41.0221 35.0378 44.113 36.6658 46.7039 37.8415L45.6878 42.3954C45.6878 42.3954 40.5699 39.3311 38.8516 36.9371L41.0221 35.0378Z" fill="white"/>
<path opacity="0.2" d="M49.0015 31.4626C49.0015 31.4626 48.943 31.9946 48.943 32.7128C48.0631 32.4957 47.2141 32.1687 46.416 31.7393C47.2875 31.8576 48.1748 31.7626 49.0015 31.4626Z" fill="black"/>
<path d="M42.3526 24.1904C42.9311 21.8841 42.7252 19.4508 41.7674 17.2744C41.7674 17.2744 47.8375 19.0141 47.8535 13.4866C47.8535 13.4866 39.7564 14.7793 39.3415 17.6575C38.9265 20.5356 41.661 23.4084 42.3526 24.1904Z" fill="#263238"/>
<path d="M47.7616 14.3004C47.7616 14.3004 50.0812 17.5935 52.0708 16.9125V12.1245H45.1548L41.5 14.3057L44.0323 16.9125L45.9156 15.3644L47.7616 14.3004Z" fill="#263238"/>
<path d="M54.9978 178.002L49.8055 177.736L49.6778 173.799L49.582 170.927L53.7848 170.506L54.6148 170.544L54.7956 174.097L54.9978 178.002Z" fill="#CE7A63"/>
<path opacity="0.2" d="M54.7956 174.097L49.6778 173.799L49.582 170.927L53.7848 170.506L54.6148 170.544L54.7956 174.097Z" fill="black"/>
<path d="M46.7617 172.815L56.7474 172.571L57.3113 169.315H46.9958L46.7617 172.815Z" fill="#263238"/>
<path d="M56.1152 178.22C56.1152 178.22 57.8549 173.092 59.2115 173.602C60.5681 174.113 56.1152 178.22 56.1152 178.22Z" stroke="#407BFF" stroke-miterlimit="10"/>
<path d="M56.4121 178.22C56.4121 178.22 59.0402 175.72 60.0989 176.694C61.1576 177.667 56.4121 178.22 56.4121 178.22Z" stroke="#407BFF" stroke-miterlimit="10"/>
<path opacity="0.2" d="M22.3005 167.096L20.8215 169.357L16.4219 166.921L17.6668 164.42L22.3005 167.096Z" fill="black"/>
<path d="M15.4434 165.053L23.0722 169.091L24.8704 166.878L17.0979 162.51L15.4434 165.053Z" fill="#263238"/>
<path d="M20.3008 173.767C20.3008 173.767 22.4607 171.065 23.3385 171.703C24.2163 172.342 20.3008 173.767 20.3008 173.767Z" stroke="#407BFF" stroke-miterlimit="10"/>
<path d="M20.6934 173.767C20.6934 173.767 24.4174 172.89 24.577 174.097C24.7366 175.305 20.6934 173.767 20.6934 173.767Z" stroke="#407BFF" stroke-miterlimit="10"/>
<path d="M19.8481 170.884L15.8422 168.634C15.5625 168.479 15.2328 168.44 14.925 168.527C14.6171 168.614 14.3559 168.818 14.1983 169.097L12.3948 172.289C12.238 172.569 12.1986 172.9 12.2854 173.209C12.3721 173.518 12.5779 173.78 12.8576 173.938L24.2265 180.322C24.5067 180.479 24.8376 180.518 25.1467 180.431C25.4559 180.344 25.718 180.139 25.8757 179.859C26.0157 179.609 26.0626 179.317 26.0081 179.036C25.9536 178.754 25.8011 178.501 25.5778 178.321C24.1094 177.146 21.0983 174.443 20.4333 171.645C20.3933 171.485 20.3206 171.334 20.2199 171.204C20.1192 171.073 19.9927 170.964 19.8481 170.884Z" fill="#263238"/>
<path d="M54.518 176.007H49.198C48.8264 176.008 48.4705 176.157 48.2083 176.42C47.9461 176.684 47.7988 177.04 47.7988 177.412V181.668C47.7988 182.039 47.9462 182.395 48.2086 182.657C48.471 182.919 48.8269 183.067 49.198 183.067H64.2855C64.4697 183.067 64.6522 183.032 64.8226 182.962C64.9929 182.892 65.1478 182.789 65.2783 182.659C65.4088 182.529 65.5123 182.374 65.583 182.204C65.6536 182.034 65.69 181.852 65.69 181.668C65.6896 181.336 65.5719 181.015 65.3577 180.762C65.1435 180.509 64.8466 180.34 64.5196 180.284C62.365 179.928 57.8004 178.906 55.5394 176.465C55.4094 176.323 55.2517 176.209 55.0761 176.13C54.9004 176.051 54.7105 176.01 54.518 176.007Z" fill="#263238"/>
<path d="M40.4742 77.8424L38.8091 81.4068L35.8565 80.9812C33.0741 81.4281 31.9143 79.8481 31.9143 79.8481L30.1641 78.2521L33.4146 74.5281L33.9147 75.3048C39.2506 76.0656 40.4742 77.8424 40.4742 77.8424Z" fill="#CE7A63"/>
<path d="M88.4383 42.3369L87.4062 43.7095L90.428 46.3482L91.3164 45.1352L88.4383 42.3369Z" fill="white"/>
<path d="M30.0312 78.4011L33.5158 74.326L32.3401 72.8311L28.7012 77.2094L30.0312 78.4011Z" fill="white"/>
<path d="M96.9295 17.0029C96.5698 18.072 96.4529 19.2078 96.5873 20.3278C96.7216 21.4477 97.1038 22.5237 97.7062 23.4773C99.7703 26.6055 99.3022 16.2634 99.3022 16.2634L96.9295 17.0029Z" fill="#263238"/>
<path d="M101.159 40.4587C101.159 40.4587 88.3906 58.3339 85.8955 57.5838C83.4004 56.8337 77.6495 45.683 77.6495 45.683L77.3143 41.2727L73.5478 36.0857L68.7598 39.8629L71.0793 44.1774C71.0793 44.1774 71.7709 46.4171 73.8138 47.0449C73.8138 47.0449 78.5113 61.4674 84.4538 64.1753C90.3962 66.8832 98.6422 49.6996 98.6422 49.6996L101.159 40.4587Z" fill="#FFB573"/>
<path d="M128.493 170.719L121.902 173.225C113.39 154.53 106.474 100.011 106.474 100.011C106.474 100.011 106.271 101.538 105.968 103.995C104.979 112.135 102.883 130.431 103.308 136.979C103.984 147.997 102.037 175.225 102.037 175.225L94.0567 176.172C94.0567 176.172 94.328 149.258 93.1895 134.346C92.051 119.434 95.5356 81.1727 95.5356 81.1727L117.544 80.1619C121.322 84.503 122.263 137.932 123.21 142.842C124.157 147.752 128.493 170.719 128.493 170.719Z" fill="#263238"/>
<path d="M93.364 43.1241C93.4175 42.8313 93.5294 42.5523 93.693 42.3037C93.8566 42.0551 94.0686 41.842 94.3163 41.677C96.0985 40.4853 100.668 37.5168 101.897 37.421C103.44 37.2987 111.505 35.4047 114.702 37.421C117.9 39.4373 119.921 45.3638 119.921 45.3638C119.921 45.3638 119.687 72.7565 118.262 81.6515L95.4973 81.178C95.4973 81.178 91.9169 51.1519 93.364 43.1241Z" fill="#407BFF"/>
<path d="M118.859 53.0725L122.413 59.5948C122.413 59.5948 122.886 74.2993 121.705 78.0925L119.923 81.6516V87.3599L124.179 87.9504L125.366 83.4444C125.366 83.4444 126.073 80.1247 125.366 78.7043C125.366 78.7043 130.345 67.3195 128.558 57.4775C128.558 57.4775 119.572 37.6658 114.061 37.1178C108.549 36.5699 118.859 53.0725 118.859 53.0725Z" fill="#FFB573"/>
<path d="M111.602 37.1444C111.602 37.1444 108.086 40.5386 104.878 40.4428C101.67 40.3471 102.548 37.6126 102.548 37.6126C104.197 37.304 104.734 35.6548 104.889 34.2397C104.965 33.5324 104.965 32.819 104.889 32.1117C104.889 32.1117 101.063 32.1117 98.9142 27.4407C96.7649 22.7698 98.9142 16.6145 98.9142 16.6145C98.9142 16.6145 107.038 14.561 110.677 15.5878C114.316 16.6145 111.427 25.7596 111.427 25.7596C110.48 30.8934 111.602 37.1444 111.602 37.1444Z" fill="#FFB573"/>
<path d="M104.472 21.4824C104.472 21.8495 104.27 22.1474 104.026 22.1474C103.781 22.1474 103.584 21.8495 103.584 21.4824C103.584 21.1153 103.781 20.8174 104.026 20.8174C104.27 20.8174 104.472 21.1153 104.472 21.4824Z" fill="#263238"/>
<path d="M99.9412 21.924C99.9412 22.2911 99.7443 22.589 99.4996 22.589C99.2549 22.589 99.0527 22.2911 99.0527 21.924C99.0527 21.557 99.2549 21.259 99.4996 21.259C99.7443 21.259 99.9412 21.541 99.9412 21.924Z" fill="#263238"/>
<path d="M101.44 22.2432V25.8129C101.146 25.904 100.833 25.9061 100.538 25.819C100.244 25.7319 99.9817 25.5594 99.7852 25.3234L101.44 22.2432Z" fill="#ED893E"/>
<path d="M102.957 26.4352C102.957 26.4352 104.851 26.4352 105.543 24.8765" stroke="#263238" stroke-linecap="round" stroke-linejoin="round"/>
<path d="M103.584 18.9182C103.584 18.9182 105.233 18.7852 105.712 19.812" stroke="#263238" stroke-linecap="round" stroke-linejoin="round"/>
<path d="M97.9512 20.1737C98.0811 19.8495 98.2913 19.5636 98.5622 19.343C98.833 19.1225 99.1555 18.9744 99.4993 18.9128" stroke="#263238" stroke-linecap="round" stroke-linejoin="round"/>
<path opacity="0.2" d="M107.787 31.5425C107.037 32.6474 106.048 33.5693 104.893 34.2397C104.969 33.5324 104.969 32.819 104.893 32.1117C105.885 32.1136 106.869 31.9201 107.787 31.5425Z" fill="black"/>
<path d="M103.931 40.5547L105.862 40.3738L106.405 44.4063L105.4 46.2524H104.25L103.176 44.2521L103.931 40.5547Z" fill="#263238"/>
<path d="M111.367 35.522C109.443 37.4555 107.258 39.1117 104.877 40.443L106.026 43.2945C106.026 43.2945 110.846 42.4646 112.91 36.7456L111.367 35.522Z" fill="white"/>
<path d="M104.877 40.4428L103.584 43.2943C103.584 43.2943 101.626 41.3631 101.158 37.6338L103.584 36.0857C103.584 36.0857 103.675 38.8787 104.877 40.4428Z" fill="white"/>
<path d="M104.336 45.1882L103.021 62.2388L105.229 64.9201L107.267 62.0739L105.277 45.1882H104.336Z" fill="#263238"/>
<path d="M113.065 23.2007C113.065 23.2007 108.405 23.7647 107.634 17.0136C107.634 17.0136 99.4249 19.4661 96.4617 16.9497C93.4984 14.4334 95.9031 11.1616 95.9031 11.1616C96.1573 11.7982 96.4614 12.4137 96.8128 13.0023V10.8743C97.3111 11.5288 97.8608 12.1425 98.4567 12.7097C100.847 13.0945 103.297 12.6215 105.373 11.3744C108.932 9.24637 113.459 13.2843 112.624 16.3965C112.65 16.4124 116.662 19.5406 113.065 23.2007Z" fill="#263238"/>
<path d="M109.867 23.3924C109.867 23.3924 111.123 18.9395 113.187 20.5089C115.251 22.0783 112.309 26.462 110.873 26.212C109.436 25.9619 109.867 23.3924 109.867 23.3924Z" fill="#FFB573"/>
<path d="M73.6699 47.9919L78.16 45.5127C78.16 45.5127 82.9852 54.8334 85.7836 56.0038C85.7836 56.0038 91.4706 50.2635 93.3433 43.0762L95.8916 55.0568C95.8916 55.0568 91.4813 64.3721 85.9059 64.5051C80.3306 64.6381 75.7607 54.0301 73.6699 47.9919Z" fill="#407BFF"/>
<path d="M115.667 49.3644L122.434 60.2279L121.306 77.055L126.398 78.0499C126.398 78.0499 130.318 66.3459 128.579 57.4881C127.318 51.0562 123.333 42.9006 118.71 39.0011C117.067 37.6541 115.034 36.8725 112.911 36.772C112.911 36.772 111.661 39.6554 111.725 42.092C111.789 44.5285 115.667 49.3644 115.667 49.3644Z" fill="#407BFF"/>
<path opacity="0.2" d="M119.741 55.8975L115.666 49.3645C116.017 49.9284 119.741 61.2175 119.741 61.2175V55.8975Z" fill="black"/>
<path opacity="0.2" d="M106.474 100.011C106.474 100.011 106.272 101.538 105.968 103.996L104.904 91.0574L106.474 100.011Z" fill="black"/>
<path d="M125.754 178.779L129.882 176.858L128.696 173.618L127.829 171.251L124.275 172.288L123.615 172.586L124.631 175.539L125.754 178.779Z" fill="#FFB573"/>
<path opacity="0.2" d="M124.631 175.539L128.696 173.618L127.829 171.251L124.275 172.288L123.615 172.586L124.631 175.539Z" fill="black"/>
<path d="M124.912 179.321C124.912 179.321 121.816 175.725 120.879 176.582C119.943 177.438 124.912 179.321 124.912 179.321Z" stroke="#407BFF" stroke-miterlimit="10"/>
<path d="M124.674 179.396C124.674 179.396 121.716 178.226 121.173 179.364C120.631 180.503 124.674 179.396 124.674 179.396Z" stroke="#407BFF" stroke-miterlimit="10"/>
<path d="M125.486 177.002L129.801 175.257C130.102 175.136 130.439 175.139 130.738 175.265C131.037 175.392 131.274 175.632 131.397 175.933L132.791 179.396C132.851 179.545 132.882 179.705 132.881 179.866C132.88 180.027 132.847 180.186 132.784 180.334C132.721 180.482 132.63 180.617 132.515 180.73C132.4 180.842 132.264 180.932 132.115 180.992L119.852 185.945C119.703 186.006 119.543 186.037 119.382 186.036C119.22 186.035 119.061 186.002 118.912 185.938C118.763 185.875 118.629 185.783 118.517 185.667C118.404 185.551 118.316 185.414 118.256 185.264C118.147 184.995 118.137 184.696 118.227 184.42C118.318 184.144 118.504 183.91 118.751 183.758C120.379 182.763 123.763 180.433 124.795 177.709C124.853 177.549 124.945 177.403 125.064 177.281C125.184 177.159 125.327 177.064 125.486 177.002Z" fill="#263238"/>
<path d="M95.5879 182.849L100.136 182.737L100.339 179.289L100.488 176.773L96.8168 176.31L96.0933 176.321L95.8486 179.433L95.5879 182.849Z" fill="#FFB573"/>
<path opacity="0.2" d="M95.8496 179.433L100.34 179.289L100.489 176.773L96.8179 176.31L96.0943 176.321L95.8496 179.433Z" fill="black"/>
<path d="M94.5985 183.013C94.5985 183.013 93.194 178.481 91.997 178.896C90.8 179.311 94.5985 183.013 94.5985 183.013Z" stroke="#407BFF" stroke-miterlimit="10"/>
<path d="M94.3387 183.008C94.3387 183.008 92.0936 180.752 91.1467 181.582C90.1997 182.412 94.3387 183.008 94.3387 183.008Z" stroke="#407BFF" stroke-miterlimit="10"/>
<path d="M96.0513 181.114L100.706 181.237C100.868 181.241 101.027 181.277 101.174 181.342C101.322 181.408 101.455 181.502 101.566 181.619C101.677 181.736 101.764 181.874 101.822 182.025C101.88 182.175 101.908 182.336 101.903 182.497L101.802 186.221C101.798 186.383 101.762 186.541 101.696 186.689C101.631 186.836 101.537 186.969 101.419 187.079C101.302 187.19 101.164 187.277 101.014 187.334C100.863 187.391 100.703 187.418 100.541 187.413L87.3212 187.067C87.16 187.063 87.0013 187.027 86.854 186.962C86.7068 186.896 86.574 186.802 86.4633 186.685C86.3525 186.567 86.266 186.43 86.2087 186.279C86.1515 186.128 86.1245 185.968 86.1295 185.807C86.1382 185.516 86.25 185.237 86.4448 185.021C86.6397 184.805 86.905 184.664 87.1935 184.625C89.0874 184.359 93.1147 183.561 95.1469 181.481C95.2648 181.362 95.4058 181.268 95.5613 181.205C95.7168 181.142 95.8835 181.111 96.0513 181.114Z" fill="#263238"/>
<path d="M121.757 175.076L119.475 171.102L129.407 167.426L130.104 172.693L121.757 175.076Z" fill="#407BFF"/>
<path d="M92.9492 172.661V177.8H103.371L103.77 172.661H92.9492Z" fill="#407BFF"/>
<path d="M148.582 47.0451C148.582 47.0451 145.56 58.9619 142.368 62.654C142.368 62.654 136.575 56.8658 134.814 51.8278C134.814 51.8278 134.649 49.4763 132.968 48.4708L130.451 45.0288L126.254 46.5397L127.259 49.8966L131.627 52.3332C131.627 52.3332 137.165 67.6069 142.198 67.5218C147.231 67.4367 149.502 60.7228 149.502 60.7228L152.269 46.3588L148.582 47.0451Z" fill="#FF8B7B"/>
<path d="M131.729 53.7642L134.835 51.8277C134.835 51.8277 140.123 60.4674 142.597 62.2017C142.597 62.2017 145.678 56.5838 146.731 51.9607C147.283 49.4451 147.964 46.9592 148.768 44.5127L152.29 49.6146C152.29 49.6146 149.976 65.8619 145.188 67.5111C140.4 69.1603 137.692 64.484 136.602 62.6432C135.511 60.8025 131.729 53.7642 131.729 53.7642Z" fill="#263238"/>
<path d="M158.355 170.719C158.355 170.916 161.547 175.427 161.547 175.427L164.888 171.108L161.287 166.006L158.355 170.719Z" fill="#FF8B7B"/>
<path d="M160.041 173.704L163.499 169.953C163.743 169.691 164.079 169.537 164.436 169.523C164.793 169.509 165.141 169.637 165.404 169.879L168.404 172.656C168.534 172.775 168.64 172.919 168.714 173.08C168.788 173.24 168.83 173.413 168.836 173.59C168.843 173.766 168.815 173.942 168.754 174.108C168.693 174.274 168.599 174.425 168.479 174.555L158.648 185.195C158.405 185.455 158.069 185.608 157.713 185.622C157.358 185.636 157.011 185.509 156.748 185.269C156.514 185.053 156.364 184.761 156.325 184.444C156.286 184.127 156.36 183.807 156.536 183.54C157.685 181.79 159.94 177.906 159.69 174.72C159.675 174.535 159.699 174.35 159.759 174.175C159.82 174 159.916 173.839 160.041 173.704Z" fill="#263238"/>
<path d="M151.189 168.623L160.893 160.111L164.463 167.522L157.829 173.288L151.189 168.623Z" fill="#407BFF"/>
<path d="M147.64 72.1714C147.64 72.1714 137.176 117.854 137 128.813C136.825 139.773 146.385 158.781 152.428 167.681L160.568 161.207L148.774 132.479L154.248 96.7072L160.568 169.187L168.378 170.187C168.378 170.187 169.373 142.778 168.378 132.814C167.383 122.85 172.916 88.9613 168.819 76.0018L147.64 72.1714Z" fill="#263238"/>
<path d="M168.845 75.9912C168.845 75.9912 170.627 58.9991 174.048 52.3438L175.378 44.6458C175.378 44.6458 172.904 41.6027 167.297 41.6985C161.69 41.7943 159.221 41.1665 159.221 41.1665C159.221 41.1665 151.896 40.6717 150.177 42.289C148.459 43.9063 148.374 51.2266 148.086 54.7431C147.799 58.2597 147.129 74.4271 147.129 74.4271L168.845 75.9912Z" fill="#407BFF"/>
<path d="M168.35 41.1345C168.35 41.1345 159.923 51.0031 161.519 75.9912L171.372 77.6829L170.031 67.3196L176.346 48.375C176.346 48.375 177.671 42.4752 168.35 41.1345Z" fill="#263238"/>
<path d="M158.742 41.1344C158.742 41.1344 149.666 47.7631 148.97 73.198L144.219 73.331L148.108 52.9874C147.425 51.1513 147.336 49.1473 147.852 47.2577C148.384 45.4276 148.959 43.2784 150.182 42.2676C152.13 40.6556 155.231 40.7939 158.742 41.1344Z" fill="#263238"/>
<path d="M169.862 47.1036C169.862 47.1036 175.512 60.8185 174.118 66.3673C174.118 66.3673 164.372 63.8616 159.876 59.5045C159.876 59.5045 158.466 57.1265 156.152 56.9509L151.705 54.6686L148.098 58.4565L150.917 61.4463L156.769 61.707C156.769 61.707 170.601 74.8208 175.847 72.0863C178.299 70.8042 179.353 68.3144 179.778 66.0268C180.175 63.7819 180.051 61.4759 179.417 59.2864L175.666 45.864L169.862 47.1036Z" fill="#FF8B7B"/>
<path d="M156.412 63.0157L160.264 58.5363C160.264 58.5363 168.818 65.1331 174.096 66.3673C173.635 61.8608 172.925 57.3833 171.968 52.9556L169.308 48.3751L169.553 46.4493L176 45.614C176 45.614 181.852 61.973 180.299 67.8676C178.745 73.7621 175.41 74.3473 169.792 72.1715C164.174 69.9956 156.412 63.0157 156.412 63.0157Z" fill="#263238"/>
<path d="M168.485 182.035H163.127L162.819 177.577L162.665 175.348L162.574 174.06L168.479 174.555V177.577L168.485 182.035Z" fill="#FF8B7B"/>
<path d="M162.898 180.04H168C168.357 180.04 168.699 180.181 168.951 180.434C169.204 180.686 169.346 181.029 169.346 181.386V185.477C169.344 185.833 169.202 186.174 168.95 186.425C168.697 186.676 168.356 186.817 168 186.817H153.508C153.332 186.818 153.157 186.784 152.993 186.717C152.83 186.65 152.682 186.551 152.557 186.426C152.432 186.302 152.332 186.154 152.265 185.991C152.197 185.828 152.162 185.653 152.162 185.477C152.161 185.158 152.274 184.849 152.479 184.606C152.685 184.362 152.97 184.199 153.285 184.147C155.354 183.806 159.738 182.827 161.908 180.476C162.034 180.339 162.187 180.229 162.357 180.154C162.528 180.079 162.712 180.04 162.898 180.04Z" fill="#263238"/>
<path opacity="0.1" d="M168.352 41.1345C167.381 42.4182 166.56 43.8087 165.904 45.2788C163.997 49.4882 162.719 53.9551 162.111 58.5362L168.352 53.4822L166.995 49.1358L174.587 43.6243C174.587 43.6243 172.602 41.608 168.352 41.1345Z" fill="white"/>
<path opacity="0.1" d="M151.381 55.0996C151.381 55.0996 154.387 44.3798 158.744 41.1346C158.744 41.1346 153.578 40.4164 151.2 41.624L151.732 49.1358L149.514 49.8328L151.381 55.0996Z" fill="white"/>
<path d="M174.692 23.387C175.713 25.9459 174.617 28.8241 174.718 31.5745C174.761 32.83 175.059 34.0643 175.091 35.2985C175.123 36.5327 174.836 37.8947 173.915 38.7512C173.085 39.5332 171.899 39.7673 170.782 39.9748C169.037 40.2887 167.143 40.5866 165.579 39.7567C165.217 39.5651 164.887 39.3204 164.515 39.1608C163.742 38.897 162.917 38.8258 162.11 38.9533C161.306 39.0829 160.483 39.043 159.695 38.8363C157.205 37.9691 158.918 34.5431 159.344 32.7875C160 30.0991 160.652 27.4125 161.301 24.7277C163.988 24.1957 166.653 23.4509 169.345 22.9082C170.224 22.6575 171.15 22.6174 172.048 22.7912C172.888 23.0465 173.851 23.6583 174.692 23.387Z" fill="#263238"/>
<path d="M174.761 28.675C174.553 29.3739 174.104 29.9768 173.495 30.3774C172.872 30.7073 172.777 31.2925 172.83 31.9734C172.942 33.5694 173.809 35.8251 170.824 37.1019C170.386 37.3212 169.894 37.4092 169.407 37.3554C168.92 37.3016 168.459 37.1083 168.079 36.7987C165.983 35.1442 165.318 30.5051 165.318 30.5051L161.52 19.5512C161.532 19.5275 161.548 19.506 161.567 19.4874L161.599 19.4289C161.612 19.4071 161.628 19.3874 161.647 19.3704C161.782 19.183 161.929 19.0053 162.089 18.8384C162.208 18.7005 162.334 18.569 162.466 18.4447C163.855 17.1572 166.722 15.5134 170.835 18.2585C175.352 21.2802 175.74 26.0629 174.761 28.675Z" fill="#263238"/>
<path d="M174.979 29.6007C175.027 30.8722 173.857 31.601 172.851 32C172.36 32.1851 171.852 32.3223 171.335 32.4096C170.399 33.9684 168.372 35.0697 168.372 35.0697C168.221 35.6475 168.13 36.2394 168.1 36.8359C168.046 38.2795 168.137 39.7249 168.372 41.1504L166.999 43.2784C161.28 45.8958 159.243 41.1504 159.243 41.1504C161.339 40.927 162.009 39.166 162.206 37.6871C162.287 37.0085 162.287 36.3228 162.206 35.6442C161.277 35.2531 160.454 34.6461 159.807 33.8735C159.159 33.101 158.705 32.1852 158.482 31.202C157.806 28.3398 158.359 25.6479 159.546 23.0039C160.023 21.9489 160.594 20.9392 161.254 19.9874L161.52 19.5565C161.532 19.5328 161.548 19.5113 161.567 19.4927C161.59 19.4513 161.617 19.4121 161.647 19.3756V19.3384C161.743 19.216 161.881 19.0405 162.062 18.849H162.094L169.271 17.918L172.388 20.4077L173.479 26.5789L171.883 28.4782L171.218 29.2708L171.053 29.4624L171.26 29.2868C172.527 28.2228 174.144 27.6908 174.734 28.6963C174.887 28.9738 174.971 29.284 174.979 29.6007Z" fill="#FF8B7B"/>
<path d="M165.287 24.9936C165.196 25.3713 164.92 25.632 164.675 25.5735C164.43 25.515 164.297 25.1585 164.388 24.7755C164.478 24.3924 164.755 24.1371 165.005 24.1956C165.255 24.2541 165.383 24.6106 165.287 24.9936Z" fill="#263238"/>
<path d="M161.201 23.8923C161.111 24.2753 160.834 24.536 160.584 24.4775C160.334 24.4189 160.206 24.0572 160.297 23.6795C160.387 23.3017 160.664 23.0357 160.914 23.0943C161.164 23.1528 161.291 23.5199 161.201 23.8923Z" fill="#263238"/>
<path d="M165.068 24.2222L164.084 23.6902C164.084 23.6902 164.254 24.6957 165.068 24.2222Z" fill="#263238"/>
<path d="M160.988 23.1528L160.004 22.6208C160.004 22.6208 160.19 23.6316 160.988 23.1528Z" fill="#263238"/>
<path d="M162.201 24.3445L161.264 27.712C161.138 27.7518 161.005 27.7656 160.873 27.7526C160.741 27.7396 160.613 27.7002 160.497 27.6366C160.381 27.573 160.279 27.4866 160.196 27.3825C160.114 27.2785 160.054 27.159 160.02 27.0311L162.201 24.3445Z" fill="#FF5652"/>
<path d="M162.402 30.053C162.402 30.053 164.727 30.3988 165.392 28.457" stroke="#263238" stroke-linecap="round" stroke-linejoin="round"/>
<path d="M165.318 22.355C165.515 22.2519 165.731 22.19 165.953 22.1731C166.174 22.1563 166.397 22.1849 166.607 22.2571C166.817 22.3293 167.01 22.4436 167.175 22.5931C167.339 22.7426 167.471 22.924 167.563 23.1264" stroke="#263238" stroke-linecap="round" stroke-linejoin="round"/>
<path d="M162.078 20.961C161.903 20.8437 161.705 20.7652 161.496 20.7307C161.288 20.6962 161.075 20.7064 160.871 20.7608C160.667 20.8152 160.477 20.9124 160.314 21.046C160.151 21.1796 160.018 21.3465 159.924 21.5355" stroke="#263238" stroke-linecap="round" stroke-linejoin="round"/>
<path d="M174.043 26.664L171.287 29.2655H171.244C166.637 27.7759 167.563 19.2639 167.563 19.2639C166.26 20.0938 161.642 19.6363 161.52 19.5405C161.769 19.1715 162.056 18.8292 162.376 18.5191C162.578 18.3223 163.222 18.3808 163.488 18.3595L165.185 18.2265L168.622 17.9499C168.723 17.9499 169.202 17.8275 169.287 17.8967L172.404 20.3864L174.043 26.664Z" fill="#263238"/>
<path opacity="0.2" d="M164.553 36.006C163.952 36.7917 163.126 37.3761 162.186 37.6818C162.266 37.0032 162.266 36.3175 162.186 35.6389C162.951 35.8816 163.75 36.0054 164.553 36.006Z" fill="black"/>
<path opacity="0.3" d="M153.098 104.373L153.688 89.1848L154.273 96.6967L153.098 104.373Z" fill="black"/>
<path opacity="0.1" d="M168.479 175.071V177.577H162.818L162.664 175.347L168.479 175.071Z" fill="black"/>
<path d="M159.43 168.99L160.802 176.678H169.218L170.378 168.623L159.43 168.99Z" fill="#407BFF"/>
</g>
<defs>
<clipPath id="clip0_27_31410">
<rect width="206" height="192" fill="white"/>
</clipPath>
</defs>
</svg>
