<svg width="209" height="180" viewBox="0 0 209 180" fill="none" xmlns="http://www.w3.org/2000/svg">
<g clip-path="url(#clip0_27_31543)">
<path d="M195.941 18.04C190.079 11.2615 182.564 6.11337 174.126 3.09522C165.687 0.0770803 156.612 -0.708615 147.781 0.81438L55.8009 16.6848C45.0203 18.5443 35.1006 23.7564 27.4535 31.5795C19.8063 39.4026 14.8211 49.4382 13.2073 60.2584L9.1809 87.2616C2.5617 131.636 51.4777 162.996 89.0369 138.44L122.43 116.6C127.518 113.277 133.149 110.872 139.067 109.494L168.406 102.662C206.508 93.8304 221.527 47.6472 195.941 18.04Z" fill="#407BFF"/>
<path opacity="0.9" d="M195.941 18.04C190.079 11.2615 182.564 6.11337 174.126 3.09522C165.687 0.0770803 156.612 -0.708615 147.781 0.81438L55.8009 16.6848C45.0203 18.5443 35.1006 23.7564 27.4535 31.5795C19.8063 39.4026 14.8211 49.4382 13.2073 60.2584L9.1809 87.2616C2.5617 131.636 51.4777 162.996 89.0369 138.44L122.43 116.6C127.518 113.277 133.149 110.872 139.067 109.494L168.406 102.662C206.508 93.8304 221.527 47.6472 195.941 18.04Z" fill="white"/>
<path d="M106.301 180.278C166.267 180.278 214.879 177.439 214.879 173.938C214.879 170.437 166.267 167.599 106.301 167.599C46.3349 167.599 -2.27734 170.437 -2.27734 173.938C-2.27734 177.439 46.3349 180.278 106.301 180.278Z" fill="#F5F5F5"/>
<path d="M173.126 6.5376H42.176C38.4986 6.5376 35.5176 9.51866 35.5176 13.196V112.758C35.5176 116.436 38.4986 119.417 42.176 119.417H173.126C176.804 119.417 179.785 116.436 179.785 112.758V13.196C179.785 9.51866 176.804 6.5376 173.126 6.5376Z" fill="#407BFF"/>
<path opacity="0.4" d="M173.126 6.5376H42.176C38.4986 6.5376 35.5176 9.51866 35.5176 13.196V112.758C35.5176 116.436 38.4986 119.417 42.176 119.417H173.126C176.804 119.417 179.785 116.436 179.785 112.758V13.196C179.785 9.51866 176.804 6.5376 173.126 6.5376Z" fill="white"/>
<path opacity="0.8" d="M173.127 14.1816H42.1762C39.736 14.1816 37.7578 16.1598 37.7578 18.6V112.758C37.7578 115.199 39.736 117.177 42.1762 117.177H173.127C175.567 117.177 177.545 115.199 177.545 112.758V18.6C177.545 16.1598 175.567 14.1816 173.127 14.1816Z" fill="white"/>
<path opacity="0.3" d="M45.8041 8.33496H44.2361C43.6516 8.33496 43.1777 8.80882 43.1777 9.39336V10.9614C43.1777 11.5459 43.6516 12.0198 44.2361 12.0198H45.8041C46.3887 12.0198 46.8625 11.5459 46.8625 10.9614V9.39336C46.8625 8.80882 46.3887 8.33496 45.8041 8.33496Z" fill="white"/>
<path opacity="0.5" d="M51.7807 8.33496H50.2127C49.6282 8.33496 49.1543 8.80882 49.1543 9.39336V10.9614C49.1543 11.5459 49.6282 12.0198 50.2127 12.0198H51.7807C52.3652 12.0198 52.8391 11.5459 52.8391 10.9614V9.39336C52.8391 8.80882 52.3652 8.33496 51.7807 8.33496Z" fill="white"/>
<path opacity="0.7" d="M57.7612 8.33496H56.1932C55.6086 8.33496 55.1348 8.80882 55.1348 9.39336V10.9614C55.1348 11.5459 55.6086 12.0198 56.1932 12.0198H57.7612C58.3457 12.0198 58.8196 11.5459 58.8196 10.9614V9.39336C58.8196 8.80882 58.3457 8.33496 57.7612 8.33496Z" fill="white"/>
<path d="M100.903 11.9587V9.64033L99.7436 11.5779H99.4524L98.2932 9.67393V11.9811H97.666V8.45312H98.226L99.626 10.7883L101.004 8.45312H101.564V11.9811L100.903 11.9587Z" fill="white"/>
<path d="M104.934 9.26465L103.674 12.171C103.594 12.414 103.446 12.6294 103.249 12.7926C103.069 12.9142 102.856 12.9769 102.638 12.9718C102.503 12.9719 102.369 12.9491 102.241 12.9046C102.122 12.8669 102.011 12.806 101.916 12.7254L102.168 12.2606C102.23 12.3181 102.302 12.3637 102.381 12.395C102.461 12.4279 102.546 12.445 102.633 12.4454C102.731 12.4496 102.828 12.42 102.907 12.3614C102.993 12.2796 103.06 12.1803 103.103 12.0702L103.148 11.9694L101.978 9.26465H102.633L103.478 11.2582L104.33 9.26465H104.934Z" fill="white"/>
<path d="M107.434 8.97924V10.0544H109.142V10.6144H107.434V11.964H106.762V8.43604H109.338V8.99604L107.434 8.97924Z" fill="white"/>
<path d="M109.907 8.71631C109.87 8.68143 109.84 8.63883 109.821 8.59144C109.802 8.54406 109.793 8.49303 109.795 8.44191C109.793 8.39167 109.802 8.34161 109.822 8.2952C109.841 8.24879 109.87 8.20713 109.907 8.17311C109.987 8.10078 110.091 8.06257 110.198 8.06671C110.303 8.06416 110.404 8.10003 110.484 8.16751C110.522 8.20016 110.552 8.24063 110.572 8.2861C110.592 8.33156 110.602 8.38092 110.602 8.43071C110.603 8.483 110.593 8.53492 110.572 8.58314C110.552 8.63136 110.522 8.67481 110.484 8.71071C110.447 8.74789 110.402 8.77701 110.353 8.79627C110.304 8.81553 110.251 8.82453 110.198 8.82271C110.092 8.82457 109.988 8.78665 109.907 8.71631ZM109.879 9.27631H110.506V11.9699H109.879V9.27631Z" fill="white"/>
<path d="M111.336 8.21777H111.963V11.9586H111.336V8.21777Z" fill="white"/>
<path d="M115.313 10.8103H113.201C113.233 11.0007 113.337 11.1714 113.493 11.2863C113.692 11.4177 113.931 11.4771 114.169 11.4547C114.408 11.4323 114.631 11.3295 114.803 11.1631L115.145 11.5551C115.022 11.7007 114.864 11.8125 114.685 11.8799C114.485 11.9561 114.272 11.9941 114.058 11.9919C113.787 11.9983 113.518 11.9387 113.274 11.8183C113.058 11.7062 112.877 11.5354 112.753 11.3255C112.628 11.1076 112.564 10.8599 112.569 10.6087C112.566 10.362 112.628 10.1188 112.748 9.90312C112.865 9.69558 113.037 9.52488 113.246 9.41032C113.466 9.29142 113.713 9.2316 113.963 9.23672C114.208 9.23085 114.449 9.29081 114.663 9.41032C114.868 9.52333 115.037 9.69228 115.15 9.89752C115.27 10.1212 115.33 10.372 115.324 10.6255C115.324 10.6703 115.318 10.7599 115.313 10.8103ZM113.481 9.91992C113.34 10.0414 113.248 10.2109 113.224 10.3959H114.753C114.734 10.2098 114.645 10.0379 114.503 9.91589C114.361 9.7939 114.178 9.73118 113.991 9.74072C113.804 9.73289 113.622 9.79704 113.481 9.91992Z" fill="white"/>
<path d="M116.118 11.9081C115.94 11.8657 115.771 11.7918 115.619 11.6897L115.86 11.2137C116.144 11.3843 116.469 11.4752 116.801 11.4769C117.176 11.4769 117.361 11.3817 117.361 11.1801C117.363 11.1366 117.35 11.0936 117.324 11.0581C117.299 11.0226 117.263 10.9966 117.221 10.9841C117.07 10.9328 116.914 10.8971 116.756 10.8777C116.566 10.8534 116.379 10.8141 116.196 10.7601C116.055 10.7202 115.929 10.6405 115.832 10.5305C115.723 10.4055 115.666 10.2428 115.675 10.0769C115.672 9.95579 115.7 9.83584 115.757 9.72884C115.814 9.62184 115.898 9.53146 116 9.46654C116.255 9.29911 116.558 9.21858 116.862 9.23694C117.051 9.2348 117.239 9.25549 117.422 9.29854C117.581 9.33083 117.734 9.3875 117.876 9.46654L117.635 9.94815C117.4 9.81238 117.133 9.74271 116.862 9.74654C116.718 9.7393 116.574 9.76616 116.442 9.82494C116.4 9.84488 116.363 9.87645 116.337 9.91606C116.312 9.95567 116.298 10.0017 116.297 10.0489C116.296 10.0967 116.311 10.1433 116.339 10.1818C116.368 10.2202 116.408 10.2483 116.454 10.2617C116.608 10.315 116.768 10.3543 116.93 10.3793C117.108 10.4047 117.284 10.444 117.456 10.4969C117.591 10.5395 117.714 10.6145 117.814 10.7153C117.918 10.8409 117.97 11.001 117.96 11.1633C117.962 11.2835 117.933 11.4021 117.876 11.5079C117.819 11.6137 117.736 11.7033 117.635 11.7681C117.366 11.9321 117.054 12.0102 116.739 11.9921C116.529 11.991 116.32 11.9628 116.118 11.9081Z" fill="white"/>
<path d="M64.0995 37.2255L63.4779 36.1055C63.3766 35.9208 63.2275 35.7667 63.0462 35.6593C62.865 35.5519 62.6582 35.4952 62.4475 35.4951H53.1291C52.8172 35.4951 52.5181 35.619 52.2976 35.8396C52.077 36.0601 51.9531 36.3592 51.9531 36.6711V54.4791C51.9531 54.8044 52.0823 55.1163 52.3123 55.3463C52.5423 55.5763 52.8543 55.7055 53.1795 55.7055H74.3475C74.6728 55.7055 74.9847 55.5763 75.2147 55.3463C75.4447 55.1163 75.5739 54.8044 75.5739 54.4791V38.9279C75.5739 38.616 75.45 38.3169 75.2295 38.0964C75.0089 37.8758 74.7098 37.7519 74.3979 37.7519H64.9955C64.8127 37.7526 64.633 37.7041 64.4754 37.6115C64.3177 37.5189 64.1879 37.3856 64.0995 37.2255Z" fill="#407BFF"/>
<path opacity="0.3" d="M64.0995 37.2255L63.4779 36.1055C63.3766 35.9208 63.2275 35.7667 63.0462 35.6593C62.865 35.5519 62.6582 35.4952 62.4475 35.4951H53.1291C52.8172 35.4951 52.5181 35.619 52.2976 35.8396C52.077 36.0601 51.9531 36.3592 51.9531 36.6711V54.4791C51.9531 54.8044 52.0823 55.1163 52.3123 55.3463C52.5423 55.5763 52.8543 55.7055 53.1795 55.7055H74.3475C74.6728 55.7055 74.9847 55.5763 75.2147 55.3463C75.4447 55.1163 75.5739 54.8044 75.5739 54.4791V38.9279C75.5739 38.616 75.45 38.3169 75.2295 38.0964C75.0089 37.8758 74.7098 37.7519 74.3979 37.7519H64.9955C64.8127 37.7526 64.633 37.7041 64.4754 37.6115C64.3177 37.5189 64.1879 37.3856 64.0995 37.2255Z" fill="white"/>
<path d="M72.6284 38.4634H54.5684V51.965H72.6284V38.4634Z" fill="#263238"/>
<path opacity="0.8" d="M72.6284 38.4634H54.5684V51.965H72.6284V38.4634Z" fill="white"/>
<path d="M73.9333 39.8184H53.2637V55.2744H73.9333V39.8184Z" fill="#263238"/>
<path opacity="0.9" d="M73.9333 39.8184H53.2637V55.2744H73.9333V39.8184Z" fill="white"/>
<path d="M77.64 40.2052H65.2584C65.0057 40.1931 64.7533 40.2337 64.5171 40.3243C64.2809 40.4149 64.0662 40.5536 63.8864 40.7316L63.08 41.706C62.9332 41.8609 62.7545 41.9821 62.5563 42.0614C62.3582 42.1407 62.1452 42.1761 61.932 42.1652H49.836C48.996 42.1652 48.436 42.6188 48.5816 43.1788C49.7632 47.7652 50.3568 50.0556 51.5384 54.6364C51.6446 54.9455 51.8448 55.2136 52.1108 55.4034C52.3769 55.5932 52.6956 55.6951 53.0224 55.6948H74.0112C74.338 55.6951 74.6567 55.5932 74.9228 55.4034C75.1889 55.2136 75.389 54.9455 75.4952 54.6364L78.956 41.2244C79.096 40.6644 78.5136 40.2052 77.64 40.2052Z" fill="#407BFF"/>
<g opacity="0.6">
<path d="M77.64 40.2052H65.2584C65.0057 40.1931 64.7533 40.2337 64.5171 40.3243C64.2809 40.4149 64.0662 40.5536 63.8864 40.7316L63.08 41.706C62.9332 41.8609 62.7545 41.9821 62.5563 42.0614C62.3582 42.1407 62.1452 42.1761 61.932 42.1652H49.836C48.996 42.1652 48.436 42.6188 48.5816 43.1788C49.7632 47.7652 50.3568 50.0556 51.5384 54.6364C51.6446 54.9455 51.8448 55.2136 52.1108 55.4034C52.3769 55.5932 52.6956 55.6951 53.0224 55.6948H74.0112C74.338 55.6951 74.6567 55.5932 74.9228 55.4034C75.1889 55.2136 75.389 54.9455 75.4952 54.6364L78.956 41.2244C79.096 40.6644 78.5136 40.2052 77.64 40.2052Z" fill="white"/>
</g>
<path d="M52.4402 62.403C52.2415 62.4282 52.0397 62.4108 51.8482 62.3519C51.6568 62.2931 51.48 62.1942 51.3297 62.0617C51.1795 61.9293 51.0591 61.7664 50.9766 61.5839C50.8942 61.4013 50.8516 61.2033 50.8516 61.003C50.8516 60.8027 50.8942 60.6047 50.9766 60.4221C51.0591 60.2396 51.1795 60.0767 51.3297 59.9442C51.48 59.8118 51.6568 59.7129 51.8482 59.6541C52.0397 59.5952 52.2415 59.5778 52.4402 59.603H75.025C75.2237 59.5778 75.4255 59.5952 75.617 59.6541C75.8084 59.7129 75.9852 59.8118 76.1355 59.9442C76.2857 60.0767 76.4061 60.2396 76.4886 60.4221C76.571 60.6047 76.6136 60.8027 76.6136 61.003C76.6136 61.2033 76.571 61.4013 76.4886 61.5839C76.4061 61.7664 76.2857 61.9293 76.1355 62.0617C75.9852 62.1942 75.8084 62.2931 75.617 62.3519C75.4255 62.4108 75.2237 62.4282 75.025 62.403H52.4402Z" fill="#263238"/>
<path opacity="0.6" d="M52.4402 62.403C52.2415 62.4282 52.0397 62.4108 51.8482 62.3519C51.6568 62.2931 51.48 62.1942 51.3297 62.0617C51.1795 61.9293 51.0591 61.7664 50.9766 61.5839C50.8942 61.4013 50.8516 61.2033 50.8516 61.003C50.8516 60.8027 50.8942 60.6047 50.9766 60.4221C51.0591 60.2396 51.1795 60.0767 51.3297 59.9442C51.48 59.8118 51.6568 59.7129 51.8482 59.6541C52.0397 59.5952 52.2415 59.5778 52.4402 59.603H75.025C75.2237 59.5778 75.4255 59.5952 75.617 59.6541C75.8084 59.7129 75.9852 59.8118 76.1355 59.9442C76.2857 60.0767 76.4061 60.2396 76.4886 60.4221C76.571 60.6047 76.6136 60.8027 76.6136 61.003C76.6136 61.2033 76.571 61.4013 76.4886 61.5839C76.4061 61.7664 76.2857 61.9293 76.1355 62.0617C75.9852 62.1942 75.8084 62.2931 75.617 62.3519C75.4255 62.4108 75.2237 62.4282 75.025 62.403H52.4402Z" fill="white"/>
<path d="M106.2 37.2255L105.579 36.1055C105.477 35.9212 105.328 35.7674 105.146 35.6601C104.965 35.5528 104.759 35.4958 104.548 35.4951H95.2522C94.9403 35.4951 94.6412 35.619 94.4206 35.8396C94.2001 36.0601 94.0762 36.3592 94.0762 36.6711V54.4791C94.0754 54.6399 94.1065 54.7993 94.1675 54.948C94.2285 55.0968 94.3183 55.232 94.4318 55.346C94.5452 55.4599 94.68 55.5504 94.8285 55.6121C94.977 55.6738 95.1362 55.7055 95.297 55.7055H116.471C116.631 55.7055 116.791 55.6738 116.939 55.6121C117.088 55.5504 117.222 55.4599 117.336 55.346C117.449 55.232 117.539 55.0968 117.6 54.948C117.661 54.7993 117.692 54.6399 117.691 54.4791V38.9279C117.691 38.616 117.567 38.3169 117.347 38.0964C117.126 37.8758 116.827 37.7519 116.515 37.7519H107.113C106.927 37.7557 106.744 37.7086 106.583 37.6158C106.422 37.5231 106.29 37.3881 106.2 37.2255Z" fill="#407BFF"/>
<path opacity="0.3" d="M106.2 37.2255L105.579 36.1055C105.477 35.9212 105.328 35.7674 105.146 35.6601C104.965 35.5528 104.759 35.4958 104.548 35.4951H95.2522C94.9403 35.4951 94.6412 35.619 94.4206 35.8396C94.2001 36.0601 94.0762 36.3592 94.0762 36.6711V54.4791C94.0754 54.6399 94.1065 54.7993 94.1675 54.948C94.2285 55.0968 94.3183 55.232 94.4318 55.346C94.5452 55.4599 94.68 55.5504 94.8285 55.6121C94.977 55.6738 95.1362 55.7055 95.297 55.7055H116.471C116.631 55.7055 116.791 55.6738 116.939 55.6121C117.088 55.5504 117.222 55.4599 117.336 55.346C117.449 55.232 117.539 55.0968 117.6 54.948C117.661 54.7993 117.692 54.6399 117.691 54.4791V38.9279C117.691 38.616 117.567 38.3169 117.347 38.0964C117.126 37.8758 116.827 37.7519 116.515 37.7519H107.113C106.927 37.7557 106.744 37.7086 106.583 37.6158C106.422 37.5231 106.29 37.3881 106.2 37.2255Z" fill="white"/>
<path d="M114.751 38.4634H96.6914V51.965H114.751V38.4634Z" fill="#263238"/>
<path opacity="0.8" d="M114.751 38.4634H96.6914V51.965H114.751V38.4634Z" fill="white"/>
<path d="M116.056 39.8184H95.3867V55.2744H116.056V39.8184Z" fill="#263238"/>
<path opacity="0.9" d="M116.056 39.8184H95.3867V55.2744H116.056V39.8184Z" fill="white"/>
<path d="M119.769 40.2052H107.381C107.128 40.193 106.874 40.2335 106.637 40.3241C106.4 40.4147 106.185 40.5535 106.004 40.7317L105.192 41.706C105.048 41.8573 104.874 41.9764 104.681 42.0555C104.488 42.1347 104.28 42.1721 104.072 42.1652H91.9477C91.1133 42.1652 90.5533 42.6188 90.6933 43.1788C91.8805 47.7652 92.4685 50.0557 93.6501 54.6365C93.7571 54.9451 93.9574 55.2127 94.2233 55.4024C94.4892 55.592 94.8075 55.6943 95.1341 55.6949H116.129C116.455 55.6943 116.773 55.592 117.039 55.4024C117.305 55.2127 117.506 54.9451 117.613 54.6365L121.073 41.2244C121.213 40.6644 120.631 40.2052 119.769 40.2052Z" fill="#407BFF"/>
<g opacity="0.6">
<path d="M119.769 40.2052H107.381C107.128 40.193 106.874 40.2335 106.637 40.3241C106.4 40.4147 106.185 40.5535 106.004 40.7317L105.192 41.706C105.048 41.8573 104.874 41.9764 104.681 42.0555C104.488 42.1347 104.28 42.1721 104.072 42.1652H91.9477C91.1133 42.1652 90.5533 42.6188 90.6933 43.1788C91.8805 47.7652 92.4685 50.0557 93.6501 54.6365C93.7571 54.9451 93.9574 55.2127 94.2233 55.4024C94.4892 55.592 94.8075 55.6943 95.1341 55.6949H116.129C116.455 55.6943 116.773 55.592 117.039 55.4024C117.305 55.2127 117.506 54.9451 117.613 54.6365L121.073 41.2244C121.213 40.6644 120.631 40.2052 119.769 40.2052Z" fill="white"/>
</g>
<path d="M94.5912 62.4035C94.2504 62.3603 93.937 62.1943 93.7099 61.9365C93.4827 61.6788 93.3574 61.347 93.3574 61.0035C93.3574 60.6599 93.4827 60.3282 93.7099 60.0705C93.937 59.8127 94.2504 59.6467 94.5912 59.6035H117.176C117.375 59.5783 117.576 59.5957 117.768 59.6545C117.959 59.7134 118.136 59.8123 118.286 59.9447C118.437 60.0772 118.557 60.2401 118.64 60.4226C118.722 60.6052 118.765 60.8032 118.765 61.0035C118.765 61.2038 118.722 61.4018 118.64 61.5843C118.557 61.7669 118.437 61.9298 118.286 62.0622C118.136 62.1947 117.959 62.2936 117.768 62.3524C117.576 62.4113 117.375 62.4287 117.176 62.4035H94.5912Z" fill="#263238"/>
<path opacity="0.6" d="M94.5912 62.4035C94.2504 62.3603 93.937 62.1943 93.7099 61.9365C93.4827 61.6788 93.3574 61.347 93.3574 61.0035C93.3574 60.6599 93.4827 60.3282 93.7099 60.0705C93.937 59.8127 94.2504 59.6467 94.5912 59.6035H117.176C117.375 59.5783 117.576 59.5957 117.768 59.6545C117.959 59.7134 118.136 59.8123 118.286 59.9447C118.437 60.0772 118.557 60.2401 118.64 60.4226C118.722 60.6052 118.765 60.8032 118.765 61.0035C118.765 61.2038 118.722 61.4018 118.64 61.5843C118.557 61.7669 118.437 61.9298 118.286 62.0622C118.136 62.1947 117.959 62.2936 117.768 62.3524C117.576 62.4113 117.375 62.4287 117.176 62.4035H94.5912Z" fill="white"/>
<path d="M64.0995 82.1826L63.4779 81.0626C63.3775 80.8771 63.2287 80.7223 63.0472 80.6148C62.8657 80.5073 62.6584 80.4511 62.4475 80.4522H53.1291C52.8172 80.4522 52.5181 80.5761 52.2976 80.7966C52.077 81.0172 51.9531 81.3163 51.9531 81.6282V99.4362C51.9531 99.597 51.9849 99.7562 52.0466 99.9046C52.1083 100.053 52.1987 100.188 52.3127 100.301C52.4266 100.415 52.5619 100.505 52.7106 100.566C52.8594 100.627 53.0187 100.658 53.1795 100.657H74.3475C74.5083 100.658 74.6677 100.627 74.8164 100.566C74.9652 100.505 75.1004 100.415 75.2144 100.301C75.3283 100.188 75.4188 100.053 75.4805 99.9046C75.5422 99.7562 75.5739 99.597 75.5739 99.4362V83.8906C75.5739 83.5782 75.4502 83.2785 75.2298 83.057C75.0094 82.8356 74.7103 82.7104 74.3979 82.709H64.9955C64.8127 82.7097 64.633 82.6612 64.4754 82.5685C64.3177 82.4759 64.1879 82.3426 64.0995 82.1826Z" fill="#407BFF"/>
<path opacity="0.3" d="M64.0995 82.1826L63.4779 81.0626C63.3775 80.8771 63.2287 80.7223 63.0472 80.6148C62.8657 80.5073 62.6584 80.4511 62.4475 80.4522H53.1291C52.8172 80.4522 52.5181 80.5761 52.2976 80.7966C52.077 81.0172 51.9531 81.3163 51.9531 81.6282V99.4362C51.9531 99.597 51.9849 99.7562 52.0466 99.9046C52.1083 100.053 52.1987 100.188 52.3127 100.301C52.4266 100.415 52.5619 100.505 52.7106 100.566C52.8594 100.627 53.0187 100.658 53.1795 100.657H74.3475C74.5083 100.658 74.6677 100.627 74.8164 100.566C74.9652 100.505 75.1004 100.415 75.2144 100.301C75.3283 100.188 75.4188 100.053 75.4805 99.9046C75.5422 99.7562 75.5739 99.597 75.5739 99.4362V83.8906C75.5739 83.5782 75.4502 83.2785 75.2298 83.057C75.0094 82.8356 74.7103 82.7104 74.3979 82.709H64.9955C64.8127 82.7097 64.633 82.6612 64.4754 82.5685C64.3177 82.4759 64.1879 82.3426 64.0995 82.1826Z" fill="white"/>
<path d="M72.6284 83.4258H54.5684V96.9274H72.6284V83.4258Z" fill="#263238"/>
<path opacity="0.8" d="M72.6284 83.4258H54.5684V96.9274H72.6284V83.4258Z" fill="white"/>
<path d="M73.9333 84.7812H53.2637V100.237H73.9333V84.7812Z" fill="#263238"/>
<path opacity="0.9" d="M73.9333 84.7812H53.2637V100.237H73.9333V84.7812Z" fill="white"/>
<path d="M77.6398 85.1676H65.2582C65.0055 85.1555 64.753 85.1961 64.5168 85.2867C64.2807 85.3773 64.0659 85.516 63.8862 85.694C63.5558 86.086 63.3934 86.254 63.0742 86.6684C62.9261 86.8214 62.7471 86.941 62.5491 87.0192C62.3512 87.0974 62.1388 87.1325 61.9262 87.122H49.8302C48.9902 87.122 48.4302 87.5812 48.5758 88.1412C49.7574 92.722 50.351 95.0124 51.5326 99.5988C51.6397 99.9068 51.8402 100.174 52.1062 100.362C52.3722 100.551 52.6904 100.652 53.0166 100.652H74.0054C74.3315 100.652 74.6497 100.551 74.9157 100.362C75.1817 100.174 75.3822 99.9068 75.4894 99.5988L78.9502 86.1588C79.0958 85.6212 78.5134 85.1676 77.6398 85.1676Z" fill="#407BFF"/>
<g opacity="0.6">
<path d="M77.6398 85.1676H65.2582C65.0055 85.1555 64.753 85.1961 64.5168 85.2867C64.2807 85.3773 64.0659 85.516 63.8862 85.694C63.5558 86.086 63.3934 86.254 63.0742 86.6684C62.9261 86.8214 62.7471 86.941 62.5491 87.0192C62.3512 87.0974 62.1388 87.1325 61.9262 87.122H49.8302C48.9902 87.122 48.4302 87.5812 48.5758 88.1412C49.7574 92.722 50.351 95.0124 51.5326 99.5988C51.6397 99.9068 51.8402 100.174 52.1062 100.362C52.3722 100.551 52.6904 100.652 53.0166 100.652H74.0054C74.3315 100.652 74.6497 100.551 74.9157 100.362C75.1817 100.174 75.3822 99.9068 75.4894 99.5988L78.9502 86.1588C79.0958 85.6212 78.5134 85.1676 77.6398 85.1676Z" fill="white"/>
</g>
<path d="M52.4388 107.925C52.098 107.882 51.7847 107.716 51.5575 107.458C51.3304 107.201 51.2051 106.869 51.2051 106.525C51.2051 106.182 51.3304 105.85 51.5575 105.592C51.7847 105.335 52.098 105.169 52.4388 105.125H75.0236C75.2224 105.1 75.4241 105.118 75.6156 105.177C75.8071 105.235 75.9838 105.334 76.1341 105.467C76.2844 105.599 76.4047 105.762 76.4872 105.945C76.5696 106.127 76.6123 106.325 76.6123 106.525C76.6123 106.726 76.5696 106.924 76.4872 107.106C76.4047 107.289 76.2844 107.452 76.1341 107.584C75.9838 107.717 75.8071 107.816 75.6156 107.874C75.4241 107.933 75.2224 107.951 75.0236 107.925H52.4388Z" fill="#263238"/>
<path opacity="0.6" d="M52.4388 107.925C52.098 107.882 51.7847 107.716 51.5575 107.458C51.3304 107.201 51.2051 106.869 51.2051 106.525C51.2051 106.182 51.3304 105.85 51.5575 105.592C51.7847 105.335 52.098 105.169 52.4388 105.125H75.0236C75.2224 105.1 75.4241 105.118 75.6156 105.177C75.8071 105.235 75.9838 105.334 76.1341 105.467C76.2844 105.599 76.4047 105.762 76.4872 105.945C76.5696 106.127 76.6123 106.325 76.6123 106.525C76.6123 106.726 76.5696 106.924 76.4872 107.106C76.4047 107.289 76.2844 107.452 76.1341 107.584C75.9838 107.717 75.8071 107.816 75.6156 107.874C75.4241 107.933 75.2224 107.951 75.0236 107.925H52.4388Z" fill="white"/>
<path d="M106.2 82.1825L105.579 81.0625C105.478 80.8774 105.329 80.723 105.147 80.6156C104.966 80.5081 104.759 80.4517 104.548 80.4522H95.2522C94.9403 80.4522 94.6412 80.5761 94.4206 80.7966C94.2001 81.0171 94.0762 81.3163 94.0762 81.6282V99.4362C94.0754 99.5967 94.1065 99.7558 94.1676 99.9042C94.2287 100.053 94.3186 100.188 94.4321 100.301C94.5456 100.415 94.6805 100.504 94.8289 100.566C94.9774 100.627 95.1365 100.658 95.297 100.657H116.471C116.631 100.658 116.79 100.627 116.939 100.566C117.087 100.504 117.222 100.415 117.335 100.301C117.449 100.188 117.539 100.053 117.6 99.9042C117.661 99.7558 117.692 99.5967 117.691 99.4362V83.8906C117.691 83.5781 117.568 83.2784 117.347 83.057C117.127 82.8356 116.828 82.7104 116.515 82.709H107.113C106.927 82.7127 106.744 82.6656 106.583 82.5729C106.422 82.4801 106.29 82.3451 106.2 82.1825Z" fill="#407BFF"/>
<path opacity="0.3" d="M106.2 82.1825L105.579 81.0625C105.478 80.8774 105.329 80.723 105.147 80.6156C104.966 80.5081 104.759 80.4517 104.548 80.4522H95.2522C94.9403 80.4522 94.6412 80.5761 94.4206 80.7966C94.2001 81.0171 94.0762 81.3163 94.0762 81.6282V99.4362C94.0754 99.5967 94.1065 99.7558 94.1676 99.9042C94.2287 100.053 94.3186 100.188 94.4321 100.301C94.5456 100.415 94.6805 100.504 94.8289 100.566C94.9774 100.627 95.1365 100.658 95.297 100.657H116.471C116.631 100.658 116.79 100.627 116.939 100.566C117.087 100.504 117.222 100.415 117.335 100.301C117.449 100.188 117.539 100.053 117.6 99.9042C117.661 99.7558 117.692 99.5967 117.691 99.4362V83.8906C117.691 83.5781 117.568 83.2784 117.347 83.057C117.127 82.8356 116.828 82.7104 116.515 82.709H107.113C106.927 82.7127 106.744 82.6656 106.583 82.5729C106.422 82.4801 106.29 82.3451 106.2 82.1825Z" fill="white"/>
<path d="M114.751 83.4258H96.6914V96.9274H114.751V83.4258Z" fill="#263238"/>
<path opacity="0.8" d="M114.751 83.4258H96.6914V96.9274H114.751V83.4258Z" fill="white"/>
<path d="M116.056 84.7812H95.3867V100.237H116.056V84.7812Z" fill="#263238"/>
<path opacity="0.9" d="M116.056 84.7812H95.3867V100.237H116.056V84.7812Z" fill="white"/>
<path d="M119.769 85.1677H107.381C107.128 85.1554 106.874 85.1959 106.637 85.2865C106.4 85.3771 106.185 85.5159 106.004 85.6941C105.673 86.0861 105.511 86.254 105.192 86.6684C105.047 86.8181 104.873 86.9358 104.68 87.0139C104.487 87.092 104.28 87.1289 104.072 87.122H91.9477C91.1133 87.122 90.5533 87.5813 90.6933 88.1413C91.8805 92.7221 92.4685 95.0125 93.6501 99.5989C93.758 99.9064 93.9587 100.173 94.2245 100.361C94.4904 100.55 94.8082 100.651 95.1341 100.652H116.129C116.454 100.651 116.772 100.55 117.038 100.361C117.304 100.173 117.505 99.9064 117.613 99.5989L121.073 86.1589C121.213 85.6213 120.631 85.1677 119.769 85.1677Z" fill="#407BFF"/>
<g opacity="0.6">
<path d="M119.769 85.1677H107.381C107.128 85.1554 106.874 85.1959 106.637 85.2865C106.4 85.3771 106.185 85.5159 106.004 85.6941C105.673 86.0861 105.511 86.254 105.192 86.6684C105.047 86.8181 104.873 86.9358 104.68 87.0139C104.487 87.092 104.28 87.1289 104.072 87.122H91.9477C91.1133 87.122 90.5533 87.5813 90.6933 88.1413C91.8805 92.7221 92.4685 95.0125 93.6501 99.5989C93.758 99.9064 93.9587 100.173 94.2245 100.361C94.4904 100.55 94.8082 100.651 95.1341 100.652H116.129C116.454 100.651 116.772 100.55 117.038 100.361C117.304 100.173 117.505 99.9064 117.613 99.5989L121.073 86.1589C121.213 85.6213 120.631 85.1677 119.769 85.1677Z" fill="white"/>
</g>
<path d="M94.5912 107.926C94.2504 107.883 93.937 107.717 93.7099 107.459C93.4827 107.201 93.3574 106.87 93.3574 106.526C93.3574 106.182 93.4827 105.851 93.7099 105.593C93.937 105.335 94.2504 105.169 94.5912 105.126H117.176C117.517 105.169 117.83 105.335 118.057 105.593C118.284 105.851 118.41 106.182 118.41 106.526C118.41 106.87 118.284 107.201 118.057 107.459C117.83 107.717 117.517 107.883 117.176 107.926H94.5912Z" fill="#263238"/>
<path opacity="0.6" d="M94.5912 107.926C94.2504 107.883 93.937 107.717 93.7099 107.459C93.4827 107.201 93.3574 106.87 93.3574 106.526C93.3574 106.182 93.4827 105.851 93.7099 105.593C93.937 105.335 94.2504 105.169 94.5912 105.126H117.176C117.517 105.169 117.83 105.335 118.057 105.593C118.284 105.851 118.41 106.182 118.41 106.526C118.41 106.87 118.284 107.201 118.057 107.459C117.83 107.717 117.517 107.883 117.176 107.926H94.5912Z" fill="white"/>
<path d="M147.393 82.1826L146.772 81.0626C146.67 80.877 146.52 80.7224 146.338 80.6149C146.155 80.5075 145.947 80.4513 145.736 80.4522H136.44C136.285 80.4522 136.132 80.4826 135.99 80.5417C135.847 80.6008 135.717 80.6874 135.608 80.7966C135.499 80.9058 135.412 81.0354 135.353 81.1781C135.294 81.3208 135.264 81.4737 135.264 81.6282V99.4362C135.263 99.5967 135.294 99.7558 135.355 99.9042C135.416 100.053 135.506 100.188 135.62 100.301C135.733 100.415 135.868 100.504 136.016 100.566C136.165 100.627 136.324 100.658 136.484 100.657H157.658C157.982 100.657 158.292 100.528 158.521 100.299C158.75 100.07 158.879 99.7599 158.879 99.4362V83.8906C158.879 83.5781 158.755 83.2785 158.535 83.057C158.314 82.8356 158.015 82.7104 157.703 82.709H148.284C148.102 82.7086 147.923 82.6597 147.767 82.5671C147.61 82.4745 147.481 82.3418 147.393 82.1826Z" fill="#407BFF"/>
<path opacity="0.3" d="M147.393 82.1826L146.772 81.0626C146.67 80.877 146.52 80.7224 146.338 80.6149C146.155 80.5075 145.947 80.4513 145.736 80.4522H136.44C136.285 80.4522 136.132 80.4826 135.99 80.5417C135.847 80.6008 135.717 80.6874 135.608 80.7966C135.499 80.9058 135.412 81.0354 135.353 81.1781C135.294 81.3208 135.264 81.4737 135.264 81.6282V99.4362C135.263 99.5967 135.294 99.7558 135.355 99.9042C135.416 100.053 135.506 100.188 135.62 100.301C135.733 100.415 135.868 100.504 136.016 100.566C136.165 100.627 136.324 100.658 136.484 100.657H157.658C157.982 100.657 158.292 100.528 158.521 100.299C158.75 100.07 158.879 99.7599 158.879 99.4362V83.8906C158.879 83.5781 158.755 83.2785 158.535 83.057C158.314 82.8356 158.015 82.7104 157.703 82.709H148.284C148.102 82.7086 147.923 82.6597 147.767 82.5671C147.61 82.4745 147.481 82.3418 147.393 82.1826Z" fill="white"/>
<path d="M155.921 83.4258H137.861V96.9274H155.921V83.4258Z" fill="#263238"/>
<path opacity="0.8" d="M155.921 83.4258H137.861V96.9274H155.921V83.4258Z" fill="white"/>
<path d="M157.226 84.7812H136.557V100.237H157.226V84.7812Z" fill="#263238"/>
<path opacity="0.9" d="M157.226 84.7812H136.557V100.237H157.226V84.7812Z" fill="white"/>
<path d="M160.94 85.1672H148.553C148.3 85.155 148.046 85.1954 147.809 85.286C147.572 85.3766 147.356 85.5154 147.176 85.6936C146.845 86.0856 146.683 86.2536 146.364 86.668C146.219 86.8176 146.045 86.9353 145.852 87.0134C145.659 87.0916 145.452 87.1284 145.244 87.1216H133.12C132.285 87.1216 131.725 87.5808 131.865 88.1408C133.052 92.7216 133.64 95.012 134.822 99.5984C134.93 99.9059 135.131 100.172 135.396 100.361C135.662 100.55 135.98 100.651 136.306 100.651H157.295C157.622 100.652 157.941 100.551 158.208 100.363C158.475 100.174 158.676 99.9068 158.784 99.5984C159.934 95.1184 161.086 90.6384 162.24 86.1584C162.385 85.6208 161.803 85.1672 160.94 85.1672Z" fill="#407BFF"/>
<g opacity="0.6">
<path d="M160.94 85.1672H148.553C148.3 85.155 148.046 85.1954 147.809 85.286C147.572 85.3766 147.356 85.5154 147.176 85.6936C146.845 86.0856 146.683 86.2536 146.364 86.668C146.219 86.8176 146.045 86.9353 145.852 87.0134C145.659 87.0916 145.452 87.1284 145.244 87.1216H133.12C132.285 87.1216 131.725 87.5808 131.865 88.1408C133.052 92.7216 133.64 95.012 134.822 99.5984C134.93 99.9059 135.131 100.172 135.396 100.361C135.662 100.55 135.98 100.651 136.306 100.651H157.295C157.622 100.652 157.941 100.551 158.208 100.363C158.475 100.174 158.676 99.9068 158.784 99.5984C159.934 95.1184 161.086 90.6384 162.24 86.1584C162.385 85.6208 161.803 85.1672 160.94 85.1672Z" fill="white"/>
</g>
<path d="M135.763 107.926C135.422 107.883 135.109 107.717 134.882 107.459C134.655 107.201 134.529 106.87 134.529 106.526C134.529 106.182 134.655 105.851 134.882 105.593C135.109 105.335 135.422 105.169 135.763 105.126H158.348C158.689 105.169 159.002 105.335 159.229 105.593C159.456 105.851 159.582 106.182 159.582 106.526C159.582 106.87 159.456 107.201 159.229 107.459C159.002 107.717 158.689 107.883 158.348 107.926H135.763Z" fill="#263238"/>
<path opacity="0.6" d="M135.763 107.926C135.422 107.883 135.109 107.717 134.882 107.459C134.655 107.201 134.529 106.87 134.529 106.526C134.529 106.182 134.655 105.851 134.882 105.593C135.109 105.335 135.422 105.169 135.763 105.126H158.348C158.689 105.169 159.002 105.335 159.229 105.593C159.456 105.851 159.582 106.182 159.582 106.526C159.582 106.87 159.456 107.201 159.229 107.459C159.002 107.717 158.689 107.883 158.348 107.926H135.763Z" fill="white"/>
<path d="M135.471 62.403C135.273 62.4282 135.071 62.4108 134.879 62.3519C134.688 62.2931 134.511 62.1942 134.361 62.0617C134.211 61.9293 134.09 61.7664 134.008 61.5839C133.925 61.4013 133.883 61.2033 133.883 61.003C133.883 60.8027 133.925 60.6047 134.008 60.4221C134.09 60.2396 134.211 60.0767 134.361 59.9442C134.511 59.8118 134.688 59.7129 134.879 59.6541C135.071 59.5952 135.273 59.5778 135.471 59.603H158.056C158.255 59.5778 158.457 59.5952 158.648 59.6541C158.84 59.7129 159.016 59.8118 159.167 59.9442C159.317 60.0767 159.437 60.2396 159.52 60.4221C159.602 60.6047 159.645 60.8027 159.645 61.003C159.645 61.2033 159.602 61.4013 159.52 61.5839C159.437 61.7664 159.317 61.9293 159.167 62.0617C159.016 62.1942 158.84 62.2931 158.648 62.3519C158.457 62.4108 158.255 62.4282 158.056 62.403H135.471Z" fill="#263238"/>
<path opacity="0.6" d="M135.471 62.403C135.273 62.4282 135.071 62.4108 134.879 62.3519C134.688 62.2931 134.511 62.1942 134.361 62.0617C134.211 61.9293 134.09 61.7664 134.008 61.5839C133.925 61.4013 133.883 61.2033 133.883 61.003C133.883 60.8027 133.925 60.6047 134.008 60.4221C134.09 60.2396 134.211 60.0767 134.361 59.9442C134.511 59.8118 134.688 59.7129 134.879 59.6541C135.071 59.5952 135.273 59.5778 135.471 59.603H158.056C158.255 59.5778 158.457 59.5952 158.648 59.6541C158.84 59.7129 159.016 59.8118 159.167 59.9442C159.317 60.0767 159.437 60.2396 159.52 60.4221C159.602 60.6047 159.645 60.8027 159.645 61.003C159.645 61.2033 159.602 61.4013 159.52 61.5839C159.437 61.7664 159.317 61.9293 159.167 62.0617C159.016 62.1942 158.84 62.2931 158.648 62.3519C158.457 62.4108 158.255 62.4282 158.056 62.403H135.471Z" fill="white"/>
<path d="M134.699 56.193L139.515 70.2826C139.645 70.5916 139.862 70.8563 140.139 71.0451C140.416 71.2338 140.742 71.3385 141.077 71.3466H150.552C150.738 71.3651 150.925 71.3196 151.082 71.2179C151.238 71.1161 151.356 70.964 151.415 70.7866L151.695 69.7618C151.746 69.6091 151.847 69.4782 151.983 69.3907C152.118 69.3032 152.279 69.2643 152.439 69.2802H161.999C162.134 69.3003 162.273 69.284 162.401 69.2332C162.528 69.1823 162.64 69.0986 162.725 68.9905C162.809 68.8825 162.864 68.7539 162.883 68.618C162.902 68.482 162.885 68.3434 162.833 68.2162L158.723 56.1818L158.661 53.8298V35.725C158.661 35.4087 158.535 35.1053 158.312 34.8816C158.088 34.6579 157.785 34.5322 157.468 34.5322H147.993C147.779 34.5311 147.569 34.5877 147.385 34.6961C147.2 34.8046 147.049 34.9608 146.946 35.1482L146.313 36.3018C146.223 36.4634 146.091 36.598 145.932 36.6915C145.772 36.7851 145.591 36.8342 145.406 36.8338H135.841C135.523 36.8338 135.218 36.9601 134.994 37.1849C134.769 37.4096 134.643 37.7144 134.643 38.0322V53.841L134.699 56.193Z" fill="#407BFF"/>
<path opacity="0.6" d="M134.699 56.193L139.515 70.2826C139.645 70.5916 139.862 70.8563 140.139 71.0451C140.416 71.2338 140.742 71.3385 141.077 71.3466H150.552C150.738 71.3651 150.925 71.3196 151.082 71.2179C151.238 71.1161 151.356 70.964 151.415 70.7866L151.695 69.7618C151.746 69.6091 151.847 69.4782 151.983 69.3907C152.118 69.3032 152.279 69.2643 152.439 69.2802H161.999C162.134 69.3003 162.273 69.284 162.401 69.2332C162.528 69.1823 162.64 69.0986 162.725 68.9905C162.809 68.8825 162.864 68.7539 162.883 68.618C162.902 68.482 162.885 68.3434 162.833 68.2162L158.723 56.1818L158.661 53.8298V35.725C158.661 35.4087 158.535 35.1053 158.312 34.8816C158.088 34.6579 157.785 34.5322 157.468 34.5322H147.993C147.779 34.5311 147.569 34.5877 147.385 34.6961C147.2 34.8046 147.049 34.9608 146.946 35.1482L146.313 36.3018C146.223 36.4634 146.091 36.598 145.932 36.6915C145.772 36.7851 145.591 36.8342 145.406 36.8338H135.841C135.523 36.8338 135.218 36.9601 134.994 37.1849C134.769 37.4096 134.643 37.7144 134.643 38.0322V53.841L134.699 56.193Z" fill="white"/>
<path d="M134.697 56.1928L139.513 70.2824C139.644 70.5914 139.86 70.8561 140.138 71.0449C140.415 71.2336 140.74 71.3383 141.076 71.3464H150.551C150.737 71.3648 150.924 71.3194 151.08 71.2177C151.237 71.1159 151.354 70.9638 151.413 70.7864L151.693 69.7616C151.744 69.6089 151.846 69.478 151.981 69.3905C152.117 69.303 152.278 69.2641 152.438 69.28H161.997C162.133 69.3001 162.272 69.2838 162.399 69.233C162.527 69.1821 162.639 69.0984 162.723 68.9903C162.808 68.8823 162.863 68.7537 162.882 68.6178C162.901 68.4818 162.884 68.3432 162.832 68.216L158.721 56.1816L134.697 56.1928Z" fill="#407BFF"/>
<path opacity="0.3" d="M134.697 56.1928L139.513 70.2824C139.644 70.5914 139.86 70.8561 140.138 71.0449C140.415 71.2336 140.74 71.3383 141.076 71.3464H150.551C150.737 71.3648 150.924 71.3194 151.08 71.2177C151.237 71.1159 151.354 70.9638 151.413 70.7864L151.693 69.7616C151.744 69.6089 151.846 69.478 151.981 69.3905C152.117 69.303 152.278 69.2641 152.438 69.28H161.997C162.133 69.3001 162.272 69.2838 162.399 69.233C162.527 69.1821 162.639 69.0984 162.723 68.9903C162.808 68.8823 162.863 68.7537 162.882 68.6178C162.901 68.4818 162.884 68.3432 162.832 68.216L158.721 56.1816L134.697 56.1928Z" fill="white"/>
<path opacity="0.1" d="M137.016 56.1934H156.509L160.065 66.2118H140.572L137.016 56.1934Z" fill="black"/>
<path d="M137.016 56.1934H156.51V40.3958H137.016V56.1934Z" fill="#263238"/>
<path opacity="0.8" d="M137.016 56.1934H156.51V40.3958H137.016V56.1934Z" fill="white"/>
<path d="M137.016 56.1934H156.509L160.463 44.8086H140.964L137.016 56.1934Z" fill="#263238"/>
<path opacity="0.9" d="M137.016 56.1934H156.509L160.463 44.8086H140.964L137.016 56.1934Z" fill="white"/>
<path d="M137.016 56.1934H156.509L160.463 64.6326H140.964L137.016 56.1934Z" fill="#263238"/>
<path opacity="0.9" d="M137.016 56.1934H156.509L160.463 64.6326H140.964L137.016 56.1934Z" fill="white"/>
<path d="M137.016 56.1935H156.509L162.888 51.8535H143.388L137.016 56.1935Z" fill="#263238"/>
<path opacity="0.8" d="M137.016 56.1935H156.509L162.888 51.8535H143.388L137.016 56.1935Z" fill="white"/>
<path d="M29.6474 154.82C30.129 147.221 33.461 139.532 38.8202 134.313C40.1586 133.013 42.9698 130.437 40.6906 129.077C38.0866 127.52 33.0914 134.789 32.3914 136.133C33.8698 130.342 38.3498 126.148 43.2106 123.745C45.613 122.558 47.9034 121.433 45.3442 119.669C42.785 117.905 37.2466 122.183 35.9642 124.02C38.9994 119.781 42.8354 115.536 46.7666 112.999C51.1066 110.199 49.1466 105.529 44.6722 109.141C41.9002 111.381 37.3418 116.981 37.3418 116.981C37.3418 116.981 44.5042 102.594 42.3426 101.301C39.5426 99.6206 34.637 119.221 33.2818 123.085C33.6458 119.881 33.9874 112.131 31.6018 111.795C29.4234 111.493 29.9554 130.79 29.4514 134.195C29.1322 135.679 28.9866 136.435 28.7346 137.93C28.4994 135.36 27.0546 128.584 24.893 129.368C23.0562 130.029 24.193 135.102 24.669 137.51C25.8226 143.34 26.9874 148.979 26.9986 154.96L29.6474 154.82Z" fill="#407BFF"/>
<path opacity="0.4" d="M31.9721 115.53C32.2969 119.719 32.5881 123.975 32.1849 128.186C33.0465 125.742 34.043 123.347 35.1697 121.013C35.1827 120.973 35.2016 120.935 35.2257 120.901C35.5617 120.201 35.9089 119.506 36.2729 118.818C36.4185 118.543 36.7769 118.666 36.7265 118.924C39.3809 115.564 42.5897 112.484 46.4089 110.524C46.6889 110.378 46.8793 110.804 46.6105 110.955C42.1753 113.464 38.8769 116.998 35.6121 121.181C34.2344 123.974 33.0664 126.866 32.1177 129.833C34.5275 126.037 38.2388 123.249 42.5561 121.993C42.8473 121.903 43.0097 122.351 42.7185 122.446C36.8105 124.311 32.6385 128.444 30.9585 133.859C30.9479 133.902 30.9288 133.942 30.9025 133.977C30.0793 137.438 29.4521 140.798 28.9705 144.326C30.6505 139.358 34.2289 134.974 38.3505 131.894C38.5969 131.709 38.8209 132.134 38.5745 132.319C33.8296 135.885 30.3834 140.906 28.7633 146.616C28.7633 146.616 28.7633 146.616 28.7633 146.644C28.5841 148.884 28.5057 151.124 28.5281 153.364C28.5334 153.398 28.5313 153.432 28.522 153.465C28.5127 153.497 28.4965 153.527 28.4744 153.553C28.4523 153.579 28.4249 153.6 28.3941 153.614C28.3632 153.628 28.3297 153.635 28.2957 153.635C28.2618 153.635 28.2283 153.628 28.1974 153.614C28.1666 153.6 28.1392 153.579 28.1171 153.553C28.095 153.527 28.0788 153.497 28.0695 153.465C28.0602 153.432 28.0581 153.398 28.0633 153.364C28.0991 145.855 29.154 138.385 31.1993 131.16C32.2857 126.07 31.8937 120.755 31.4849 115.631C31.4569 115.278 31.9441 115.183 31.9721 115.53Z" fill="white"/>
<path d="M29.0874 154.814C28.5274 145.798 24.5682 136.676 18.2066 130.488C16.6218 128.948 13.2898 125.89 15.9666 124.278C19.0522 122.435 24.9826 131.054 25.8058 132.644C24.0586 125.778 18.7386 120.806 12.9762 117.955C10.1258 116.544 7.40985 115.217 10.445 113.122C13.4802 111.028 20.0546 116.107 21.5666 118.28C17.9658 113.24 13.4186 108.2 8.75944 105.21C3.61304 101.894 5.95944 96.3503 11.2402 100.634C14.561 103.289 19.9594 109.914 19.9594 109.914C19.9594 109.914 11.4698 92.8559 14.0346 91.2879C17.3274 89.2719 23.1682 112.568 24.7754 117.121C24.3498 113.324 23.9466 104.129 26.8026 103.731C29.3842 103.373 28.7514 126.254 29.3506 130.298C29.7314 132.062 29.9106 132.946 30.1962 134.727C30.4818 131.681 32.1786 123.645 34.7602 124.574C36.933 125.358 35.589 131.373 35.0234 134.229C33.6514 141.139 32.2682 147.831 32.2626 154.921L29.0874 154.814Z" fill="#407BFF"/>
<path opacity="0.2" d="M26.332 108.2C25.9512 113.173 25.604 118.213 26.08 123.208C25.0593 120.311 23.8777 117.473 22.5408 114.707C22.5273 114.66 22.5065 114.614 22.4792 114.573C22.076 113.744 21.6672 112.921 21.2416 112.109C21.068 111.778 20.6368 111.93 20.6816 112.232C17.5344 108.228 13.732 104.594 9.20159 102.253C8.86559 102.079 8.64159 102.589 8.96079 102.768C14.2192 105.742 18.128 109.936 22.0088 114.898C23.6385 118.212 25.0235 121.641 26.1528 125.157C23.3065 120.649 18.9144 117.334 13.7992 115.833C13.452 115.726 13.2392 116.258 13.6032 116.365C20.6144 118.577 25.5312 123.482 27.5528 129.906C27.5703 129.955 27.5948 130.003 27.6256 130.046C28.6 134.15 29.3392 138.138 29.916 142.315C27.9336 136.43 23.6776 131.222 18.7944 127.576C18.4976 127.352 18.2344 127.862 18.5256 128.08C24.1523 132.31 28.2394 138.265 30.1624 145.037C30.1624 145.037 30.1624 145.037 30.1624 145.065C30.3752 147.708 30.4685 150.362 30.4424 153.028C30.4424 153.102 30.4719 153.174 30.5244 153.226C30.5769 153.279 30.6481 153.308 30.7224 153.308C30.7967 153.308 30.8679 153.279 30.9204 153.226C30.9729 153.174 31.0024 153.102 31.0024 153.028C30.9429 144.138 29.6769 135.297 27.2392 126.747C25.9512 120.716 26.416 114.427 26.9032 108.329C26.9424 107.914 26.3656 107.797 26.332 108.2Z" fill="white"/>
<path d="M29.0874 154.814C28.5274 145.798 24.5682 136.676 18.2066 130.488C16.6218 128.948 13.2898 125.89 15.9666 124.278C19.0522 122.435 24.9826 131.054 25.8058 132.644C24.0586 125.778 18.7386 120.806 12.9762 117.955C10.1258 116.544 7.40985 115.217 10.445 113.122C13.4802 111.028 20.0546 116.107 21.5666 118.28C17.9658 113.24 13.4186 108.2 8.75944 105.21C3.61304 101.894 5.95944 96.3503 11.2402 100.634C14.561 103.289 19.9594 109.914 19.9594 109.914C19.9594 109.914 11.4698 92.8559 14.0346 91.2879C17.3274 89.2719 23.1682 112.568 24.7754 117.121C24.3498 113.324 23.9466 104.129 26.8026 103.731C29.3842 103.373 28.7514 126.254 29.3506 130.298C29.7314 132.062 29.9106 132.946 30.1962 134.727C30.4818 131.681 32.1786 123.645 34.7602 124.574C36.933 125.358 35.589 131.373 35.0234 134.229C33.6514 141.139 32.2682 147.831 32.2626 154.921L29.0874 154.814Z" fill="#407BFF"/>
<path opacity="0.2" d="M29.0874 154.814C28.5274 145.798 24.5682 136.676 18.2066 130.488C16.6218 128.948 13.2898 125.89 15.9666 124.278C19.0522 122.435 24.9826 131.054 25.8058 132.644C24.0586 125.778 18.7386 120.806 12.9762 117.955C10.1258 116.544 7.40985 115.217 10.445 113.122C13.4802 111.028 20.0546 116.107 21.5666 118.28C17.9658 113.24 13.4186 108.2 8.75944 105.21C3.61304 101.894 5.95944 96.3503 11.2402 100.634C14.561 103.289 19.9594 109.914 19.9594 109.914C19.9594 109.914 11.4698 92.8559 14.0346 91.2879C17.3274 89.2719 23.1682 112.568 24.7754 117.121C24.3498 113.324 23.9466 104.129 26.8026 103.731C29.3842 103.373 28.7514 126.254 29.3506 130.298C29.7314 132.062 29.9106 132.946 30.1962 134.727C30.4818 131.681 32.1786 123.645 34.7602 124.574C36.933 125.358 35.589 131.373 35.0234 134.229C33.6514 141.139 32.2682 147.831 32.2626 154.921L29.0874 154.814Z" fill="white"/>
<path opacity="0.5" d="M26.332 108.2C25.9512 113.173 25.604 118.213 26.08 123.208C25.0593 120.311 23.8777 117.473 22.5408 114.707C22.5273 114.66 22.5065 114.614 22.4792 114.573C22.076 113.744 21.6672 112.921 21.2416 112.109C21.068 111.778 20.6368 111.93 20.6816 112.232C17.5344 108.228 13.732 104.594 9.20159 102.253C8.86559 102.079 8.64159 102.589 8.96079 102.768C14.2192 105.742 18.128 109.936 22.0088 114.898C23.6385 118.212 25.0235 121.641 26.1528 125.157C23.3065 120.649 18.9144 117.334 13.7992 115.833C13.452 115.726 13.2392 116.258 13.6032 116.365C20.6144 118.577 25.5312 123.482 27.5528 129.906C27.5703 129.955 27.5948 130.003 27.6256 130.046C28.6 134.15 29.3392 138.138 29.916 142.315C27.9336 136.43 23.6776 131.222 18.7944 127.576C18.4976 127.352 18.2344 127.862 18.5256 128.08C24.1523 132.31 28.2394 138.265 30.1624 145.037C30.1624 145.037 30.1624 145.037 30.1624 145.065C30.3752 147.708 30.4685 150.362 30.4424 153.028C30.4424 153.102 30.4719 153.174 30.5244 153.226C30.5769 153.279 30.6481 153.308 30.7224 153.308C30.7967 153.308 30.8679 153.279 30.9204 153.226C30.9729 153.174 31.0024 153.102 31.0024 153.028C30.9429 144.138 29.6769 135.297 27.2392 126.747C25.9512 120.716 26.416 114.427 26.9032 108.329C26.9424 107.914 26.3656 107.797 26.332 108.2Z" fill="white"/>
<path d="M38.3435 153.588H20.8267C20.2816 153.588 19.7589 153.804 19.3734 154.19C18.988 154.575 18.7715 155.098 18.7715 155.643V156.55C18.773 157.094 18.9902 157.616 19.3754 158C19.7607 158.384 20.2826 158.6 20.8267 158.6L22.8427 173.16H36.3275L38.3435 158.6C38.6138 158.601 38.8817 158.548 39.1317 158.445C39.3817 158.342 39.6089 158.191 39.8004 158C39.9918 157.809 40.1437 157.582 40.2473 157.332C40.3509 157.083 40.4043 156.815 40.4043 156.545V155.638C40.4036 155.368 40.3497 155.101 40.2457 154.851C40.1417 154.602 39.9897 154.376 39.7984 154.186C39.607 153.996 39.38 153.845 39.1304 153.742C38.8808 153.64 38.6134 153.587 38.3435 153.588Z" fill="#407BFF"/>
<path opacity="0.2" d="M38.3435 153.588H20.8267C20.2816 153.588 19.7589 153.804 19.3734 154.19C18.988 154.575 18.7715 155.098 18.7715 155.643V156.55C18.773 157.094 18.9902 157.616 19.3754 158C19.7607 158.384 20.2826 158.6 20.8267 158.6L22.8427 173.16H36.3275L38.3435 158.6C38.6138 158.601 38.8817 158.548 39.1317 158.445C39.3817 158.342 39.6089 158.191 39.8004 158C39.9918 157.809 40.1437 157.582 40.2473 157.332C40.3509 157.083 40.4043 156.815 40.4043 156.545V155.638C40.4036 155.368 40.3497 155.101 40.2457 154.851C40.1417 154.602 39.9897 154.376 39.7984 154.186C39.607 153.996 39.38 153.845 39.1304 153.742C38.8808 153.64 38.6134 153.587 38.3435 153.588Z" fill="black"/>
<path opacity="0.2" d="M37.9308 161.607L38.3396 158.65H20.834L21.2428 161.607H37.9308Z" fill="black"/>
<path d="M186.727 52.8164C186.727 52.8164 196.757 61.4404 196.757 66.5532C196.757 71.2516 186.794 76.286 182.415 76.9356C181.048 77.0139 179.677 77.0139 178.31 76.9356C177.847 76.9357 177.396 76.7926 177.018 76.5259C176.64 76.2592 176.354 75.8819 176.199 75.446L176.149 75.3004C176.004 74.9046 175.977 74.4758 176.069 74.0649C176.161 73.6539 176.37 73.2781 176.669 72.982C177.148 72.481 177.767 72.1357 178.445 71.9908C180.024 71.7444 182.247 73.9676 182.247 73.9676C182.247 73.9676 191.974 68.1156 191.974 67.046C191.974 65.9764 187.528 62.4708 186.206 60.5332C185.092 58.9204 183.949 56.5516 186.727 52.8164Z" fill="#B97964"/>
<path d="M186.98 52.3347C187.955 52.8947 190.144 54.5747 193.7 59.2787C193.7 59.2787 193.571 61.8323 189.024 64.2123C189.024 64.2123 184.18 60.4883 184.225 56.8987C184.194 56.0838 184.327 55.271 184.616 54.5083C184.904 53.7456 185.343 53.0484 185.905 52.4579C186.048 52.3254 186.229 52.242 186.422 52.2198C186.616 52.1976 186.811 52.2379 186.98 52.3347Z" fill="#407BFF"/>
<path opacity="0.2" d="M185.955 61.1265C186.852 62.2679 187.876 63.3031 189.007 64.2121L189.365 64.0162C189.83 58.5282 188.1 55.0562 188.1 55.0562L186.386 57.3969L185.955 61.1265Z" fill="black"/>
<path opacity="0.2" d="M182.6 76.902C184.982 76.3855 187.273 75.5173 189.399 74.326C188.48 73.654 188.206 71.3188 188.133 70.2324C185.636 71.9124 182.78 73.6484 182.32 73.9284L182.6 76.902Z" fill="#606060"/>
<path d="M188.363 64.0608C188.363 64.0608 192.406 61.8712 193.683 58.584L194.439 59.8608C193.327 62.1047 191.45 63.8779 189.147 64.8616L188.363 64.0608Z" fill="#407BFF"/>
<path opacity="0.5" d="M188.363 64.0608C188.363 64.0608 192.406 61.8712 193.683 58.584L194.439 59.8608C193.327 62.1047 191.45 63.8779 189.147 64.8616L188.363 64.0608Z" fill="white"/>
<path d="M183.553 60.315L182.993 59.5926C182.901 59.474 182.778 59.3823 182.638 59.3271C182.499 59.272 182.346 59.2554 182.198 59.279L175.64 60.315C175.531 60.3321 175.426 60.3706 175.332 60.4282C175.237 60.4859 175.155 60.5617 175.09 60.6512C175.025 60.7407 174.978 60.8422 174.953 60.9498C174.927 61.0574 174.923 61.169 174.94 61.2782L176.928 73.811C176.964 74.0397 177.089 74.2447 177.276 74.3812C177.463 74.5177 177.696 74.5745 177.925 74.539L192.827 72.1758C193.055 72.14 193.26 72.0149 193.397 71.828C193.533 71.6411 193.59 71.4077 193.555 71.179L191.819 60.2366C191.783 60.018 191.662 59.8224 191.483 59.6923C191.304 59.5623 191.08 59.5083 190.861 59.5422L184.242 60.6006C184.112 60.6196 183.979 60.603 183.858 60.5527C183.737 60.5024 183.632 60.4203 183.553 60.315Z" fill="#407BFF"/>
<path opacity="0.4" d="M183.553 60.315L182.993 59.5926C182.901 59.474 182.778 59.3823 182.638 59.3271C182.499 59.272 182.346 59.2554 182.198 59.279L175.64 60.315C175.531 60.3321 175.426 60.3706 175.332 60.4282C175.237 60.4859 175.155 60.5617 175.09 60.6512C175.025 60.7407 174.978 60.8422 174.953 60.9498C174.927 61.0574 174.923 61.169 174.94 61.2782L176.928 73.811C176.964 74.0397 177.089 74.2447 177.276 74.3812C177.463 74.5177 177.696 74.5745 177.925 74.539L192.827 72.1758C193.055 72.14 193.26 72.0149 193.397 71.828C193.533 71.6411 193.59 71.4077 193.555 71.179L191.819 60.2366C191.783 60.018 191.662 59.8224 191.483 59.6923C191.304 59.5623 191.08 59.5083 190.861 59.5422L184.242 60.6006C184.112 60.6196 183.979 60.603 183.858 60.5527C183.737 60.5024 183.632 60.4203 183.553 60.315Z" fill="white"/>
<path d="M190.861 59.542L184.303 60.6004C184.153 60.6267 184.013 60.6924 183.897 60.7908C183.781 60.8892 183.693 61.0168 183.642 61.1604L183.334 62.0285C183.289 62.1484 183.214 62.2547 183.116 62.3371C183.018 62.4195 182.9 62.4752 182.774 62.4988L176.155 63.546C175.935 63.5805 175.738 63.7007 175.607 63.8802C175.476 64.0597 175.421 64.2839 175.455 64.5036L176.939 73.8501C176.975 74.0787 177.1 74.2837 177.287 74.4202C177.474 74.5567 177.707 74.6135 177.936 74.5781L192.837 72.2149C193.066 72.179 193.271 72.0539 193.408 71.867C193.544 71.6801 193.601 71.4467 193.565 71.2181L191.829 60.2756C191.817 60.1628 191.781 60.0537 191.725 59.9551C191.668 59.8564 191.593 59.7702 191.502 59.7016C191.411 59.633 191.308 59.5835 191.198 59.5561C191.087 59.5287 190.973 59.5239 190.861 59.542Z" fill="#407BFF"/>
<path opacity="0.7" d="M190.861 59.542L184.303 60.6004C184.153 60.6267 184.013 60.6924 183.897 60.7908C183.781 60.8892 183.693 61.0168 183.642 61.1604L183.334 62.0285C183.289 62.1484 183.214 62.2547 183.116 62.3371C183.018 62.4195 182.9 62.4752 182.774 62.4988L176.155 63.546C175.935 63.5805 175.738 63.7007 175.607 63.8802C175.476 64.0597 175.421 64.2839 175.455 64.5036L176.939 73.8501C176.975 74.0787 177.1 74.2837 177.287 74.4202C177.474 74.5567 177.707 74.6135 177.936 74.5781L192.837 72.2149C193.066 72.179 193.271 72.0539 193.408 71.867C193.544 71.6801 193.601 71.4467 193.565 71.2181L191.829 60.2756C191.817 60.1628 191.781 60.0537 191.725 59.9551C191.668 59.8564 191.593 59.7702 191.502 59.7016C191.411 59.633 191.308 59.5835 191.198 59.5561C191.087 59.5287 190.973 59.5239 190.861 59.542Z" fill="white"/>
<path d="M198.936 162.168L200.957 169.224L204.256 168.574L203.393 161.042L198.936 162.168Z" fill="#B97964"/>
<path d="M200.673 168.12L204.565 167.415C204.636 167.404 204.709 167.417 204.773 167.451C204.836 167.486 204.887 167.54 204.917 167.605L206.194 170.646C206.222 170.71 206.237 170.779 206.237 170.848C206.238 170.918 206.225 170.987 206.199 171.051C206.173 171.116 206.135 171.175 206.086 171.224C206.037 171.274 205.979 171.313 205.914 171.34C205.881 171.357 205.845 171.369 205.808 171.374C204.402 171.603 203.137 171.755 201.389 172.074C199.329 172.449 199.9 172.6 197.469 173.076C196.013 173.362 195.442 171.749 196.047 171.553C198.847 170.679 198.953 169.772 199.866 168.557C200.073 168.318 200.36 168.163 200.673 168.12Z" fill="#263238"/>
<path d="M170.186 160.795V170.147H173.691L175.5 161.014L170.186 160.795Z" fill="#B97964"/>
<path d="M170.124 169.548L174.072 169.688C174.144 169.692 174.213 169.72 174.268 169.768C174.323 169.815 174.36 169.88 174.374 169.951L174.973 173.188C174.992 173.325 174.96 173.465 174.883 173.58C174.805 173.694 174.688 173.776 174.553 173.81C174.516 173.815 174.478 173.815 174.441 173.81C173.019 173.737 171.753 173.614 169.961 173.552C167.867 173.479 168.388 173.748 165.929 173.692C164.445 173.659 164.249 171.967 164.865 171.906C167.755 171.648 168.085 170.786 169.233 169.8C169.488 169.607 169.806 169.517 170.124 169.548Z" fill="#263238"/>
<path d="M180.832 82.7035L187.378 80.8555C187.378 80.8555 192.021 83.8291 192.704 97.3587C192.984 102.796 194.535 106.996 194.317 117.3C194.25 120.31 194.914 123.29 196.254 125.986C197.869 129.247 199.084 132.692 199.872 136.245C201.832 145.015 204.257 165.096 204.257 165.096L199.525 165.88C199.525 165.88 195.14 150.995 189.372 136.111C183.604 121.226 179.561 98.5123 179.561 98.5123L178.043 82.7035H180.832Z" fill="#263238"/>
<path opacity="0.6" d="M183.541 99.207L182.213 99.4926L180.713 100.993L180.326 102.528C180.925 105.541 181.861 109.981 183.053 114.943C185.338 102.315 183.541 99.207 183.541 99.207Z" fill="black"/>
<path d="M168.713 82.127L169.928 167.118H174.598C174.598 167.118 179.448 146.174 179.448 137.864C179.448 132.947 179.123 127.745 178.86 124.317C178.665 121.775 178.983 119.219 179.795 116.802C181.335 112.227 183.749 104.348 184.062 99.207C184.062 99.207 190.178 98.9718 185.793 82.127H168.713Z" fill="#263238"/>
<path d="M172.33 39.124L170.174 41.2128C170.419 41.4657 170.72 41.6573 171.052 41.7721C171.385 41.8869 171.74 41.9217 172.089 41.8736L172.33 39.124Z" fill="#A24E3F"/>
<path d="M184.113 39.5502C183.245 43.8118 182.993 45.6374 180.49 47.5414C176.855 49.3222 171.703 48.4038 171.283 43.9686C170.903 39.9758 172.403 33.6926 176.839 32.5502C177.819 32.2967 178.848 32.2984 179.827 32.5552C180.806 32.8119 181.704 33.3151 182.434 34.0169C183.163 34.7187 183.701 35.5956 183.996 36.5642C184.291 37.5328 184.333 38.5607 184.119 39.5502H184.113Z" fill="#B97964"/>
<path d="M173.199 36.4083C173.171 36.4031 173.144 36.3919 173.121 36.3755C173.098 36.3591 173.078 36.3378 173.064 36.3131C172.975 36.1194 172.84 35.95 172.672 35.8194C172.503 35.6888 172.305 35.6007 172.095 35.5627C172.073 35.5606 172.052 35.5541 172.032 35.5437C172.013 35.5332 171.995 35.519 171.981 35.5018C171.967 35.4846 171.957 35.4648 171.95 35.4436C171.944 35.4223 171.942 35.4 171.944 35.3779C171.946 35.3553 171.953 35.3333 171.964 35.3133C171.975 35.2933 171.989 35.2757 172.007 35.2615C172.025 35.2474 172.045 35.237 172.067 35.231C172.089 35.225 172.112 35.2236 172.135 35.2267C172.4 35.2711 172.652 35.3787 172.867 35.5405C173.082 35.7023 173.256 35.9135 173.372 36.1563C173.383 36.1765 173.39 36.1986 173.392 36.2214C173.394 36.2442 173.392 36.2672 173.385 36.289C173.378 36.3109 173.367 36.3312 173.352 36.3488C173.338 36.3664 173.32 36.3809 173.299 36.3915L173.199 36.4083Z" fill="#263238"/>
<path opacity="0.2" d="M174.071 46.2926C173.246 46.2849 172.438 46.0567 171.73 45.6318C172.503 47.2726 174.138 48.1518 175.975 48.3478L175.914 47.4462C175.914 47.4462 176.076 46.3542 174.071 46.2926Z" fill="#606060"/>
<path d="M175.641 51.4219L176.021 45.9507C176.021 45.9507 178.233 45.1387 179.561 45.9507C179.561 45.9507 180.199 50.0443 181.409 51.0243L175.641 51.4219Z" fill="#B97964"/>
<path d="M171.367 38.1608C171.289 38.4744 171.367 38.7769 171.597 38.8273C171.827 38.8777 172.051 38.6537 172.123 38.3457C172.196 38.0377 172.123 37.7297 171.894 37.6793C171.664 37.6289 171.451 37.8416 171.367 38.1608Z" fill="#263238"/>
<path d="M172.066 37.6738C171.863 37.6304 171.672 37.5413 171.508 37.4132C171.344 37.2852 171.211 37.1215 171.12 36.9346C171.111 37.1867 171.187 37.4344 171.337 37.6377C171.486 37.841 171.7 37.9879 171.943 38.0546L172.066 37.6738Z" fill="#263238"/>
<path d="M172.756 39.1353C172.402 39.9506 172.386 40.8729 172.711 41.7001C173.153 42.7921 174.313 42.6297 174.951 41.7337C175.55 40.9217 176.032 39.3761 175.209 38.5641C175.027 38.3932 174.806 38.2698 174.566 38.2049C174.325 38.1401 174.072 38.1357 173.829 38.1922C173.586 38.2488 173.361 38.3645 173.174 38.529C172.987 38.6935 172.843 38.9018 172.756 39.1353Z" fill="#B97964"/>
<path d="M185.876 36.4085C185.876 36.4085 188.188 34.2077 186.34 32.5893C184.492 30.9709 186.598 34.3365 185.876 36.4085Z" fill="#263238"/>
<path d="M176.328 33.4348C176.328 33.4348 173.875 31.3852 173.041 32.9476C172.206 34.51 174.452 32.7404 176.328 33.4348Z" fill="#263238"/>
<path d="M176.07 38.1665L172.447 37.0017L172.475 36.9233C172.518 36.7718 172.501 36.6093 172.425 36.471C172.35 36.3326 172.223 36.2296 172.072 36.1841L171.411 35.9937C171.337 35.9672 171.258 35.9566 171.179 35.9626C171.101 35.9686 171.025 35.9911 170.955 36.0286C170.886 36.0661 170.826 36.1178 170.778 36.1803C170.73 36.2428 170.696 36.3147 170.677 36.3913L169.983 38.7601C169.932 38.9473 169.952 39.1468 170.039 39.3201C170.087 39.4093 170.152 39.488 170.231 39.5515C170.31 39.615 170.401 39.662 170.498 39.6897L170.806 39.7849C170.879 39.7931 170.952 39.7931 171.025 39.7849C171.193 39.7844 171.356 39.7296 171.49 39.6287C171.624 39.5278 171.722 39.3861 171.769 39.2249L172.329 37.2817L175.941 38.4409L176.07 38.1665ZM171.125 36.3409C171.187 36.3187 171.254 36.3187 171.316 36.3409L171.977 36.5369C172.007 36.5459 172.036 36.5609 172.061 36.581C172.085 36.6011 172.106 36.626 172.121 36.6541C172.136 36.6823 172.146 36.7131 172.149 36.7449C172.152 36.7767 172.148 36.8088 172.139 36.8393V36.9121L171.019 36.5537V36.5089C171.032 36.4414 171.07 36.3813 171.125 36.3409ZM171.45 39.1745C171.434 39.2316 171.407 39.2848 171.37 39.3308C171.332 39.3768 171.286 39.4147 171.234 39.442C171.181 39.4693 171.123 39.4855 171.064 39.4896C171.005 39.4937 170.946 39.4856 170.89 39.4657L170.588 39.3761C170.533 39.3602 170.483 39.3337 170.438 39.2982C170.394 39.2626 170.357 39.2187 170.33 39.1689C170.303 39.1199 170.286 39.0658 170.28 39.01C170.274 38.9541 170.28 38.8977 170.297 38.8441L170.857 36.8673L171.977 37.2313L171.45 39.1745Z" fill="#263238"/>
<path d="M173.736 52.9565C173.736 52.9565 174.296 50.7949 178.043 50.0165C179.031 49.752 180.079 49.8229 181.023 50.2181C181.966 50.6134 182.752 51.3106 183.256 52.2005L173.736 52.9565Z" fill="#407BFF"/>
<path opacity="0.5" d="M173.736 52.9565C173.736 52.9565 174.296 50.7949 178.043 50.0165C179.031 49.752 180.079 49.8229 181.023 50.2181C181.966 50.6134 182.752 51.3106 183.256 52.2005L173.736 52.9565Z" fill="white"/>
<path d="M168.281 82.6867C168.281 82.6867 183.468 84.5627 188.318 80.8555C187.443 76.9685 187.134 72.9756 187.399 69.0003C187.864 62.6835 189.813 56.4507 187.735 53.0347C185.658 49.6187 170.291 52.1667 167.262 55.2747C164.232 58.3827 168.281 70.5291 168.281 82.6867Z" fill="#407BFF"/>
<path opacity="0.2" d="M170.662 57.9795L169.407 61.7203L166.607 65.2427C166.932 67.8355 167.375 70.7531 167.727 73.8331C169.206 72.2163 170.357 70.3277 171.115 68.2723C173.859 60.7963 171.675 56.6299 171.675 56.6299L170.662 57.9795Z" fill="black"/>
<path d="M173.736 41.157C173.736 41.157 169.256 52.2898 176.85 52.2058C184.444 52.1218 186.28 50.2738 184.248 48.773C182.215 47.2722 188.89 42.3106 186.387 36.0834C186.387 36.0834 185.502 31.1218 180.428 31.1778C179.655 30.1544 178.515 29.47 177.248 29.2682C176.81 29.2148 176.366 29.2862 175.966 29.4742C175.567 29.6622 175.23 29.9592 174.992 30.3308C174.754 30.7025 174.626 31.1338 174.623 31.5749C174.62 32.0161 174.742 32.4491 174.974 32.8242L176.021 34.5042C176.021 34.5042 172.062 35.7922 173.736 41.157Z" fill="#263238"/>
<path d="M169.95 54.6924C169.95 54.6924 166.221 55.5156 165.47 60.2028C164.72 64.89 164.272 68.4404 162.905 68.9164C161.539 69.3924 155.065 64.0164 155.065 64.0164L155.278 60.8692C155.3 60.5234 155.219 60.1789 155.044 59.8796C154.87 59.5804 154.61 59.34 154.298 59.1892L153.811 58.9484C153.509 58.8022 153.171 58.7456 152.837 58.7853C152.504 58.825 152.189 58.9593 151.929 59.1724L151.56 59.4804C151.318 59.6807 151.133 59.942 151.026 60.2373C150.919 60.5327 150.892 60.8514 150.949 61.1604C151.201 62.4204 151.722 64.4476 152.629 65.0804C152.629 65.0804 161.713 75.5244 164.417 74.438C167.122 73.3516 169.172 66.7828 170.281 64.0556C171.16 61.9052 172.28 59.5084 169.95 54.6924Z" fill="#B97964"/>
<path d="M170.186 54.0822C169.172 53.4326 164.95 54.2166 163.953 63.9046C163.953 63.9046 167.285 66.7046 170.444 66.3294C170.444 66.3294 174.554 56.899 170.186 54.0822Z" fill="#407BFF"/>
<path d="M163.739 62.9746C163.739 62.9746 167.004 65.7746 171.092 65.6234L170.621 66.7154C170.621 66.7154 167.155 67.477 163.588 64.061L163.739 62.9746Z" fill="#407BFF"/>
<path opacity="0.5" d="M163.739 62.9746C163.739 62.9746 167.004 65.7746 171.092 65.6234L170.621 66.7154C170.621 66.7154 167.155 67.477 163.588 64.061L163.739 62.9746Z" fill="white"/>
<path d="M198.711 164.783L199.153 166.524L204.697 165.466L204.507 163.741L198.711 164.783Z" fill="#407BFF"/>
<path d="M169.352 166.003L169.419 167.733H175.153L175.5 166.003H169.352Z" fill="#407BFF"/>
</g>
<defs>
<clipPath id="clip0_27_31543">
<rect width="209" height="180" fill="white"/>
</clipPath>
</defs>
</svg>
